<?xml version="1.0" encoding="UTF-8" standalone="no"?><svg xmlns="http://www.w3.org/2000/svg" xmlns:xlink="http://www.w3.org/1999/xlink" clip-rule="evenodd" stroke-miterlimit="10" viewBox="0 0 1484 421"><desc>SVG generated by Keynote</desc><defs></defs><g transform="matrix(1.00, 0.00, -0.00, -1.00, 0.0, 421.0)"><text xml:space="preserve" font-family="Libertad-Book,Libertad" font-size="44.0" fill="#FEFFFF" transform="matrix(1.00, 0.00, -0.00, -1.00, 0.6, 385.1)">h</text><text xml:space="preserve" font-family="Libertad-Book,Libertad" font-size="44.0" fill="#FEFFFF" transform="matrix(1.00, 0.00, -0.00, -1.00, 25.3, 385.1)">t</text><text xml:space="preserve" font-family="Libertad-Book,Libertad" font-size="44.0" fill="#FEFFFF" transform="matrix(1.00, 0.00, -0.00, -1.00, 41.5, 385.1)">t</text><text xml:space="preserve" font-family="Libertad-Book,Libertad" font-size="44.0" fill="#FEFFFF" transform="matrix(1.00, 0.00, -0.00, -1.00, 57.2, 385.1)">p</text><text xml:space="preserve" font-family="Libertad-Book,Libertad" font-size="44.0" fill="#FEFFFF" transform="matrix(1.00, 0.00, -0.00, -1.00, 82.2, 385.1)">s</text><text xml:space="preserve" font-family="Libertad-Book,Libertad" font-size="44.0" fill="#FEFFFF" transform="matrix(1.00, 0.00, -0.00, -1.00, 100.1, 385.1)">:</text><text xml:space="preserve" font-family="Libertad-Book,Libertad" font-size="44.0" fill="#FEFFFF" transform="matrix(1.00, 0.00, -0.00, -1.00, 109.3, 385.1)">/</text><text xml:space="preserve" font-family="Libertad-Book,Libertad" font-size="44.0" fill="#FEFFFF" transform="matrix(1.00, 0.00, -0.00, -1.00, 122.9, 385.1)">/</text><text xml:space="preserve" font-family="Libertad-Book,Libertad" font-size="44.0" fill="#FEFFFF" transform="matrix(1.00, 0.00, -0.00, -1.00, 138.5, 385.1)">c</text><text xml:space="preserve" font-family="Libertad-Book,Libertad" font-size="44.0" fill="#FEFFFF" transform="matrix(1.00, 0.00, -0.00, -1.00, 158.5, 385.1)">s</text><text xml:space="preserve" font-family="Libertad-Book,Libertad" font-size="44.0" fill="#FEFFFF" transform="matrix(1.00, 0.00, -0.00, -1.00, 177.4, 385.1)">s</text><text xml:space="preserve" font-family="Libertad-Book,Libertad" font-size="44.0" fill="#FEFFFF" transform="matrix(1.00, 0.00, -0.00, -1.00, 195.3, 385.1)">-</text><text xml:space="preserve" font-family="Libertad-Book,Libertad" font-size="44.0" fill="#FEFFFF" transform="matrix(1.00, 0.00, -0.00, -1.00, 214.3, 385.1)">t</text><text xml:space="preserve" font-family="Libertad-Book,Libertad" font-size="44.0" fill="#FEFFFF" transform="matrix(1.00, 0.00, -0.00, -1.00, 230.1, 385.1)">r</text><text xml:space="preserve" font-family="Libertad-Book,Libertad" font-size="44.0" fill="#FEFFFF" transform="matrix(1.00, 0.00, -0.00, -1.00, 245.1, 385.1)">i</text><text xml:space="preserve" font-family="Libertad-Book,Libertad" font-size="44.0" fill="#FEFFFF" transform="matrix(1.00, 0.00, -0.00, -1.00, 255.8, 385.1)">c</text><text xml:space="preserve" font-family="Libertad-Book,Libertad" font-size="44.0" fill="#FEFFFF" transform="matrix(1.00, 0.00, -0.00, -1.00, 275.8, 385.1)">k</text><text xml:space="preserve" font-family="Libertad-Book,Libertad" font-size="44.0" fill="#FEFFFF" transform="matrix(1.00, 0.00, -0.00, -1.00, 297.9, 385.1)">s</text><text xml:space="preserve" font-family="Libertad-Book,Libertad" font-size="44.0" fill="#FEFFFF" transform="matrix(1.00, 0.00, -0.00, -1.00, 315.7, 385.1)">.</text><text xml:space="preserve" font-family="Libertad-Book,Libertad" font-size="44.0" fill="#FEFFFF" transform="matrix(1.00, 0.00, -0.00, -1.00, 325.0, 385.1)">c</text><text xml:space="preserve" font-family="Libertad-Book,Libertad" font-size="44.0" fill="#FEFFFF" transform="matrix(1.00, 0.00, -0.00, -1.00, 345.0, 385.1)">o</text><text xml:space="preserve" font-family="Libertad-Book,Libertad" font-size="44.0" fill="#FEFFFF" transform="matrix(1.00, 0.00, -0.00, -1.00, 369.4, 385.1)">m</text><text xml:space="preserve" font-family="Libertad-Book,Libertad" font-size="44.0" fill="#FEFFFF" transform="matrix(1.00, 0.00, -0.00, -1.00, 407.4, 385.1)"> </text><text xml:space="preserve" font-family="Libertad-Book,Libertad" font-size="44.0" fill="#FEFFFF" transform="matrix(1.00, 0.00, -0.00, -1.00, 0.6, 321.2)">h</text><text xml:space="preserve" font-family="Libertad-Book,Libertad" font-size="44.0" fill="#FEFFFF" transform="matrix(1.00, 0.00, -0.00, -1.00, 25.3, 321.2)">t</text><text xml:space="preserve" font-family="Libertad-Book,Libertad" font-size="44.0" fill="#FEFFFF" transform="matrix(1.00, 0.00, -0.00, -1.00, 41.5, 321.2)">t</text><text xml:space="preserve" font-family="Libertad-Book,Libertad" font-size="44.0" fill="#FEFFFF" transform="matrix(1.00, 0.00, -0.00, -1.00, 57.2, 321.2)">p</text><text xml:space="preserve" font-family="Libertad-Book,Libertad" font-size="44.0" fill="#FEFFFF" transform="matrix(1.00, 0.00, -0.00, -1.00, 82.2, 321.2)">:</text><text xml:space="preserve" font-family="Libertad-Book,Libertad" font-size="44.0" fill="#FEFFFF" transform="matrix(1.00, 0.00, -0.00, -1.00, 91.4, 321.2)">/</text><text xml:space="preserve" font-family="Libertad-Book,Libertad" font-size="44.0" fill="#FEFFFF" transform="matrix(1.00, 0.00, -0.00, -1.00, 105.0, 321.2)">/</text><text xml:space="preserve" font-family="Libertad-Book,Libertad" font-size="44.0" fill="#FEFFFF" transform="matrix(1.00, 0.00, -0.00, -1.00, 122.8, 321.2)">t</text><text xml:space="preserve" font-family="Libertad-Book,Libertad" font-size="44.0" fill="#FEFFFF" transform="matrix(1.00, 0.00, -0.00, -1.00, 139.0, 321.2)">y</text><text xml:space="preserve" font-family="Libertad-Book,Libertad" font-size="44.0" fill="#FEFFFF" transform="matrix(1.00, 0.00, -0.00, -1.00, 160.9, 321.2)">m</text><text xml:space="preserve" font-family="Libertad-Book,Libertad" font-size="44.0" fill="#FEFFFF" transform="matrix(1.00, 0.00, -0.00, -1.00, 198.9, 321.2)">p</text><text xml:space="preserve" font-family="Libertad-Book,Libertad" font-size="44.0" fill="#FEFFFF" transform="matrix(1.00, 0.00, -0.00, -1.00, 224.0, 321.2)">a</text><text xml:space="preserve" font-family="Libertad-Book,Libertad" font-size="44.0" fill="#FEFFFF" transform="matrix(1.00, 0.00, -0.00, -1.00, 245.4, 321.2)">n</text><text xml:space="preserve" font-family="Libertad-Book,Libertad" font-size="44.0" fill="#FEFFFF" transform="matrix(1.00, 0.00, -0.00, -1.00, 270.0, 321.2)">u</text><text xml:space="preserve" font-family="Libertad-Book,Libertad" font-size="44.0" fill="#FEFFFF" transform="matrix(1.00, 0.00, -0.00, -1.00, 294.2, 321.2)">s</text><text xml:space="preserve" font-family="Libertad-Book,Libertad" font-size="44.0" fill="#FEFFFF" transform="matrix(1.00, 0.00, -0.00, -1.00, 312.1, 321.2)">.</text><text xml:space="preserve" font-family="Libertad-Book,Libertad" font-size="44.0" fill="#FEFFFF" transform="matrix(1.00, 0.00, -0.00, -1.00, 321.3, 321.2)">n</text><text xml:space="preserve" font-family="Libertad-Book,Libertad" font-size="44.0" fill="#FEFFFF" transform="matrix(1.00, 0.00, -0.00, -1.00, 346.0, 321.2)">e</text><text xml:space="preserve" font-family="Libertad-Book,Libertad" font-size="44.0" fill="#FEFFFF" transform="matrix(1.00, 0.00, -0.00, -1.00, 368.2, 321.2)">t</text><text xml:space="preserve" font-family="Libertad-Book,Libertad" font-size="44.0" fill="#FEFFFF" transform="matrix(1.00, 0.00, -0.00, -1.00, 385.2, 321.2)">/</text><text xml:space="preserve" font-family="Libertad-Book,Libertad" font-size="44.0" fill="#FEFFFF" transform="matrix(1.00, 0.00, -0.00, -1.00, 400.9, 321.2)">c</text><text xml:space="preserve" font-family="Libertad-Book,Libertad" font-size="44.0" fill="#FEFFFF" transform="matrix(1.00, 0.00, -0.00, -1.00, 420.9, 321.2)">o</text><text xml:space="preserve" font-family="Libertad-Book,Libertad" font-size="44.0" fill="#FEFFFF" transform="matrix(1.00, 0.00, -0.00, -1.00, 445.3, 321.2)">d</text><text xml:space="preserve" font-family="Libertad-Book,Libertad" font-size="44.0" fill="#FEFFFF" transform="matrix(1.00, 0.00, -0.00, -1.00, 470.4, 321.2)">r</text><text xml:space="preserve" font-family="Libertad-Book,Libertad" font-size="44.0" fill="#FEFFFF" transform="matrix(1.00, 0.00, -0.00, -1.00, 485.0, 321.2)">o</text><text xml:space="preserve" font-family="Libertad-Book,Libertad" font-size="44.0" fill="#FEFFFF" transform="matrix(1.00, 0.00, -0.00, -1.00, 509.4, 321.2)">p</text><text xml:space="preserve" font-family="Libertad-Book,Libertad" font-size="44.0" fill="#FEFFFF" transform="matrix(1.00, 0.00, -0.00, -1.00, 534.4, 321.2)">s</text><text xml:space="preserve" font-family="Libertad-Book,Libertad" font-size="44.0" fill="#FEFFFF" transform="matrix(1.00, 0.00, -0.00, -1.00, 552.3, 321.2)">/</text><text xml:space="preserve" font-family="Libertad-Book,Libertad" font-size="44.0" fill="#FEFFFF" transform="matrix(1.00, 0.00, -0.00, -1.00, 570.1, 321.2)"> </text><text xml:space="preserve" font-family="Libertad-Book,Libertad" font-size="44.0" fill="#FEFFFF" transform="matrix(1.00, 0.00, -0.00, -1.00, 0.6, 257.4)">h</text><text xml:space="preserve" font-family="Libertad-Book,Libertad" font-size="44.0" fill="#FEFFFF" transform="matrix(1.00, 0.00, -0.00, -1.00, 25.3, 257.4)">t</text><text xml:space="preserve" font-family="Libertad-Book,Libertad" font-size="44.0" fill="#FEFFFF" transform="matrix(1.00, 0.00, -0.00, -1.00, 41.5, 257.4)">t</text><text xml:space="preserve" font-family="Libertad-Book,Libertad" font-size="44.0" fill="#FEFFFF" transform="matrix(1.00, 0.00, -0.00, -1.00, 57.2, 257.4)">p</text><text xml:space="preserve" font-family="Libertad-Book,Libertad" font-size="44.0" fill="#FEFFFF" transform="matrix(1.00, 0.00, -0.00, -1.00, 82.2, 257.4)">s</text><text xml:space="preserve" font-family="Libertad-Book,Libertad" font-size="44.0" fill="#FEFFFF" transform="matrix(1.00, 0.00, -0.00, -1.00, 100.1, 257.4)">:</text><text xml:space="preserve" font-family="Libertad-Book,Libertad" font-size="44.0" fill="#FEFFFF" transform="matrix(1.00, 0.00, -0.00, -1.00, 109.3, 257.4)">/</text><text xml:space="preserve" font-family="Libertad-Book,Libertad" font-size="44.0" fill="#FEFFFF" transform="matrix(1.00, 0.00, -0.00, -1.00, 122.9, 257.4)">/</text><text xml:space="preserve" font-family="Libertad-Book,Libertad" font-size="44.0" fill="#FEFFFF" transform="matrix(1.00, 0.00, -0.00, -1.00, 138.5, 257.4)">c</text><text xml:space="preserve" font-family="Libertad-Book,Libertad" font-size="44.0" fill="#FEFFFF" transform="matrix(1.00, 0.00, -0.00, -1.00, 158.5, 257.4)">s</text><text xml:space="preserve" font-family="Libertad-Book,Libertad" font-size="44.0" fill="#FEFFFF" transform="matrix(1.00, 0.00, -0.00, -1.00, 177.4, 257.4)">s</text><text xml:space="preserve" font-family="Libertad-Book,Libertad" font-size="44.0" fill="#FEFFFF" transform="matrix(1.00, 0.00, -0.00, -1.00, 195.7, 257.4)">a</text><text xml:space="preserve" font-family="Libertad-Book,Libertad" font-size="44.0" fill="#FEFFFF" transform="matrix(1.00, 0.00, -0.00, -1.00, 217.1, 257.4)">n</text><text xml:space="preserve" font-family="Libertad-Book,Libertad" font-size="44.0" fill="#FEFFFF" transform="matrix(1.00, 0.00, -0.00, -1.00, 241.8, 257.4)">i</text><text xml:space="preserve" font-family="Libertad-Book,Libertad" font-size="44.0" fill="#FEFFFF" transform="matrix(1.00, 0.00, -0.00, -1.00, 252.5, 257.4)">m</text><text xml:space="preserve" font-family="Libertad-Book,Libertad" font-size="44.0" fill="#FEFFFF" transform="matrix(1.00, 0.00, -0.00, -1.00, 290.5, 257.4)">a</text><text xml:space="preserve" font-family="Libertad-Book,Libertad" font-size="44.0" fill="#FEFFFF" transform="matrix(1.00, 0.00, -0.00, -1.00, 311.9, 257.4)">t</text><text xml:space="preserve" font-family="Libertad-Book,Libertad" font-size="44.0" fill="#FEFFFF" transform="matrix(1.00, 0.00, -0.00, -1.00, 327.6, 257.4)">i</text><text xml:space="preserve" font-family="Libertad-Book,Libertad" font-size="44.0" fill="#FEFFFF" transform="matrix(1.00, 0.00, -0.00, -1.00, 338.3, 257.4)">o</text><text xml:space="preserve" font-family="Libertad-Book,Libertad" font-size="44.0" fill="#FEFFFF" transform="matrix(1.00, 0.00, -0.00, -1.00, 362.7, 257.4)">n</text><text xml:space="preserve" font-family="Libertad-Book,Libertad" font-size="44.0" fill="#FEFFFF" transform="matrix(1.00, 0.00, -0.00, -1.00, 387.4, 257.4)">.</text><text xml:space="preserve" font-family="Libertad-Book,Libertad" font-size="44.0" fill="#FEFFFF" transform="matrix(1.00, 0.00, -0.00, -1.00, 396.6, 257.4)">r</text><text xml:space="preserve" font-family="Libertad-Book,Libertad" font-size="44.0" fill="#FEFFFF" transform="matrix(1.00, 0.00, -0.00, -1.00, 411.2, 257.4)">o</text><text xml:space="preserve" font-family="Libertad-Book,Libertad" font-size="44.0" fill="#FEFFFF" transform="matrix(1.00, 0.00, -0.00, -1.00, 435.7, 257.4)">c</text><text xml:space="preserve" font-family="Libertad-Book,Libertad" font-size="44.0" fill="#FEFFFF" transform="matrix(1.00, 0.00, -0.00, -1.00, 455.7, 257.4)">k</text><text xml:space="preserve" font-family="Libertad-Book,Libertad" font-size="44.0" fill="#FEFFFF" transform="matrix(1.00, 0.00, -0.00, -1.00, 477.7, 257.4)">s</text><text xml:space="preserve" font-family="Libertad-Book,Libertad" font-size="44.0" fill="#FEFFFF" transform="matrix(1.00, 0.00, -0.00, -1.00, 495.6, 257.4)">/</text><text xml:space="preserve" font-family="Libertad-Book,Libertad" font-size="44.0" fill="#FEFFFF" transform="matrix(1.00, 0.00, -0.00, -1.00, 513.4, 257.4)"> </text><text xml:space="preserve" font-family="Libertad-Book,Libertad" font-size="44.0" fill="#FEFFFF" transform="matrix(1.00, 0.00, -0.00, -1.00, 0.6, 193.5)">h</text><text xml:space="preserve" font-family="Libertad-Book,Libertad" font-size="44.0" fill="#FEFFFF" transform="matrix(1.00, 0.00, -0.00, -1.00, 25.3, 193.5)">t</text><text xml:space="preserve" font-family="Libertad-Book,Libertad" font-size="44.0" fill="#FEFFFF" transform="matrix(1.00, 0.00, -0.00, -1.00, 41.5, 193.5)">t</text><text xml:space="preserve" font-family="Libertad-Book,Libertad" font-size="44.0" fill="#FEFFFF" transform="matrix(1.00, 0.00, -0.00, -1.00, 57.2, 193.5)">p</text><text xml:space="preserve" font-family="Libertad-Book,Libertad" font-size="44.0" fill="#FEFFFF" transform="matrix(1.00, 0.00, -0.00, -1.00, 82.2, 193.5)">:</text><text xml:space="preserve" font-family="Libertad-Book,Libertad" font-size="44.0" fill="#FEFFFF" transform="matrix(1.00, 0.00, -0.00, -1.00, 91.4, 193.5)">/</text><text xml:space="preserve" font-family="Libertad-Book,Libertad" font-size="44.0" fill="#FEFFFF" transform="matrix(1.00, 0.00, -0.00, -1.00, 105.0, 193.5)">/</text><text xml:space="preserve" font-family="Libertad-Book,Libertad" font-size="44.0" fill="#FEFFFF" transform="matrix(1.00, 0.00, -0.00, -1.00, 120.7, 193.5)">d</text><text xml:space="preserve" font-family="Libertad-Book,Libertad" font-size="44.0" fill="#FEFFFF" transform="matrix(1.00, 0.00, -0.00, -1.00, 145.7, 193.5)">a</text><text xml:space="preserve" font-family="Libertad-Book,Libertad" font-size="44.0" fill="#FEFFFF" transform="matrix(1.00, 0.00, -0.00, -1.00, 167.1, 193.5)">n</text><text xml:space="preserve" font-family="Libertad-Book,Libertad" font-size="44.0" fill="#FEFFFF" transform="matrix(1.00, 0.00, -0.00, -1.00, 191.7, 193.5)">e</text><text xml:space="preserve" font-family="Libertad-Book,Libertad" font-size="44.0" fill="#FEFFFF" transform="matrix(1.00, 0.00, -0.00, -1.00, 214.0, 193.5)">d</text><text xml:space="preserve" font-family="Libertad-Book,Libertad" font-size="44.0" fill="#FEFFFF" transform="matrix(1.00, 0.00, -0.00, -1.00, 239.0, 193.5)">e</text><text xml:space="preserve" font-family="Libertad-Book,Libertad" font-size="44.0" fill="#FEFFFF" transform="matrix(1.00, 0.00, -0.00, -1.00, 261.2, 193.5)">n</text><text xml:space="preserve" font-family="Libertad-Book,Libertad" font-size="44.0" fill="#FEFFFF" transform="matrix(1.00, 0.00, -0.00, -1.00, 285.8, 193.5)">.</text><text xml:space="preserve" font-family="Libertad-Book,Libertad" font-size="44.0" fill="#FEFFFF" transform="matrix(1.00, 0.00, -0.00, -1.00, 295.1, 193.5)">g</text><text xml:space="preserve" font-family="Libertad-Book,Libertad" font-size="44.0" fill="#FEFFFF" transform="matrix(1.00, 0.00, -0.00, -1.00, 317.3, 193.5)">i</text><text xml:space="preserve" font-family="Libertad-Book,Libertad" font-size="44.0" fill="#FEFFFF" transform="matrix(1.00, 0.00, -0.00, -1.00, 328.0, 193.5)">t</text><text xml:space="preserve" font-family="Libertad-Book,Libertad" font-size="44.0" fill="#FEFFFF" transform="matrix(1.00, 0.00, -0.00, -1.00, 343.8, 193.5)">h</text><text xml:space="preserve" font-family="Libertad-Book,Libertad" font-size="44.0" fill="#FEFFFF" transform="matrix(1.00, 0.00, -0.00, -1.00, 368.4, 193.5)">u</text><text xml:space="preserve" font-family="Libertad-Book,Libertad" font-size="44.0" fill="#FEFFFF" transform="matrix(1.00, 0.00, -0.00, -1.00, 392.6, 193.5)">b</text><text xml:space="preserve" font-family="Libertad-Book,Libertad" font-size="44.0" fill="#FEFFFF" transform="matrix(1.00, 0.00, -0.00, -1.00, 417.3, 193.5)">.</text><text xml:space="preserve" font-family="Libertad-Book,Libertad" font-size="44.0" fill="#FEFFFF" transform="matrix(1.00, 0.00, -0.00, -1.00, 426.6, 193.5)">i</text><text xml:space="preserve" font-family="Libertad-Book,Libertad" font-size="44.0" fill="#FEFFFF" transform="matrix(1.00, 0.00, -0.00, -1.00, 437.3, 193.5)">o</text><text xml:space="preserve" font-family="Libertad-Book,Libertad" font-size="44.0" fill="#FEFFFF" transform="matrix(1.00, 0.00, -0.00, -1.00, 461.7, 193.5)">/</text><text xml:space="preserve" font-family="Libertad-Book,Libertad" font-size="44.0" fill="#FEFFFF" transform="matrix(1.00, 0.00, -0.00, -1.00, 477.4, 193.5)">a</text><text xml:space="preserve" font-family="Libertad-Book,Libertad" font-size="44.0" fill="#FEFFFF" transform="matrix(1.00, 0.00, -0.00, -1.00, 498.8, 193.5)">n</text><text xml:space="preserve" font-family="Libertad-Book,Libertad" font-size="44.0" fill="#FEFFFF" transform="matrix(1.00, 0.00, -0.00, -1.00, 523.5, 193.5)">i</text><text xml:space="preserve" font-family="Libertad-Book,Libertad" font-size="44.0" fill="#FEFFFF" transform="matrix(1.00, 0.00, -0.00, -1.00, 534.2, 193.5)">m</text><text xml:space="preserve" font-family="Libertad-Book,Libertad" font-size="44.0" fill="#FEFFFF" transform="matrix(1.00, 0.00, -0.00, -1.00, 572.2, 193.5)">a</text><text xml:space="preserve" font-family="Libertad-Book,Libertad" font-size="44.0" fill="#FEFFFF" transform="matrix(1.00, 0.00, -0.00, -1.00, 593.6, 193.5)">t</text><text xml:space="preserve" font-family="Libertad-Book,Libertad" font-size="44.0" fill="#FEFFFF" transform="matrix(1.00, 0.00, -0.00, -1.00, 609.3, 193.5)">e</text><text xml:space="preserve" font-family="Libertad-Book,Libertad" font-size="44.0" fill="#FEFFFF" transform="matrix(1.00, 0.00, -0.00, -1.00, 631.5, 193.5)">.</text><text xml:space="preserve" font-family="Libertad-Book,Libertad" font-size="44.0" fill="#FEFFFF" transform="matrix(1.00, 0.00, -0.00, -1.00, 640.8, 193.5)">c</text><text xml:space="preserve" font-family="Libertad-Book,Libertad" font-size="44.0" fill="#FEFFFF" transform="matrix(1.00, 0.00, -0.00, -1.00, 660.7, 193.5)">s</text><text xml:space="preserve" font-family="Libertad-Book,Libertad" font-size="44.0" fill="#FEFFFF" transform="matrix(1.00, 0.00, -0.00, -1.00, 679.6, 193.5)">s</text><text xml:space="preserve" font-family="Libertad-Book,Libertad" font-size="44.0" fill="#FEFFFF" transform="matrix(1.00, 0.00, -0.00, -1.00, 697.5, 193.5)">/</text><text xml:space="preserve" font-family="Libertad-Book,Libertad" font-size="44.0" fill="#FEFFFF" transform="matrix(1.00, 0.00, -0.00, -1.00, 715.3, 193.5)"> </text><text xml:space="preserve" font-family="Libertad-Book,Libertad" font-size="44.0" fill="#FEFFFF" transform="matrix(1.00, 0.00, -0.00, -1.00, 0.6, 129.7)">h</text><text xml:space="preserve" font-family="Libertad-Book,Libertad" font-size="44.0" fill="#FEFFFF" transform="matrix(1.00, 0.00, -0.00, -1.00, 25.3, 129.7)">t</text><text xml:space="preserve" font-family="Libertad-Book,Libertad" font-size="44.0" fill="#FEFFFF" transform="matrix(1.00, 0.00, -0.00, -1.00, 41.5, 129.7)">t</text><text xml:space="preserve" font-family="Libertad-Book,Libertad" font-size="44.0" fill="#FEFFFF" transform="matrix(1.00, 0.00, -0.00, -1.00, 57.2, 129.7)">p</text><text xml:space="preserve" font-family="Libertad-Book,Libertad" font-size="44.0" fill="#FEFFFF" transform="matrix(1.00, 0.00, -0.00, -1.00, 82.2, 129.7)">:</text><text xml:space="preserve" font-family="Libertad-Book,Libertad" font-size="44.0" fill="#FEFFFF" transform="matrix(1.00, 0.00, -0.00, -1.00, 91.4, 129.7)">/</text><text xml:space="preserve" font-family="Libertad-Book,Libertad" font-size="44.0" fill="#FEFFFF" transform="matrix(1.00, 0.00, -0.00, -1.00, 105.0, 129.7)">/</text><text xml:space="preserve" font-family="Libertad-Book,Libertad" font-size="44.0" fill="#FEFFFF" transform="matrix(1.00, 0.00, -0.00, -1.00, 122.8, 129.7)">w</text><text xml:space="preserve" font-family="Libertad-Book,Libertad" font-size="44.0" fill="#FEFFFF" transform="matrix(1.00, 0.00, -0.00, -1.00, 157.3, 129.7)">w</text><text xml:space="preserve" font-family="Libertad-Book,Libertad" font-size="44.0" fill="#FEFFFF" transform="matrix(1.00, 0.00, -0.00, -1.00, 191.8, 129.7)">w</text><text xml:space="preserve" font-family="Libertad-Book,Libertad" font-size="44.0" fill="#FEFFFF" transform="matrix(1.00, 0.00, -0.00, -1.00, 223.6, 129.7)">.</text><text xml:space="preserve" font-family="Libertad-Book,Libertad" font-size="44.0" fill="#FEFFFF" transform="matrix(1.00, 0.00, -0.00, -1.00, 232.9, 129.7)">g</text><text xml:space="preserve" font-family="Libertad-Book,Libertad" font-size="44.0" fill="#FEFFFF" transform="matrix(1.00, 0.00, -0.00, -1.00, 254.6, 129.7)">o</text><text xml:space="preserve" font-family="Libertad-Book,Libertad" font-size="44.0" fill="#FEFFFF" transform="matrix(1.00, 0.00, -0.00, -1.00, 279.0, 129.7)">o</text><text xml:space="preserve" font-family="Libertad-Book,Libertad" font-size="44.0" fill="#FEFFFF" transform="matrix(1.00, 0.00, -0.00, -1.00, 303.4, 129.7)">g</text><text xml:space="preserve" font-family="Libertad-Book,Libertad" font-size="44.0" fill="#FEFFFF" transform="matrix(1.00, 0.00, -0.00, -1.00, 325.7, 129.7)">l</text><text xml:space="preserve" font-family="Libertad-Book,Libertad" font-size="44.0" fill="#FEFFFF" transform="matrix(1.00, 0.00, -0.00, -1.00, 336.4, 129.7)">e</text><text xml:space="preserve" font-family="Libertad-Book,Libertad" font-size="44.0" fill="#FEFFFF" transform="matrix(1.00, 0.00, -0.00, -1.00, 358.6, 129.7)">.</text><text xml:space="preserve" font-family="Libertad-Book,Libertad" font-size="44.0" fill="#FEFFFF" transform="matrix(1.00, 0.00, -0.00, -1.00, 367.9, 129.7)">c</text><text xml:space="preserve" font-family="Libertad-Book,Libertad" font-size="44.0" fill="#FEFFFF" transform="matrix(1.00, 0.00, -0.00, -1.00, 387.8, 129.7)">o</text><text xml:space="preserve" font-family="Libertad-Book,Libertad" font-size="44.0" fill="#FEFFFF" transform="matrix(1.00, 0.00, -0.00, -1.00, 412.3, 129.7)">m</text><text xml:space="preserve" font-family="Libertad-Book,Libertad" font-size="44.0" fill="#FEFFFF" transform="matrix(1.00, 0.00, -0.00, -1.00, 450.3, 129.7)">/</text><text xml:space="preserve" font-family="Libertad-Book,Libertad" font-size="44.0" fill="#FEFFFF" transform="matrix(1.00, 0.00, -0.00, -1.00, 466.0, 129.7)">d</text><text xml:space="preserve" font-family="Libertad-Book,Libertad" font-size="44.0" fill="#FEFFFF" transform="matrix(1.00, 0.00, -0.00, -1.00, 491.0, 129.7)">e</text><text xml:space="preserve" font-family="Libertad-Book,Libertad" font-size="44.0" fill="#FEFFFF" transform="matrix(1.00, 0.00, -0.00, -1.00, 513.4, 129.7)">s</text><text xml:space="preserve" font-family="Libertad-Book,Libertad" font-size="44.0" fill="#FEFFFF" transform="matrix(1.00, 0.00, -0.00, -1.00, 531.3, 129.7)">i</text><text xml:space="preserve" font-family="Libertad-Book,Libertad" font-size="44.0" fill="#FEFFFF" transform="matrix(1.00, 0.00, -0.00, -1.00, 542.0, 129.7)">g</text><text xml:space="preserve" font-family="Libertad-Book,Libertad" font-size="44.0" fill="#FEFFFF" transform="matrix(1.00, 0.00, -0.00, -1.00, 564.3, 129.7)">n</text><text xml:space="preserve" font-family="Libertad-Book,Libertad" font-size="44.0" fill="#FEFFFF" transform="matrix(1.00, 0.00, -0.00, -1.00, 588.9, 129.7)">/</text><text xml:space="preserve" font-family="Libertad-Book,Libertad" font-size="44.0" fill="#FEFFFF" transform="matrix(1.00, 0.00, -0.00, -1.00, 606.8, 129.7)">s</text><text xml:space="preserve" font-family="Libertad-Book,Libertad" font-size="44.0" fill="#FEFFFF" transform="matrix(1.00, 0.00, -0.00, -1.00, 624.6, 129.7)">p</text><text xml:space="preserve" font-family="Libertad-Book,Libertad" font-size="44.0" fill="#FEFFFF" transform="matrix(1.00, 0.00, -0.00, -1.00, 649.7, 129.7)">e</text><text xml:space="preserve" font-family="Libertad-Book,Libertad" font-size="44.0" fill="#FEFFFF" transform="matrix(1.00, 0.00, -0.00, -1.00, 671.9, 129.7)">c</text><text xml:space="preserve" font-family="Libertad-Book,Libertad" font-size="44.0" fill="#FEFFFF" transform="matrix(1.00, 0.00, -0.00, -1.00, 691.9, 129.7)">/</text><text xml:space="preserve" font-family="Libertad-Book,Libertad" font-size="44.0" fill="#FEFFFF" transform="matrix(1.00, 0.00, -0.00, -1.00, 707.5, 129.7)">a</text><text xml:space="preserve" font-family="Libertad-Book,Libertad" font-size="44.0" fill="#FEFFFF" transform="matrix(1.00, 0.00, -0.00, -1.00, 729.0, 129.7)">n</text><text xml:space="preserve" font-family="Libertad-Book,Libertad" font-size="44.0" fill="#FEFFFF" transform="matrix(1.00, 0.00, -0.00, -1.00, 753.6, 129.7)">i</text><text xml:space="preserve" font-family="Libertad-Book,Libertad" font-size="44.0" fill="#FEFFFF" transform="matrix(1.00, 0.00, -0.00, -1.00, 764.3, 129.7)">m</text><text xml:space="preserve" font-family="Libertad-Book,Libertad" font-size="44.0" fill="#FEFFFF" transform="matrix(1.00, 0.00, -0.00, -1.00, 802.3, 129.7)">a</text><text xml:space="preserve" font-family="Libertad-Book,Libertad" font-size="44.0" fill="#FEFFFF" transform="matrix(1.00, 0.00, -0.00, -1.00, 823.7, 129.7)">t</text><text xml:space="preserve" font-family="Libertad-Book,Libertad" font-size="44.0" fill="#FEFFFF" transform="matrix(1.00, 0.00, -0.00, -1.00, 839.5, 129.7)">i</text><text xml:space="preserve" font-family="Libertad-Book,Libertad" font-size="44.0" fill="#FEFFFF" transform="matrix(1.00, 0.00, -0.00, -1.00, 850.2, 129.7)">o</text><text xml:space="preserve" font-family="Libertad-Book,Libertad" font-size="44.0" fill="#FEFFFF" transform="matrix(1.00, 0.00, -0.00, -1.00, 874.6, 129.7)">n</text><text xml:space="preserve" font-family="Libertad-Book,Libertad" font-size="44.0" fill="#FEFFFF" transform="matrix(1.00, 0.00, -0.00, -1.00, 899.2, 129.7)">/</text><text xml:space="preserve" font-family="Libertad-Book,Libertad" font-size="44.0" fill="#FEFFFF" transform="matrix(1.00, 0.00, -0.00, -1.00, 917.1, 129.7)"> </text><text xml:space="preserve" font-family="Libertad-Book,Libertad" font-size="44.0" fill="#FEFFFF" transform="matrix(1.00, 0.00, -0.00, -1.00, 0.6, 65.8)">h</text><text xml:space="preserve" font-family="Libertad-Book,Libertad" font-size="44.0" fill="#FEFFFF" transform="matrix(1.00, 0.00, -0.00, -1.00, 25.3, 65.8)">t</text><text xml:space="preserve" font-family="Libertad-Book,Libertad" font-size="44.0" fill="#FEFFFF" transform="matrix(1.00, 0.00, -0.00, -1.00, 41.5, 65.8)">t</text><text xml:space="preserve" font-family="Libertad-Book,Libertad" font-size="44.0" fill="#FEFFFF" transform="matrix(1.00, 0.00, -0.00, -1.00, 57.2, 65.8)">p</text><text xml:space="preserve" font-family="Libertad-Book,Libertad" font-size="44.0" fill="#FEFFFF" transform="matrix(1.00, 0.00, -0.00, -1.00, 82.2, 65.8)">s</text><text xml:space="preserve" font-family="Libertad-Book,Libertad" font-size="44.0" fill="#FEFFFF" transform="matrix(1.00, 0.00, -0.00, -1.00, 100.1, 65.8)">:</text><text xml:space="preserve" font-family="Libertad-Book,Libertad" font-size="44.0" fill="#FEFFFF" transform="matrix(1.00, 0.00, -0.00, -1.00, 109.3, 65.8)">/</text><text xml:space="preserve" font-family="Libertad-Book,Libertad" font-size="44.0" fill="#FEFFFF" transform="matrix(1.00, 0.00, -0.00, -1.00, 122.9, 65.8)">/</text><text xml:space="preserve" font-family="Libertad-Book,Libertad" font-size="44.0" fill="#FEFFFF" transform="matrix(1.00, 0.00, -0.00, -1.00, 139.8, 65.8)">m</text><text xml:space="preserve" font-family="Libertad-Book,Libertad" font-size="44.0" fill="#FEFFFF" transform="matrix(1.00, 0.00, -0.00, -1.00, 177.8, 65.8)">e</text><text xml:space="preserve" font-family="Libertad-Book,Libertad" font-size="44.0" fill="#FEFFFF" transform="matrix(1.00, 0.00, -0.00, -1.00, 200.0, 65.8)">d</text><text xml:space="preserve" font-family="Libertad-Book,Libertad" font-size="44.0" fill="#FEFFFF" transform="matrix(1.00, 0.00, -0.00, -1.00, 225.0, 65.8)">i</text><text xml:space="preserve" font-family="Libertad-Book,Libertad" font-size="44.0" fill="#FEFFFF" transform="matrix(1.00, 0.00, -0.00, -1.00, 235.8, 65.8)">u</text><text xml:space="preserve" font-family="Libertad-Book,Libertad" font-size="44.0" fill="#FEFFFF" transform="matrix(1.00, 0.00, -0.00, -1.00, 259.9, 65.8)">m</text><text xml:space="preserve" font-family="Libertad-Book,Libertad" font-size="44.0" fill="#FEFFFF" transform="matrix(1.00, 0.00, -0.00, -1.00, 297.9, 65.8)">.</text><text xml:space="preserve" font-family="Libertad-Book,Libertad" font-size="44.0" fill="#FEFFFF" transform="matrix(1.00, 0.00, -0.00, -1.00, 307.2, 65.8)">c</text><text xml:space="preserve" font-family="Libertad-Book,Libertad" font-size="44.0" fill="#FEFFFF" transform="matrix(1.00, 0.00, -0.00, -1.00, 327.2, 65.8)">o</text><text xml:space="preserve" font-family="Libertad-Book,Libertad" font-size="44.0" fill="#FEFFFF" transform="matrix(1.00, 0.00, -0.00, -1.00, 351.6, 65.8)">m</text><text xml:space="preserve" font-family="Libertad-Book,Libertad" font-size="44.0" fill="#FEFFFF" transform="matrix(1.00, 0.00, -0.00, -1.00, 389.6, 65.8)">/</text><text xml:space="preserve" font-family="Libertad-Book,Libertad" font-size="44.0" fill="#FEFFFF" transform="matrix(1.00, 0.00, -0.00, -1.00, 407.4, 65.8)">@</text><text xml:space="preserve" font-family="Libertad-Book,Libertad" font-size="44.0" fill="#FEFFFF" transform="matrix(1.00, 0.00, -0.00, -1.00, 455.7, 65.8)">m</text><text xml:space="preserve" font-family="Libertad-Book,Libertad" font-size="44.0" fill="#FEFFFF" transform="matrix(1.00, 0.00, -0.00, -1.00, 493.7, 65.8)">i</text><text xml:space="preserve" font-family="Libertad-Book,Libertad" font-size="44.0" fill="#FEFFFF" transform="matrix(1.00, 0.00, -0.00, -1.00, 504.4, 65.8)">c</text><text xml:space="preserve" font-family="Libertad-Book,Libertad" font-size="44.0" fill="#FEFFFF" transform="matrix(1.00, 0.00, -0.00, -1.00, 524.4, 65.8)">h</text><text xml:space="preserve" font-family="Libertad-Book,Libertad" font-size="44.0" fill="#FEFFFF" transform="matrix(1.00, 0.00, -0.00, -1.00, 549.1, 65.8)">a</text><text xml:space="preserve" font-family="Libertad-Book,Libertad" font-size="44.0" fill="#FEFFFF" transform="matrix(1.00, 0.00, -0.00, -1.00, 570.5, 65.8)">e</text><text xml:space="preserve" font-family="Libertad-Book,Libertad" font-size="44.0" fill="#FEFFFF" transform="matrix(1.00, 0.00, -0.00, -1.00, 592.7, 65.8)">l</text><text xml:space="preserve" font-family="Libertad-Book,Libertad" font-size="44.0" fill="#FEFFFF" transform="matrix(1.00, 0.00, -0.00, -1.00, 603.4, 65.8)">v</text><text xml:space="preserve" font-family="Libertad-Book,Libertad" font-size="44.0" fill="#FEFFFF" transform="matrix(1.00, 0.00, -0.00, -1.00, 625.5, 65.8)">i</text><text xml:space="preserve" font-family="Libertad-Book,Libertad" font-size="44.0" fill="#FEFFFF" transform="matrix(1.00, 0.00, -0.00, -1.00, 636.2, 65.8)">l</text><text xml:space="preserve" font-family="Libertad-Book,Libertad" font-size="44.0" fill="#FEFFFF" transform="matrix(1.00, 0.00, -0.00, -1.00, 646.9, 65.8)">l</text><text xml:space="preserve" font-family="Libertad-Book,Libertad" font-size="44.0" fill="#FEFFFF" transform="matrix(1.00, 0.00, -0.00, -1.00, 657.6, 65.8)">a</text><text xml:space="preserve" font-family="Libertad-Book,Libertad" font-size="44.0" fill="#FEFFFF" transform="matrix(1.00, 0.00, -0.00, -1.00, 679.0, 65.8)">r</text><text xml:space="preserve" font-family="Libertad-Book,Libertad" font-size="44.0" fill="#FEFFFF" transform="matrix(1.00, 0.00, -0.00, -1.00, 694.0, 65.8)">/</text><text xml:space="preserve" font-family="Libertad-Book,Libertad" font-size="44.0" fill="#FEFFFF" transform="matrix(1.00, 0.00, -0.00, -1.00, 711.9, 65.8)">i</text><text xml:space="preserve" font-family="Libertad-Book,Libertad" font-size="44.0" fill="#FEFFFF" transform="matrix(1.00, 0.00, -0.00, -1.00, 722.6, 65.8)">m</text><text xml:space="preserve" font-family="Libertad-Book,Libertad" font-size="44.0" fill="#FEFFFF" transform="matrix(1.00, 0.00, -0.00, -1.00, 760.6, 65.8)">p</text><text xml:space="preserve" font-family="Libertad-Book,Libertad" font-size="44.0" fill="#FEFFFF" transform="matrix(1.00, 0.00, -0.00, -1.00, 785.6, 65.8)">r</text><text xml:space="preserve" font-family="Libertad-Book,Libertad" font-size="44.0" fill="#FEFFFF" transform="matrix(1.00, 0.00, -0.00, -1.00, 800.2, 65.8)">o</text><text xml:space="preserve" font-family="Libertad-Book,Libertad" font-size="44.0" fill="#FEFFFF" transform="matrix(1.00, 0.00, -0.00, -1.00, 824.6, 65.8)">v</text><text xml:space="preserve" font-family="Libertad-Book,Libertad" font-size="44.0" fill="#FEFFFF" transform="matrix(1.00, 0.00, -0.00, -1.00, 846.7, 65.8)">e</text><text xml:space="preserve" font-family="Libertad-Book,Libertad" font-size="44.0" fill="#FEFFFF" transform="matrix(1.00, 0.00, -0.00, -1.00, 868.9, 65.8)">-</text><text xml:space="preserve" font-family="Libertad-Book,Libertad" font-size="44.0" fill="#FEFFFF" transform="matrix(1.00, 0.00, -0.00, -1.00, 888.0, 65.8)">t</text><text xml:space="preserve" font-family="Libertad-Book,Libertad" font-size="44.0" fill="#FEFFFF" transform="matrix(1.00, 0.00, -0.00, -1.00, 903.7, 65.8)">h</text><text xml:space="preserve" font-family="Libertad-Book,Libertad" font-size="44.0" fill="#FEFFFF" transform="matrix(1.00, 0.00, -0.00, -1.00, 928.4, 65.8)">e</text><text xml:space="preserve" font-family="Libertad-Book,Libertad" font-size="44.0" fill="#FEFFFF" transform="matrix(1.00, 0.00, -0.00, -1.00, 950.6, 65.8)">-</text><text xml:space="preserve" font-family="Libertad-Book,Libertad" font-size="44.0" fill="#FEFFFF" transform="matrix(1.00, 0.00, -0.00, -1.00, 969.7, 65.8)">p</text><text xml:space="preserve" font-family="Libertad-Book,Libertad" font-size="44.0" fill="#FEFFFF" transform="matrix(1.00, 0.00, -0.00, -1.00, 994.7, 65.8)">a</text><text xml:space="preserve" font-family="Libertad-Book,Libertad" font-size="44.0" fill="#FEFFFF" transform="matrix(1.00, 0.00, -0.00, -1.00, 1016.1, 65.8)">y</text><text xml:space="preserve" font-family="Libertad-Book,Libertad" font-size="44.0" fill="#FEFFFF" transform="matrix(1.00, 0.00, -0.00, -1.00, 1038.0, 65.8)">m</text><text xml:space="preserve" font-family="Libertad-Book,Libertad" font-size="44.0" fill="#FEFFFF" transform="matrix(1.00, 0.00, -0.00, -1.00, 1076.0, 65.8)">e</text><text xml:space="preserve" font-family="Libertad-Book,Libertad" font-size="44.0" fill="#FEFFFF" transform="matrix(1.00, 0.00, -0.00, -1.00, 1098.2, 65.8)">n</text><text xml:space="preserve" font-family="Libertad-Book,Libertad" font-size="44.0" fill="#FEFFFF" transform="matrix(1.00, 0.00, -0.00, -1.00, 1122.9, 65.8)">t</text><text xml:space="preserve" font-family="Libertad-Book,Libertad" font-size="44.0" fill="#FEFFFF" transform="matrix(1.00, 0.00, -0.00, -1.00, 1137.3, 65.8)">-</text><text xml:space="preserve" font-family="Libertad-Book,Libertad" font-size="44.0" fill="#FEFFFF" transform="matrix(1.00, 0.00, -0.00, -1.00, 1156.4, 65.8)">e</text><text xml:space="preserve" font-family="Libertad-Book,Libertad" font-size="44.0" fill="#FEFFFF" transform="matrix(1.00, 0.00, -0.00, -1.00, 1178.6, 65.8)">x</text><text xml:space="preserve" font-family="Libertad-Book,Libertad" font-size="44.0" fill="#FEFFFF" transform="matrix(1.00, 0.00, -0.00, -1.00, 1200.0, 65.8)">p</text><text xml:space="preserve" font-family="Libertad-Book,Libertad" font-size="44.0" fill="#FEFFFF" transform="matrix(1.00, 0.00, -0.00, -1.00, 1225.0, 65.8)">e</text><text xml:space="preserve" font-family="Libertad-Book,Libertad" font-size="44.0" fill="#FEFFFF" transform="matrix(1.00, 0.00, -0.00, -1.00, 1247.3, 65.8)">r</text><text xml:space="preserve" font-family="Libertad-Book,Libertad" font-size="44.0" fill="#FEFFFF" transform="matrix(1.00, 0.00, -0.00, -1.00, 1262.3, 65.8)">i</text><text xml:space="preserve" font-family="Libertad-Book,Libertad" font-size="44.0" fill="#FEFFFF" transform="matrix(1.00, 0.00, -0.00, -1.00, 1273.0, 65.8)">e</text><text xml:space="preserve" font-family="Libertad-Book,Libertad" font-size="44.0" fill="#FEFFFF" transform="matrix(1.00, 0.00, -0.00, -1.00, 1295.2, 65.8)">n</text><text xml:space="preserve" font-family="Libertad-Book,Libertad" font-size="44.0" fill="#FEFFFF" transform="matrix(1.00, 0.00, -0.00, -1.00, 1319.8, 65.8)">c</text><text xml:space="preserve" font-family="Libertad-Book,Libertad" font-size="44.0" fill="#FEFFFF" transform="matrix(1.00, 0.00, -0.00, -1.00, 1339.8, 65.8)">e</text><text xml:space="preserve" font-family="Libertad-Book,Libertad" font-size="44.0" fill="#FEFFFF" transform="matrix(1.00, 0.00, -0.00, -1.00, 1362.0, 65.8)">-</text><text xml:space="preserve" font-family="Libertad-Book,Libertad" font-size="44.0" fill="#FEFFFF" transform="matrix(1.00, 0.00, -0.00, -1.00, 1381.1, 65.8)">w</text><text xml:space="preserve" font-family="Libertad-Book,Libertad" font-size="44.0" fill="#FEFFFF" transform="matrix(1.00, 0.00, -0.00, -1.00, 1415.6, 65.8)">i</text><text xml:space="preserve" font-family="Libertad-Book,Libertad" font-size="44.0" fill="#FEFFFF" transform="matrix(1.00, 0.00, -0.00, -1.00, 1426.3, 65.8)">t</text><text xml:space="preserve" font-family="Libertad-Book,Libertad" font-size="44.0" fill="#FEFFFF" transform="matrix(1.00, 0.00, -0.00, -1.00, 1442.0, 65.8)">h</text><text xml:space="preserve" font-family="Libertad-Book,Libertad" font-size="44.0" fill="#FEFFFF" transform="matrix(1.00, 0.00, -0.00, -1.00, 1466.7, 65.8)">-</text><text xml:space="preserve" font-family="Libertad-Book,Libertad" font-size="44.0" fill="#FEFFFF" transform="matrix(1.00, 0.00, -0.00, -1.00, 0.6, 2.0)">a</text><text xml:space="preserve" font-family="Libertad-Book,Libertad" font-size="44.0" fill="#FEFFFF" transform="matrix(1.00, 0.00, -0.00, -1.00, 22.1, 2.0)">n</text><text xml:space="preserve" font-family="Libertad-Book,Libertad" font-size="44.0" fill="#FEFFFF" transform="matrix(1.00, 0.00, -0.00, -1.00, 46.7, 2.0)">i</text><text xml:space="preserve" font-family="Libertad-Book,Libertad" font-size="44.0" fill="#FEFFFF" transform="matrix(1.00, 0.00, -0.00, -1.00, 57.4, 2.0)">m</text><text xml:space="preserve" font-family="Libertad-Book,Libertad" font-size="44.0" fill="#FEFFFF" transform="matrix(1.00, 0.00, -0.00, -1.00, 95.4, 2.0)">a</text><text xml:space="preserve" font-family="Libertad-Book,Libertad" font-size="44.0" fill="#FEFFFF" transform="matrix(1.00, 0.00, -0.00, -1.00, 116.8, 2.0)">t</text><text xml:space="preserve" font-family="Libertad-Book,Libertad" font-size="44.0" fill="#FEFFFF" transform="matrix(1.00, 0.00, -0.00, -1.00, 132.5, 2.0)">i</text><text xml:space="preserve" font-family="Libertad-Book,Libertad" font-size="44.0" fill="#FEFFFF" transform="matrix(1.00, 0.00, -0.00, -1.00, 143.3, 2.0)">o</text><text xml:space="preserve" font-family="Libertad-Book,Libertad" font-size="44.0" fill="#FEFFFF" transform="matrix(1.00, 0.00, -0.00, -1.00, 167.7, 2.0)">n</text><text xml:space="preserve" font-family="Libertad-Book,Libertad" font-size="44.0" fill="#FEFFFF" transform="matrix(1.00, 0.00, -0.00, -1.00, 192.3, 2.0)">s</text><text xml:space="preserve" font-family="Libertad-Book,Libertad" font-size="44.0" fill="#FEFFFF" transform="matrix(1.00, 0.00, -0.00, -1.00, 210.2, 2.0)">-</text><text xml:space="preserve" font-family="Libertad-Book,Libertad" font-size="44.0" fill="#FEFFFF" transform="matrix(1.00, 0.00, -0.00, -1.00, 229.3, 2.0)">3</text><text xml:space="preserve" font-family="Libertad-Book,Libertad" font-size="44.0" fill="#FEFFFF" transform="matrix(1.00, 0.00, -0.00, -1.00, 251.6, 2.0)">d</text><text xml:space="preserve" font-family="Libertad-Book,Libertad" font-size="44.0" fill="#FEFFFF" transform="matrix(1.00, 0.00, -0.00, -1.00, 276.6, 2.0)">1</text><text xml:space="preserve" font-family="Libertad-Book,Libertad" font-size="44.0" fill="#FEFFFF" transform="matrix(1.00, 0.00, -0.00, -1.00, 294.2, 2.0)">b</text><text xml:space="preserve" font-family="Libertad-Book,Libertad" font-size="44.0" fill="#FEFFFF" transform="matrix(1.00, 0.00, -0.00, -1.00, 318.9, 2.0)">0</text><text xml:space="preserve" font-family="Libertad-Book,Libertad" font-size="44.0" fill="#FEFFFF" transform="matrix(1.00, 0.00, -0.00, -1.00, 346.5, 2.0)">a</text><text xml:space="preserve" font-family="Libertad-Book,Libertad" font-size="44.0" fill="#FEFFFF" transform="matrix(1.00, 0.00, -0.00, -1.00, 367.9, 2.0)">9</text><text xml:space="preserve" font-family="Libertad-Book,Libertad" font-size="44.0" fill="#FEFFFF" transform="matrix(1.00, 0.00, -0.00, -1.00, 393.0, 2.0)">b</text><text xml:space="preserve" font-family="Libertad-Book,Libertad" font-size="44.0" fill="#FEFFFF" transform="matrix(1.00, 0.00, -0.00, -1.00, 417.7, 2.0)">8</text><text xml:space="preserve" font-family="Libertad-Book,Libertad" font-size="44.0" fill="#FEFFFF" transform="matrix(1.00, 0.00, -0.00, -1.00, 441.3, 2.0)">1</text><text xml:space="preserve" font-family="Libertad-Book,Libertad" font-size="44.0" fill="#FEFFFF" transform="matrix(1.00, 0.00, -0.00, -1.00, 457.6, 2.0)">0</text><text xml:space="preserve" font-family="Libertad-Book,Libertad" font-size="44.0" fill="#FEFFFF" transform="matrix(1.00, 0.00, -0.00, -1.00, 485.2, 2.0)">e</text></g></svg>