<?xml version="1.0" encoding="UTF-8" standalone="no"?><svg xmlns="http://www.w3.org/2000/svg" xmlns:xlink="http://www.w3.org/1999/xlink" clip-rule="evenodd" stroke-miterlimit="10" viewBox="0 0 1648 172"><desc>SVG generated by Keynote</desc><defs></defs><g transform="matrix(1.00, 0.00, -0.00, -1.00, 0.0, 172.0)"><text xml:space="preserve" font-family="Libertad-ExtraBoldItalic,Libertad" font-style="italic" font-weight="bold" font-size="174.0" fill="#FEFFFF" transform="matrix(1.00, 0.00, -0.00, -1.00, -2.4, 35.9)">R</text><text xml:space="preserve" font-family="Libertad-ExtraBoldItalic,Libertad" font-style="italic" font-weight="bold" font-size="174.0" fill="#FEFFFF" transform="matrix(1.00, 0.00, -0.00, -1.00, 93.1, 35.9)">e</text><text xml:space="preserve" font-family="Libertad-ExtraBoldItalic,Libertad" font-style="italic" font-weight="bold" font-size="174.0" fill="#FEFFFF" transform="matrix(1.00, 0.00, -0.00, -1.00, 167.0, 35.9)">f</text><text xml:space="preserve" font-family="Libertad-ExtraBoldItalic,Libertad" font-style="italic" font-weight="bold" font-size="174.0" fill="#FEFFFF" transform="matrix(1.00, 0.00, -0.00, -1.00, 228.4, 35.9)">e</text><text xml:space="preserve" font-family="Libertad-ExtraBoldItalic,Libertad" font-style="italic" font-weight="bold" font-size="174.0" fill="#FEFFFF" transform="matrix(1.00, 0.00, -0.00, -1.00, 302.3, 35.9)">r</text><text xml:space="preserve" font-family="Libertad-ExtraBoldItalic,Libertad" font-style="italic" font-weight="bold" font-size="174.0" fill="#FEFFFF" transform="matrix(1.00, 0.00, -0.00, -1.00, 369.8, 35.9)">ê</text><text xml:space="preserve" font-family="Libertad-ExtraBoldItalic,Libertad" font-style="italic" font-weight="bold" font-size="174.0" fill="#FEFFFF" transform="matrix(1.00, 0.00, -0.00, -1.00, 443.7, 35.9)">n</text><text xml:space="preserve" font-family="Libertad-ExtraBoldItalic,Libertad" font-style="italic" font-weight="bold" font-size="174.0" fill="#FEFFFF" transform="matrix(1.00, 0.00, -0.00, -1.00, 536.6, 35.9)">c</text><text xml:space="preserve" font-family="Libertad-ExtraBoldItalic,Libertad" font-style="italic" font-weight="bold" font-size="174.0" fill="#FEFFFF" transform="matrix(1.00, 0.00, -0.00, -1.00, 604.9, 35.9)">i</text><text xml:space="preserve" font-family="Libertad-ExtraBoldItalic,Libertad" font-style="italic" font-weight="bold" font-size="174.0" fill="#FEFFFF" transform="matrix(1.00, 0.00, -0.00, -1.00, 650.7, 35.9)">a</text><text xml:space="preserve" font-family="Libertad-ExtraBoldItalic,Libertad" font-style="italic" font-weight="bold" font-size="174.0" fill="#FEFFFF" transform="matrix(1.00, 0.00, -0.00, -1.00, 743.3, 35.9)">s</text><text xml:space="preserve" font-family="Libertad-ExtraBoldItalic,Libertad" font-style="italic" font-weight="bold" font-size="174.0" fill="#FEFFFF" transform="matrix(1.00, 0.00, -0.00, -1.00, 808.4, 35.9)"> </text><text xml:space="preserve" font-family="Libertad-ExtraBoldItalic,Libertad" font-style="italic" font-weight="bold" font-size="174.0" fill="#FEFFFF" transform="matrix(1.00, 0.00, -0.00, -1.00, 844.9, 35.9)">e</text><text xml:space="preserve" font-family="Libertad-ExtraBoldItalic,Libertad" font-style="italic" font-weight="bold" font-size="174.0" fill="#FEFFFF" transform="matrix(1.00, 0.00, -0.00, -1.00, 918.8, 35.9)"> </text><text xml:space="preserve" font-family="Libertad-ExtraBoldItalic,Libertad" font-style="italic" font-weight="bold" font-size="174.0" fill="#FEFFFF" transform="matrix(1.00, 0.00, -0.00, -1.00, 955.4, 35.9)">R</text><text xml:space="preserve" font-family="Libertad-ExtraBoldItalic,Libertad" font-style="italic" font-weight="bold" font-size="174.0" fill="#FEFFFF" transform="matrix(1.00, 0.00, -0.00, -1.00, 1050.8, 35.9)">e</text><text xml:space="preserve" font-family="Libertad-ExtraBoldItalic,Libertad" font-style="italic" font-weight="bold" font-size="174.0" fill="#FEFFFF" transform="matrix(1.00, 0.00, -0.00, -1.00, 1125.5, 35.9)">s</text><text xml:space="preserve" font-family="Libertad-ExtraBoldItalic,Libertad" font-style="italic" font-weight="bold" font-size="174.0" fill="#FEFFFF" transform="matrix(1.00, 0.00, -0.00, -1.00, 1192.3, 35.9)">o</text><text xml:space="preserve" font-family="Libertad-ExtraBoldItalic,Libertad" font-style="italic" font-weight="bold" font-size="174.0" fill="#FEFFFF" transform="matrix(1.00, 0.00, -0.00, -1.00, 1275.5, 35.9)">u</text><text xml:space="preserve" font-family="Libertad-ExtraBoldItalic,Libertad" font-style="italic" font-weight="bold" font-size="174.0" fill="#FEFFFF" transform="matrix(1.00, 0.00, -0.00, -1.00, 1370.5, 35.9)">r</text><text xml:space="preserve" font-family="Libertad-ExtraBoldItalic,Libertad" font-style="italic" font-weight="bold" font-size="174.0" fill="#FEFFFF" transform="matrix(1.00, 0.00, -0.00, -1.00, 1438.0, 35.9)">c</text><text xml:space="preserve" font-family="Libertad-ExtraBoldItalic,Libertad" font-style="italic" font-weight="bold" font-size="174.0" fill="#FEFFFF" transform="matrix(1.00, 0.00, -0.00, -1.00, 1506.3, 35.9)">e</text><text xml:space="preserve" font-family="Libertad-ExtraBoldItalic,Libertad" font-style="italic" font-weight="bold" font-size="174.0" fill="#FEFFFF" transform="matrix(1.00, 0.00, -0.00, -1.00, 1581.0, 35.9)">s</text></g></svg>