<?xml version="1.0" encoding="UTF-8" standalone="no"?><svg xmlns="http://www.w3.org/2000/svg" xmlns:xlink="http://www.w3.org/1999/xlink" clip-rule="evenodd" stroke-miterlimit="10" viewBox="0 0 1920 1080"><desc>SVG generated by Keynote</desc><defs></defs><g transform="matrix(1.00, 0.00, -0.00, -1.00, 0.0, 1080.0)"><path d="M 0.0 1080.0 L 1920.0 1080.0 L 1920.0 0.0 L 0.0 0.0 Z M 0.0 1080.0 " fill="#0AABCC"></path><text xml:space="preserve" font-family="Libertad-ExtraBoldItalic,Libertad" font-style="italic" font-weight="bold" font-size="86.0" fill="#FEFFFF" transform="matrix(1.00, 0.00, -0.00, -1.00, 637.4, 760.5)">E</text><text xml:space="preserve" font-family="Libertad-ExtraBoldItalic,Libertad" font-style="italic" font-weight="bold" font-size="86.0" fill="#FEFFFF" transform="matrix(1.00, 0.00, -0.00, -1.00, 679.1, 760.5)">s</text><text xml:space="preserve" font-family="Libertad-ExtraBoldItalic,Libertad" font-style="italic" font-weight="bold" font-size="86.0" fill="#FEFFFF" transform="matrix(1.00, 0.00, -0.00, -1.00, 712.1, 760.5)">t</text><text xml:space="preserve" font-family="Libertad-ExtraBoldItalic,Libertad" font-style="italic" font-weight="bold" font-size="86.0" fill="#FEFFFF" transform="matrix(1.00, 0.00, -0.00, -1.00, 743.5, 760.5)">a</text><text xml:space="preserve" font-family="Libertad-ExtraBoldItalic,Libertad" font-style="italic" font-weight="bold" font-size="86.0" fill="#FEFFFF" transform="matrix(1.00, 0.00, -0.00, -1.00, 789.3, 760.5)"> </text><text xml:space="preserve" font-family="Libertad-ExtraBoldItalic,Libertad" font-style="italic" font-weight="bold" font-size="86.0" fill="#FEFFFF" transform="matrix(1.00, 0.00, -0.00, -1.00, 807.4, 760.5)">a</text><text xml:space="preserve" font-family="Libertad-ExtraBoldItalic,Libertad" font-style="italic" font-weight="bold" font-size="86.0" fill="#FEFFFF" transform="matrix(1.00, 0.00, -0.00, -1.00, 853.2, 760.5)">p</text><text xml:space="preserve" font-family="Libertad-ExtraBoldItalic,Libertad" font-style="italic" font-weight="bold" font-size="86.0" fill="#FEFFFF" transform="matrix(1.00, 0.00, -0.00, -1.00, 899.0, 760.5)">r</text><text xml:space="preserve" font-family="Libertad-ExtraBoldItalic,Libertad" font-style="italic" font-weight="bold" font-size="86.0" fill="#FEFFFF" transform="matrix(1.00, 0.00, -0.00, -1.00, 932.4, 760.5)">e</text><text xml:space="preserve" font-family="Libertad-ExtraBoldItalic,Libertad" font-style="italic" font-weight="bold" font-size="86.0" fill="#FEFFFF" transform="matrix(1.00, 0.00, -0.00, -1.00, 969.3, 760.5)">s</text><text xml:space="preserve" font-family="Libertad-ExtraBoldItalic,Libertad" font-style="italic" font-weight="bold" font-size="86.0" fill="#FEFFFF" transform="matrix(1.00, 0.00, -0.00, -1.00, 1001.5, 760.5)">e</text><text xml:space="preserve" font-family="Libertad-ExtraBoldItalic,Libertad" font-style="italic" font-weight="bold" font-size="86.0" fill="#FEFFFF" transform="matrix(1.00, 0.00, -0.00, -1.00, 1038.0, 760.5)">n</text><text xml:space="preserve" font-family="Libertad-ExtraBoldItalic,Libertad" font-style="italic" font-weight="bold" font-size="86.0" fill="#FEFFFF" transform="matrix(1.00, 0.00, -0.00, -1.00, 1085.2, 760.5)">t</text><text xml:space="preserve" font-family="Libertad-ExtraBoldItalic,Libertad" font-style="italic" font-weight="bold" font-size="86.0" fill="#FEFFFF" transform="matrix(1.00, 0.00, -0.00, -1.00, 1116.6, 760.5)">a</text><text xml:space="preserve" font-family="Libertad-ExtraBoldItalic,Libertad" font-style="italic" font-weight="bold" font-size="86.0" fill="#FEFFFF" transform="matrix(1.00, 0.00, -0.00, -1.00, 1162.4, 760.5)">ç</text><text xml:space="preserve" font-family="Libertad-ExtraBoldItalic,Libertad" font-style="italic" font-weight="bold" font-size="86.0" fill="#FEFFFF" transform="matrix(1.00, 0.00, -0.00, -1.00, 1195.5, 760.5)">ã</text><text xml:space="preserve" font-family="Libertad-ExtraBoldItalic,Libertad" font-style="italic" font-weight="bold" font-size="86.0" fill="#FEFFFF" transform="matrix(1.00, 0.00, -0.00, -1.00, 1241.3, 760.5)">o</text><text xml:space="preserve" font-family="LucidaGrande-Bold,Lucida Grande" font-weight="bold" font-size="86.0" fill="#FEFFFF" transform="matrix(1.00, 0.00, -0.00, -1.00, 1282.6, 760.5)"> </text><text xml:space="preserve" font-family="Libertad-ExtraBoldItalic,Libertad" font-style="italic" font-weight="bold" font-size="250.0" fill="#FEFFFF" transform="matrix(1.00, 0.00, -0.00, -1.00, 637.4, 519.5)">N</text><text xml:space="preserve" font-family="Libertad-ExtraBoldItalic,Libertad" font-style="italic" font-weight="bold" font-size="250.0" fill="#FEFFFF" transform="matrix(1.00, 0.00, -0.00, -1.00, 798.9, 519.5)">Ã</text><text xml:space="preserve" font-family="Libertad-ExtraBoldItalic,Libertad" font-style="italic" font-weight="bold" font-size="250.0" fill="#FEFFFF" transform="matrix(1.00, 0.00, -0.00, -1.00, 948.7, 519.5)">O</text><text xml:space="preserve" font-family="Libertad-ExtraBoldItalic,Libertad" font-style="italic" font-weight="bold" font-size="250.0" fill="#FEFFFF" transform="matrix(1.00, 0.00, -0.00, -1.00, 1108.8, 519.5)"> </text><text xml:space="preserve" font-family="Libertad-ExtraBoldItalic,Libertad" font-style="italic" font-weight="bold" font-size="250.0" fill="#FEFFFF" transform="matrix(1.00, 0.00, -0.00, -1.00, 1161.3, 519.5)">É</text><text xml:space="preserve" font-family="Libertad-ExtraBoldItalic,Libertad" font-style="italic" font-weight="bold" font-size="82.0" fill="#FEFFFF" transform="matrix(1.00, 0.00, -0.00, -1.00, 645.7, 417.8)">u</text><text xml:space="preserve" font-family="Libertad-ExtraBoldItalic,Libertad" font-style="italic" font-weight="bold" font-size="82.0" fill="#FEFFFF" transform="matrix(1.00, 0.00, -0.00, -1.00, 690.4, 417.8)">m</text><text xml:space="preserve" font-family="Libertad-ExtraBoldItalic,Libertad" font-style="italic" font-weight="bold" font-size="82.0" fill="#FEFFFF" transform="matrix(1.00, 0.00, -0.00, -1.00, 758.9, 417.8)"> </text><text xml:space="preserve" font-family="Libertad-ExtraBoldItalic,Libertad" font-style="italic" font-weight="bold" font-size="82.0" fill="#FEFFFF" transform="matrix(1.00, 0.00, -0.00, -1.00, 775.4, 417.8)">t</text><text xml:space="preserve" font-family="Libertad-ExtraBoldItalic,Libertad" font-style="italic" font-weight="bold" font-size="82.0" fill="#FEFFFF" transform="matrix(1.00, 0.00, -0.00, -1.00, 805.3, 417.8)">u</text><text xml:space="preserve" font-family="Libertad-ExtraBoldItalic,Libertad" font-style="italic" font-weight="bold" font-size="82.0" fill="#FEFFFF" transform="matrix(1.00, 0.00, -0.00, -1.00, 850.1, 417.8)">t</text><text xml:space="preserve" font-family="Libertad-ExtraBoldItalic,Libertad" font-style="italic" font-weight="bold" font-size="82.0" fill="#FEFFFF" transform="matrix(1.00, 0.00, -0.00, -1.00, 880.0, 417.8)">o</text><text xml:space="preserve" font-family="Libertad-ExtraBoldItalic,Libertad" font-style="italic" font-weight="bold" font-size="82.0" fill="#FEFFFF" transform="matrix(1.00, 0.00, -0.00, -1.00, 919.2, 417.8)">r</text><text xml:space="preserve" font-family="Libertad-ExtraBoldItalic,Libertad" font-style="italic" font-weight="bold" font-size="82.0" fill="#FEFFFF" transform="matrix(1.00, 0.00, -0.00, -1.00, 951.8, 417.8)">i</text><text xml:space="preserve" font-family="Libertad-ExtraBoldItalic,Libertad" font-style="italic" font-weight="bold" font-size="82.0" fill="#FEFFFF" transform="matrix(1.00, 0.00, -0.00, -1.00, 973.4, 417.8)">a</text><text xml:space="preserve" font-family="Libertad-ExtraBoldItalic,Libertad" font-style="italic" font-weight="bold" font-size="82.0" fill="#FEFFFF" transform="matrix(1.00, 0.00, -0.00, -1.00, 1017.1, 417.8)">l</text><text xml:space="preserve" font-family="Libertad-ExtraBoldItalic,Libertad" font-style="italic" font-weight="bold" font-size="82.0" fill="#FEFFFF" transform="matrix(1.00, 0.00, -0.00, -1.00, 1038.7, 417.8)"> </text><text xml:space="preserve" font-family="Libertad-ExtraBoldItalic,Libertad" font-style="italic" font-weight="bold" font-size="82.0" fill="#FEFFFF" transform="matrix(1.00, 0.00, -0.00, -1.00, 1055.9, 417.8)">d</text><text xml:space="preserve" font-family="Libertad-ExtraBoldItalic,Libertad" font-style="italic" font-weight="bold" font-size="82.0" fill="#FEFFFF" transform="matrix(1.00, 0.00, -0.00, -1.00, 1099.6, 417.8)">e</text><text xml:space="preserve" font-family="Libertad-ExtraBoldItalic,Libertad" font-style="italic" font-weight="bold" font-size="82.0" fill="#FEFFFF" transform="matrix(1.00, 0.00, -0.00, -1.00, 1134.4, 417.8)"> </text><text xml:space="preserve" font-family="Libertad-ExtraBoldItalic,Libertad" font-style="italic" font-weight="bold" font-size="82.0" fill="#FEFFFF" transform="matrix(1.00, 0.00, -0.00, -1.00, 1151.6, 417.8)">C</text><text xml:space="preserve" font-family="Libertad-ExtraBoldItalic,Libertad" font-style="italic" font-weight="bold" font-size="82.0" fill="#FEFFFF" transform="matrix(1.00, 0.00, -0.00, -1.00, 1194.1, 417.8)">S</text><text xml:space="preserve" font-family="Libertad-ExtraBoldItalic,Libertad" font-style="italic" font-weight="bold" font-size="82.0" fill="#FEFFFF" transform="matrix(1.00, 0.00, -0.00, -1.00, 1234.2, 417.8)">S</text><text xml:space="preserve" font-family="Libertad-Book,Libertad" font-size="167.5" fill="#FEFFFF" transform="matrix(1.00, 0.00, -0.00, -1.00, 914.7, 225.5)">:</text><text xml:space="preserve" font-family="Libertad-Book,Libertad" font-size="167.5" fill="#FEFFFF" transform="matrix(1.00, 0.00, -0.00, -1.00, 949.9, 225.5)">)</text></g></svg>