<?xml version="1.0" encoding="UTF-8" standalone="no"?><svg xmlns="http://www.w3.org/2000/svg" xmlns:xlink="http://www.w3.org/1999/xlink" clip-rule="evenodd" stroke-miterlimit="10" viewBox="0 0 378 28"><desc>SVG generated by Keynote</desc><defs></defs><g transform="matrix(1.00, 0.00, -0.00, -1.00, 0.0, 28.0)"><text xml:space="preserve" font-family="Libertad-Book,Libertad" font-size="24.0" fill="#FEFFFF" transform="matrix(1.00, 0.00, -0.00, -1.00, 0.6, 7.5)">S</text><text xml:space="preserve" font-family="Libertad-Book,Libertad" font-size="24.0" fill="#FEFFFF" transform="matrix(1.00, 0.00, -0.00, -1.00, 12.4, 7.5)">e</text><text xml:space="preserve" font-family="Libertad-Book,Libertad" font-size="24.0" fill="#FEFFFF" transform="matrix(1.00, 0.00, -0.00, -1.00, 24.5, 7.5)">m</text><text xml:space="preserve" font-family="Libertad-Book,Libertad" font-size="24.0" fill="#FEFFFF" transform="matrix(1.00, 0.00, -0.00, -1.00, 45.2, 7.5)"> </text><text xml:space="preserve" font-family="Libertad-Book,Libertad" font-size="24.0" fill="#FEFFFF" transform="matrix(1.00, 0.00, -0.00, -1.00, 50.5, 7.5)"> </text><text xml:space="preserve" font-family="Libertad-Book,Libertad" font-size="24.0" fill="#FEFFFF" transform="matrix(1.00, 0.00, -0.00, -1.00, 55.6, 7.5)">a</text><text xml:space="preserve" font-family="Libertad-Book,Libertad" font-size="24.0" fill="#FEFFFF" transform="matrix(1.00, 0.00, -0.00, -1.00, 67.2, 7.5)">n</text><text xml:space="preserve" font-family="Libertad-Book,Libertad" font-size="24.0" fill="#FEFFFF" transform="matrix(1.00, 0.00, -0.00, -1.00, 80.7, 7.5)">i</text><text xml:space="preserve" font-family="Libertad-Book,Libertad" font-size="24.0" fill="#FEFFFF" transform="matrix(1.00, 0.00, -0.00, -1.00, 86.5, 7.5)">m</text><text xml:space="preserve" font-family="Libertad-Book,Libertad" font-size="24.0" fill="#FEFFFF" transform="matrix(1.00, 0.00, -0.00, -1.00, 107.2, 7.5)">a</text><text xml:space="preserve" font-family="Libertad-Book,Libertad" font-size="24.0" fill="#FEFFFF" transform="matrix(1.00, 0.00, -0.00, -1.00, 118.9, 7.5)">รง</text><text xml:space="preserve" font-family="Libertad-Book,Libertad" font-size="24.0" fill="#FEFFFF" transform="matrix(1.00, 0.00, -0.00, -1.00, 130.2, 7.5)">รฃ</text><text xml:space="preserve" font-family="Libertad-Book,Libertad" font-size="24.0" fill="#FEFFFF" transform="matrix(1.00, 0.00, -0.00, -1.00, 141.9, 7.5)">o</text><text xml:space="preserve" font-family="Libertad-Book,Libertad" font-size="24.0" fill="#FEFFFF" transform="matrix(1.00, 0.00, -0.00, -1.00, 155.2, 7.5)">:</text><text xml:space="preserve" font-family="Libertad-Book,Libertad" font-size="24.0" fill="#FEFFFF" transform="matrix(1.00, 0.00, -0.00, -1.00, 160.2, 7.5)"> </text><text xml:space="preserve" font-family="Libertad-Book,Libertad" font-size="24.0" fill="#FEFFFF" transform="matrix(1.00, 0.00, -0.00, -1.00, 165.5, 7.5)">h</text><text xml:space="preserve" font-family="Libertad-Book,Libertad" font-size="24.0" fill="#FEFFFF" transform="matrix(1.00, 0.00, -0.00, -1.00, 178.9, 7.5)">t</text><text xml:space="preserve" font-family="Libertad-Book,Libertad" font-size="24.0" fill="#FEFFFF" transform="matrix(1.00, 0.00, -0.00, -1.00, 187.7, 7.5)">t</text><text xml:space="preserve" font-family="Libertad-Book,Libertad" font-size="24.0" fill="#FEFFFF" transform="matrix(1.00, 0.00, -0.00, -1.00, 196.3, 7.5)">p</text><text xml:space="preserve" font-family="Libertad-Book,Libertad" font-size="24.0" fill="#FEFFFF" transform="matrix(1.00, 0.00, -0.00, -1.00, 210.0, 7.5)">:</text><text xml:space="preserve" font-family="Libertad-Book,Libertad" font-size="24.0" fill="#FEFFFF" transform="matrix(1.00, 0.00, -0.00, -1.00, 215.0, 7.5)">/</text><text xml:space="preserve" font-family="Libertad-Book,Libertad" font-size="24.0" fill="#FEFFFF" transform="matrix(1.00, 0.00, -0.00, -1.00, 222.4, 7.5)">/</text><text xml:space="preserve" font-family="Libertad-Book,Libertad" font-size="24.0" fill="#FEFFFF" transform="matrix(1.00, 0.00, -0.00, -1.00, 232.1, 7.5)">b</text><text xml:space="preserve" font-family="Libertad-Book,Libertad" font-size="24.0" fill="#FEFFFF" transform="matrix(1.00, 0.00, -0.00, -1.00, 245.6, 7.5)">i</text><text xml:space="preserve" font-family="Libertad-Book,Libertad" font-size="24.0" fill="#FEFFFF" transform="matrix(1.00, 0.00, -0.00, -1.00, 251.4, 7.5)">t</text><text xml:space="preserve" font-family="Libertad-Book,Libertad" font-size="24.0" fill="#FEFFFF" transform="matrix(1.00, 0.00, -0.00, -1.00, 260.3, 7.5)">.</text><text xml:space="preserve" font-family="Libertad-Book,Libertad" font-size="24.0" fill="#FEFFFF" transform="matrix(1.00, 0.00, -0.00, -1.00, 265.3, 7.5)">l</text><text xml:space="preserve" font-family="Libertad-Book,Libertad" font-size="24.0" fill="#FEFFFF" transform="matrix(1.00, 0.00, -0.00, -1.00, 271.1, 7.5)">y</text><text xml:space="preserve" font-family="Libertad-Book,Libertad" font-size="24.0" fill="#FEFFFF" transform="matrix(1.00, 0.00, -0.00, -1.00, 282.2, 7.5)">/</text><text xml:space="preserve" font-family="Libertad-Book,Libertad" font-size="24.0" fill="#FEFFFF" transform="matrix(1.00, 0.00, -0.00, -1.00, 291.9, 7.5)">1</text><text xml:space="preserve" font-family="Libertad-Book,Libertad" font-size="24.0" fill="#FEFFFF" transform="matrix(1.00, 0.00, -0.00, -1.00, 301.5, 7.5)">E</text><text xml:space="preserve" font-family="Libertad-Book,Libertad" font-size="24.0" fill="#FEFFFF" transform="matrix(1.00, 0.00, -0.00, -1.00, 313.8, 7.5)">2</text><text xml:space="preserve" font-family="Libertad-Book,Libertad" font-size="24.0" fill="#FEFFFF" transform="matrix(1.00, 0.00, -0.00, -1.00, 325.9, 7.5)">e</text><text xml:space="preserve" font-family="Libertad-Book,Libertad" font-size="24.0" fill="#FEFFFF" transform="matrix(1.00, 0.00, -0.00, -1.00, 338.1, 7.5)">7</text><text xml:space="preserve" font-family="Libertad-Book,Libertad" font-size="24.0" fill="#FEFFFF" transform="matrix(1.00, 0.00, -0.00, -1.00, 350.2, 7.5)">K</text><text xml:space="preserve" font-family="Libertad-Book,Libertad" font-size="24.0" fill="#FEFFFF" transform="matrix(1.00, 0.00, -0.00, -1.00, 364.1, 7.5)">b</text><g><clipPath id="clip0x7fee2361d230"><path d="M 164.5 3.4 L 377.6 3.4 L 377.6 6.9 L 164.5 6.9 Z M 164.5 3.4 "></path></clipPath><g clip-path="url(#clip0x7fee2361d230)"><path d="M 449.9 23.3 L 662.0 23.3 " fill="none" stroke="#FEFFFF" stroke-width="1.56" transform="matrix(1.00, 0.00, 0.00, -1.00, -284.4, 28.5)"></path></g></g></g></svg>