<?xml version="1.0" encoding="UTF-8" standalone="no"?><svg xmlns="http://www.w3.org/2000/svg" xmlns:xlink="http://www.w3.org/1999/xlink" clip-rule="evenodd" stroke-miterlimit="10" viewBox="0 0 698 41"><desc>SVG generated by Keynote</desc><defs></defs><g transform="matrix(1.00, 0.00, -0.00, -1.00, 0.0, 41.0)"><text xml:space="preserve" font-family="Libertad-Book,Libertad" font-size="36.0" fill="#000000" transform="matrix(1.00, 0.00, -0.00, -1.00, 2.3, 11.4)"> </text><text xml:space="preserve" font-family="Libertad-Book,Libertad" font-size="36.0" fill="#000000" transform="matrix(1.00, 0.00, -0.00, -1.00, 10.3, 11.4)">E</text><text xml:space="preserve" font-family="Libertad-Book,Libertad" font-size="36.0" fill="#000000" transform="matrix(1.00, 0.00, -0.00, -1.00, 28.6, 11.4)">x</text><text xml:space="preserve" font-family="Libertad-Book,Libertad" font-size="36.0" fill="#000000" transform="matrix(1.00, 0.00, -0.00, -1.00, 46.1, 11.4)">e</text><text xml:space="preserve" font-family="Libertad-Book,Libertad" font-size="36.0" fill="#000000" transform="matrix(1.00, 0.00, -0.00, -1.00, 64.3, 11.4)">m</text><text xml:space="preserve" font-family="Libertad-Book,Libertad" font-size="36.0" fill="#000000" transform="matrix(1.00, 0.00, -0.00, -1.00, 95.4, 11.4)">p</text><text xml:space="preserve" font-family="Libertad-Book,Libertad" font-size="36.0" fill="#000000" transform="matrix(1.00, 0.00, -0.00, -1.00, 115.9, 11.4)">l</text><text xml:space="preserve" font-family="Libertad-Book,Libertad" font-size="36.0" fill="#000000" transform="matrix(1.00, 0.00, -0.00, -1.00, 124.6, 11.4)">o</text><text xml:space="preserve" font-family="Libertad-Book,Libertad" font-size="36.0" fill="#000000" transform="matrix(1.00, 0.00, -0.00, -1.00, 144.6, 11.4)"> </text><text xml:space="preserve" font-family="Libertad-Book,Libertad" font-size="36.0" fill="#000000" transform="matrix(1.00, 0.00, -0.00, -1.00, 151.9, 11.4)">s</text><text xml:space="preserve" font-family="Libertad-Book,Libertad" font-size="36.0" fill="#000000" transform="matrix(1.00, 0.00, -0.00, -1.00, 166.8, 11.4)">e</text><text xml:space="preserve" font-family="Libertad-Book,Libertad" font-size="36.0" fill="#000000" transform="matrix(1.00, 0.00, -0.00, -1.00, 185.0, 11.4)">m</text><text xml:space="preserve" font-family="Libertad-Book,Libertad" font-size="36.0" fill="#000000" transform="matrix(1.00, 0.00, -0.00, -1.00, 216.1, 11.4)"> </text><text xml:space="preserve" font-family="Libertad-Book,Libertad" font-size="36.0" fill="#000000" transform="matrix(1.00, 0.00, -0.00, -1.00, 223.7, 11.4)">a</text><text xml:space="preserve" font-family="Libertad-Book,Libertad" font-size="36.0" fill="#000000" transform="matrix(1.00, 0.00, -0.00, -1.00, 241.2, 11.4)">n</text><text xml:space="preserve" font-family="Libertad-Book,Libertad" font-size="36.0" fill="#000000" transform="matrix(1.00, 0.00, -0.00, -1.00, 261.4, 11.4)">i</text><text xml:space="preserve" font-family="Libertad-Book,Libertad" font-size="36.0" fill="#000000" transform="matrix(1.00, 0.00, -0.00, -1.00, 270.1, 11.4)">m</text><text xml:space="preserve" font-family="Libertad-Book,Libertad" font-size="36.0" fill="#000000" transform="matrix(1.00, 0.00, -0.00, -1.00, 301.2, 11.4)">a</text><text xml:space="preserve" font-family="Libertad-Book,Libertad" font-size="36.0" fill="#000000" transform="matrix(1.00, 0.00, -0.00, -1.00, 318.7, 11.4)">รง</text><text xml:space="preserve" font-family="Libertad-Book,Libertad" font-size="36.0" fill="#000000" transform="matrix(1.00, 0.00, -0.00, -1.00, 335.6, 11.4)">รฃ</text><text xml:space="preserve" font-family="Libertad-Book,Libertad" font-size="36.0" fill="#000000" transform="matrix(1.00, 0.00, -0.00, -1.00, 353.1, 11.4)">o</text><text xml:space="preserve" font-family="Libertad-Book,Libertad" font-size="36.0" fill="#000000" transform="matrix(1.00, 0.00, -0.00, -1.00, 373.1, 11.4)">:</text><text xml:space="preserve" font-family="Libertad-Book,Libertad" font-size="36.0" fill="#000000" transform="matrix(1.00, 0.00, -0.00, -1.00, 380.7, 11.4)"> </text><text xml:space="preserve" font-family="Libertad-Book,Libertad" font-size="36.0" fill="#000000" transform="matrix(1.00, 0.00, -0.00, -1.00, 388.6, 11.4)"> </text><text xml:space="preserve" font-family="Libertad-Book,Libertad" font-size="36.0" fill="#000000" transform="matrix(1.00, 0.00, -0.00, -1.00, 396.5, 11.4)">h</text><text xml:space="preserve" font-family="Libertad-Book,Libertad" font-size="36.0" fill="#000000" transform="matrix(1.00, 0.00, -0.00, -1.00, 416.7, 11.4)">t</text><text xml:space="preserve" font-family="Libertad-Book,Libertad" font-size="36.0" fill="#000000" transform="matrix(1.00, 0.00, -0.00, -1.00, 429.9, 11.4)">t</text><text xml:space="preserve" font-family="Libertad-Book,Libertad" font-size="36.0" fill="#000000" transform="matrix(1.00, 0.00, -0.00, -1.00, 442.8, 11.4)">p</text><text xml:space="preserve" font-family="Libertad-Book,Libertad" font-size="36.0" fill="#000000" transform="matrix(1.00, 0.00, -0.00, -1.00, 463.3, 11.4)">:</text><text xml:space="preserve" font-family="Libertad-Book,Libertad" font-size="36.0" fill="#000000" transform="matrix(1.00, 0.00, -0.00, -1.00, 470.8, 11.4)">/</text><text xml:space="preserve" font-family="Libertad-Book,Libertad" font-size="36.0" fill="#000000" transform="matrix(1.00, 0.00, -0.00, -1.00, 481.9, 11.4)">/</text><text xml:space="preserve" font-family="Libertad-Book,Libertad" font-size="36.0" fill="#000000" transform="matrix(1.00, 0.00, -0.00, -1.00, 496.5, 11.4)">b</text><text xml:space="preserve" font-family="Libertad-Book,Libertad" font-size="36.0" fill="#000000" transform="matrix(1.00, 0.00, -0.00, -1.00, 516.7, 11.4)">i</text><text xml:space="preserve" font-family="Libertad-Book,Libertad" font-size="36.0" fill="#000000" transform="matrix(1.00, 0.00, -0.00, -1.00, 525.5, 11.4)">t</text><text xml:space="preserve" font-family="Libertad-Book,Libertad" font-size="36.0" fill="#000000" transform="matrix(1.00, 0.00, -0.00, -1.00, 538.7, 11.4)">.</text><text xml:space="preserve" font-family="Libertad-Book,Libertad" font-size="36.0" fill="#000000" transform="matrix(1.00, 0.00, -0.00, -1.00, 546.3, 11.4)">l</text><text xml:space="preserve" font-family="Libertad-Book,Libertad" font-size="36.0" fill="#000000" transform="matrix(1.00, 0.00, -0.00, -1.00, 555.0, 11.4)">y</text><text xml:space="preserve" font-family="Libertad-Book,Libertad" font-size="36.0" fill="#000000" transform="matrix(1.00, 0.00, -0.00, -1.00, 571.6, 11.4)">/</text><text xml:space="preserve" font-family="Libertad-Book,Libertad" font-size="36.0" fill="#000000" transform="matrix(1.00, 0.00, -0.00, -1.00, 586.2, 11.4)">1</text><text xml:space="preserve" font-family="Libertad-Book,Libertad" font-size="36.0" fill="#000000" transform="matrix(1.00, 0.00, -0.00, -1.00, 600.6, 11.4)">Q</text><text xml:space="preserve" font-family="Libertad-Book,Libertad" font-size="36.0" fill="#000000" transform="matrix(1.00, 0.00, -0.00, -1.00, 625.3, 11.4)">l</text><text xml:space="preserve" font-family="Libertad-Book,Libertad" font-size="36.0" fill="#000000" transform="matrix(1.00, 0.00, -0.00, -1.00, 634.0, 11.4)">1</text><text xml:space="preserve" font-family="Libertad-Book,Libertad" font-size="36.0" fill="#000000" transform="matrix(1.00, 0.00, -0.00, -1.00, 647.7, 11.4)">4</text><text xml:space="preserve" font-family="Libertad-Book,Libertad" font-size="36.0" fill="#000000" transform="matrix(1.00, 0.00, -0.00, -1.00, 667.9, 11.4)">s</text><text xml:space="preserve" font-family="Libertad-Book,Libertad" font-size="36.0" fill="#000000" transform="matrix(1.00, 0.00, -0.00, -1.00, 683.3, 11.4)">s</text><g><clipPath id="clip0x6080012bcf20"><path d="M 395.5 5.7 L 697.9 5.7 L 697.9 10.1 L 395.5 10.1 Z M 395.5 5.7 "></path></clipPath><g clip-path="url(#clip0x6080012bcf20)"><path d="M 477.6 34.0 L 779.0 34.0 " fill="none" stroke="#000000" stroke-width="2.34" transform="matrix(1.00, 0.00, 0.00, -1.00, -81.0, 41.9)"></path></g></g></g></svg>