<?xml version="1.0" encoding="UTF-8" standalone="no"?><svg xmlns="http://www.w3.org/2000/svg" xmlns:xlink="http://www.w3.org/1999/xlink" clip-rule="evenodd" stroke-miterlimit="10" viewBox="0 0 681 67"><desc>SVG generated by Keynote</desc><defs></defs><g transform="matrix(1.00, 0.00, -0.00, -1.00, 0.0, 67.0)"><text xml:space="preserve" font-family="Libertad-Book,Libertad" font-size="64.0" fill="#FEFFFF" transform="matrix(1.00, 0.00, -0.00, -1.00, -2.9, 14.7)">l</text><text xml:space="preserve" font-family="Libertad-Book,Libertad" font-size="64.0" fill="#FEFFFF" transform="matrix(1.00, 0.00, -0.00, -1.00, 12.7, 14.7)">a</text><text xml:space="preserve" font-family="Libertad-Book,Libertad" font-size="64.0" fill="#FEFFFF" transform="matrix(1.00, 0.00, -0.00, -1.00, 43.8, 14.7)">b</text><text xml:space="preserve" font-family="Libertad-Book,Libertad" font-size="64.0" fill="#FEFFFF" transform="matrix(1.00, 0.00, -0.00, -1.00, 79.8, 14.7)">.</text><text xml:space="preserve" font-family="Libertad-Book,Libertad" font-size="64.0" fill="#FEFFFF" transform="matrix(1.00, 0.00, -0.00, -1.00, 88.5, 14.7)">v</text><text xml:space="preserve" font-family="Libertad-Book,Libertad" font-size="64.0" fill="#FEFFFF" transform="matrix(1.00, 0.00, -0.00, -1.00, 120.7, 14.7)">t</text><text xml:space="preserve" font-family="Libertad-Book,Libertad" font-size="64.0" fill="#FEFFFF" transform="matrix(1.00, 0.00, -0.00, -1.00, 143.5, 14.7)">e</text><text xml:space="preserve" font-family="Libertad-Book,Libertad" font-size="64.0" fill="#FEFFFF" transform="matrix(1.00, 0.00, -0.00, -1.00, 175.8, 14.7)">x</text><text xml:space="preserve" font-family="Libertad-Book,Libertad" font-size="64.0" fill="#FEFFFF" transform="matrix(1.00, 0.00, -0.00, -1.00, 207.0, 14.7)">.</text><text xml:space="preserve" font-family="Libertad-Book,Libertad" font-size="64.0" fill="#FEFFFF" transform="matrix(1.00, 0.00, -0.00, -1.00, 220.4, 14.7)">c</text><text xml:space="preserve" font-family="Libertad-Book,Libertad" font-size="64.0" fill="#FEFFFF" transform="matrix(1.00, 0.00, -0.00, -1.00, 249.5, 14.7)">o</text><text xml:space="preserve" font-family="Libertad-Book,Libertad" font-size="64.0" fill="#FEFFFF" transform="matrix(1.00, 0.00, -0.00, -1.00, 285.0, 14.7)">m</text><text xml:space="preserve" font-family="Libertad-Book,Libertad" font-size="64.0" fill="#FEFFFF" transform="matrix(1.00, 0.00, -0.00, -1.00, 340.3, 14.7)">/</text><text xml:space="preserve" font-family="Libertad-Book,Libertad" font-size="64.0" fill="#FEFFFF" transform="matrix(1.00, 0.00, -0.00, -1.00, 363.1, 14.7)">c</text><text xml:space="preserve" font-family="Libertad-Book,Libertad" font-size="64.0" fill="#FEFFFF" transform="matrix(1.00, 0.00, -0.00, -1.00, 392.2, 14.7)">o</text><text xml:space="preserve" font-family="Libertad-Book,Libertad" font-size="64.0" fill="#FEFFFF" transform="matrix(1.00, 0.00, -0.00, -1.00, 427.7, 14.7)">m</text><text xml:space="preserve" font-family="Libertad-Book,Libertad" font-size="64.0" fill="#FEFFFF" transform="matrix(1.00, 0.00, -0.00, -1.00, 483.0, 14.7)">m</text><text xml:space="preserve" font-family="Libertad-Book,Libertad" font-size="64.0" fill="#FEFFFF" transform="matrix(1.00, 0.00, -0.00, -1.00, 538.3, 14.7)">u</text><text xml:space="preserve" font-family="Libertad-Book,Libertad" font-size="64.0" fill="#FEFFFF" transform="matrix(1.00, 0.00, -0.00, -1.00, 573.5, 14.7)">n</text><text xml:space="preserve" font-family="Libertad-Book,Libertad" font-size="64.0" fill="#FEFFFF" transform="matrix(1.00, 0.00, -0.00, -1.00, 609.3, 14.7)">i</text><text xml:space="preserve" font-family="Libertad-Book,Libertad" font-size="64.0" fill="#FEFFFF" transform="matrix(1.00, 0.00, -0.00, -1.00, 624.9, 14.7)">t</text><text xml:space="preserve" font-family="Libertad-Book,Libertad" font-size="64.0" fill="#FEFFFF" transform="matrix(1.00, 0.00, -0.00, -1.00, 648.4, 14.7)">y</text></g></svg>