<?xml version="1.0" encoding="UTF-8" standalone="no"?><svg xmlns="http://www.w3.org/2000/svg" xmlns:xlink="http://www.w3.org/1999/xlink" clip-rule="evenodd" stroke-miterlimit="10" viewBox="0 0 1920 1080"><desc>SVG generated by Keynote</desc><defs></defs><g transform="matrix(1.00, 0.00, -0.00, -1.00, 0.0, 1080.0)"><path d="M 0.0 1080.0 L 1920.0 1080.0 L 1920.0 0.0 L 0.0 0.0 Z M 0.0 1080.0 " fill="#43ABCB"></path><text xml:space="preserve" font-family="Libertad-ExtraBoldItalic,Libertad" font-style="italic" font-weight="bold" font-size="174.0" fill="#FEFFFF" transform="matrix(1.00, 0.00, -0.00, -1.00, 633.4, 552.1)">D</text><text xml:space="preserve" font-family="Libertad-ExtraBoldItalic,Libertad" font-style="italic" font-weight="bold" font-size="174.0" fill="#FEFFFF" transform="matrix(1.00, 0.00, -0.00, -1.00, 742.0, 552.1)">ú</text><text xml:space="preserve" font-family="Libertad-ExtraBoldItalic,Libertad" font-style="italic" font-weight="bold" font-size="174.0" fill="#FEFFFF" transform="matrix(1.00, 0.00, -0.00, -1.00, 836.9, 552.1)">v</text><text xml:space="preserve" font-family="Libertad-ExtraBoldItalic,Libertad" font-style="italic" font-weight="bold" font-size="174.0" fill="#FEFFFF" transform="matrix(1.00, 0.00, -0.00, -1.00, 915.0, 552.1)">i</text><text xml:space="preserve" font-family="Libertad-ExtraBoldItalic,Libertad" font-style="italic" font-weight="bold" font-size="174.0" fill="#FEFFFF" transform="matrix(1.00, 0.00, -0.00, -1.00, 960.8, 552.1)">d</text><text xml:space="preserve" font-family="Libertad-ExtraBoldItalic,Libertad" font-style="italic" font-weight="bold" font-size="174.0" fill="#FEFFFF" transform="matrix(1.00, 0.00, -0.00, -1.00, 1053.4, 552.1)">a</text><text xml:space="preserve" font-family="Libertad-ExtraBoldItalic,Libertad" font-style="italic" font-weight="bold" font-size="174.0" fill="#FEFFFF" transform="matrix(1.00, 0.00, -0.00, -1.00, 1146.1, 552.1)">s</text><text xml:space="preserve" font-family="Libertad-ExtraBoldItalic,Libertad" font-style="italic" font-weight="bold" font-size="174.0" fill="#FEFFFF" transform="matrix(1.00, 0.00, -0.00, -1.00, 1211.2, 552.1)">?</text><text xml:space="preserve" font-family="Libertad-Book,Libertad" font-size="64.0" fill="#FEFFFF" transform="matrix(1.00, 0.00, -0.00, -1.00, 623.1, 411.7)">l</text><text xml:space="preserve" font-family="Libertad-Book,Libertad" font-size="64.0" fill="#FEFFFF" transform="matrix(1.00, 0.00, -0.00, -1.00, 638.7, 411.7)">a</text><text xml:space="preserve" font-family="Libertad-Book,Libertad" font-size="64.0" fill="#FEFFFF" transform="matrix(1.00, 0.00, -0.00, -1.00, 669.8, 411.7)">b</text><text xml:space="preserve" font-family="Libertad-Book,Libertad" font-size="64.0" fill="#FEFFFF" transform="matrix(1.00, 0.00, -0.00, -1.00, 705.8, 411.7)">.</text><text xml:space="preserve" font-family="Libertad-Book,Libertad" font-size="64.0" fill="#FEFFFF" transform="matrix(1.00, 0.00, -0.00, -1.00, 714.5, 411.7)">v</text><text xml:space="preserve" font-family="Libertad-Book,Libertad" font-size="64.0" fill="#FEFFFF" transform="matrix(1.00, 0.00, -0.00, -1.00, 746.7, 411.7)">t</text><text xml:space="preserve" font-family="Libertad-Book,Libertad" font-size="64.0" fill="#FEFFFF" transform="matrix(1.00, 0.00, -0.00, -1.00, 769.5, 411.7)">e</text><text xml:space="preserve" font-family="Libertad-Book,Libertad" font-size="64.0" fill="#FEFFFF" transform="matrix(1.00, 0.00, -0.00, -1.00, 801.8, 411.7)">x</text><text xml:space="preserve" font-family="Libertad-Book,Libertad" font-size="64.0" fill="#FEFFFF" transform="matrix(1.00, 0.00, -0.00, -1.00, 833.0, 411.7)">.</text><text xml:space="preserve" font-family="Libertad-Book,Libertad" font-size="64.0" fill="#FEFFFF" transform="matrix(1.00, 0.00, -0.00, -1.00, 846.4, 411.7)">c</text><text xml:space="preserve" font-family="Libertad-Book,Libertad" font-size="64.0" fill="#FEFFFF" transform="matrix(1.00, 0.00, -0.00, -1.00, 875.5, 411.7)">o</text><text xml:space="preserve" font-family="Libertad-Book,Libertad" font-size="64.0" fill="#FEFFFF" transform="matrix(1.00, 0.00, -0.00, -1.00, 911.0, 411.7)">m</text><text xml:space="preserve" font-family="Libertad-Book,Libertad" font-size="64.0" fill="#FEFFFF" transform="matrix(1.00, 0.00, -0.00, -1.00, 966.3, 411.7)">/</text><text xml:space="preserve" font-family="Libertad-Book,Libertad" font-size="64.0" fill="#FEFFFF" transform="matrix(1.00, 0.00, -0.00, -1.00, 989.1, 411.7)">c</text><text xml:space="preserve" font-family="Libertad-Book,Libertad" font-size="64.0" fill="#FEFFFF" transform="matrix(1.00, 0.00, -0.00, -1.00, 1018.2, 411.7)">o</text><text xml:space="preserve" font-family="Libertad-Book,Libertad" font-size="64.0" fill="#FEFFFF" transform="matrix(1.00, 0.00, -0.00, -1.00, 1053.7, 411.7)">m</text><text xml:space="preserve" font-family="Libertad-Book,Libertad" font-size="64.0" fill="#FEFFFF" transform="matrix(1.00, 0.00, -0.00, -1.00, 1109.0, 411.7)">m</text><text xml:space="preserve" font-family="Libertad-Book,Libertad" font-size="64.0" fill="#FEFFFF" transform="matrix(1.00, 0.00, -0.00, -1.00, 1164.3, 411.7)">u</text><text xml:space="preserve" font-family="Libertad-Book,Libertad" font-size="64.0" fill="#FEFFFF" transform="matrix(1.00, 0.00, -0.00, -1.00, 1199.5, 411.7)">n</text><text xml:space="preserve" font-family="Libertad-Book,Libertad" font-size="64.0" fill="#FEFFFF" transform="matrix(1.00, 0.00, -0.00, -1.00, 1235.3, 411.7)">i</text><text xml:space="preserve" font-family="Libertad-Book,Libertad" font-size="64.0" fill="#FEFFFF" transform="matrix(1.00, 0.00, -0.00, -1.00, 1250.9, 411.7)">t</text><text xml:space="preserve" font-family="Libertad-Book,Libertad" font-size="64.0" fill="#FEFFFF" transform="matrix(1.00, 0.00, -0.00, -1.00, 1274.4, 411.7)">y</text></g></svg>