<?xml version="1.0" encoding="UTF-8" standalone="no"?><svg xmlns="http://www.w3.org/2000/svg" xmlns:xlink="http://www.w3.org/1999/xlink" clip-rule="evenodd" stroke-miterlimit="10" viewBox="0 0 259 34"><desc>SVG generated by Keynote</desc><defs></defs><g transform="matrix(1.00, 0.00, -0.00, -1.00, 0.0, 34.0)"><text xml:space="preserve" font-family="Libertad-Book,Libertad" font-size="30.0" fill="#FEFFFF" transform="matrix(1.00, 0.00, -0.00, -1.00, 0.4, 9.3)">h</text><text xml:space="preserve" font-family="Libertad-Book,Libertad" font-size="30.0" fill="#FEFFFF" transform="matrix(1.00, 0.00, -0.00, -1.00, 17.3, 9.3)">t</text><text xml:space="preserve" font-family="Libertad-Book,Libertad" font-size="30.0" fill="#FEFFFF" transform="matrix(1.00, 0.00, -0.00, -1.00, 28.3, 9.3)">t</text><text xml:space="preserve" font-family="Libertad-Book,Libertad" font-size="30.0" fill="#FEFFFF" transform="matrix(1.00, 0.00, -0.00, -1.00, 39.0, 9.3)">p</text><text xml:space="preserve" font-family="Libertad-Book,Libertad" font-size="30.0" fill="#FEFFFF" transform="matrix(1.00, 0.00, -0.00, -1.00, 56.1, 9.3)">:</text><text xml:space="preserve" font-family="Libertad-Book,Libertad" font-size="30.0" fill="#FEFFFF" transform="matrix(1.00, 0.00, -0.00, -1.00, 62.4, 9.3)">/</text><text xml:space="preserve" font-family="Libertad-Book,Libertad" font-size="30.0" fill="#FEFFFF" transform="matrix(1.00, 0.00, -0.00, -1.00, 71.6, 9.3)">/</text><text xml:space="preserve" font-family="Libertad-Book,Libertad" font-size="30.0" fill="#FEFFFF" transform="matrix(1.00, 0.00, -0.00, -1.00, 83.7, 9.3)">b</text><text xml:space="preserve" font-family="Libertad-Book,Libertad" font-size="30.0" fill="#FEFFFF" transform="matrix(1.00, 0.00, -0.00, -1.00, 100.6, 9.3)">i</text><text xml:space="preserve" font-family="Libertad-Book,Libertad" font-size="30.0" fill="#FEFFFF" transform="matrix(1.00, 0.00, -0.00, -1.00, 107.9, 9.3)">t</text><text xml:space="preserve" font-family="Libertad-Book,Libertad" font-size="30.0" fill="#FEFFFF" transform="matrix(1.00, 0.00, -0.00, -1.00, 118.9, 9.3)">.</text><text xml:space="preserve" font-family="Libertad-Book,Libertad" font-size="30.0" fill="#FEFFFF" transform="matrix(1.00, 0.00, -0.00, -1.00, 125.2, 9.3)">l</text><text xml:space="preserve" font-family="Libertad-Book,Libertad" font-size="30.0" fill="#FEFFFF" transform="matrix(1.00, 0.00, -0.00, -1.00, 132.5, 9.3)">y</text><text xml:space="preserve" font-family="Libertad-Book,Libertad" font-size="30.0" fill="#FEFFFF" transform="matrix(1.00, 0.00, -0.00, -1.00, 146.3, 9.3)">/</text><text xml:space="preserve" font-family="Libertad-Book,Libertad" font-size="30.0" fill="#FEFFFF" transform="matrix(1.00, 0.00, -0.00, -1.00, 158.5, 9.3)">1</text><text xml:space="preserve" font-family="Libertad-Book,Libertad" font-size="30.0" fill="#FEFFFF" transform="matrix(1.00, 0.00, -0.00, -1.00, 170.5, 9.3)">D</text><text xml:space="preserve" font-family="Libertad-Book,Libertad" font-size="30.0" fill="#FEFFFF" transform="matrix(1.00, 0.00, -0.00, -1.00, 189.2, 9.3)">j</text><text xml:space="preserve" font-family="Libertad-Book,Libertad" font-size="30.0" fill="#FEFFFF" transform="matrix(1.00, 0.00, -0.00, -1.00, 196.5, 9.3)">o</text><text xml:space="preserve" font-family="Libertad-Book,Libertad" font-size="30.0" fill="#FEFFFF" transform="matrix(1.00, 0.00, -0.00, -1.00, 212.0, 9.3)">T</text><text xml:space="preserve" font-family="Libertad-Book,Libertad" font-size="30.0" fill="#FEFFFF" transform="matrix(1.00, 0.00, -0.00, -1.00, 225.5, 9.3)">a</text><text xml:space="preserve" font-family="Libertad-Book,Libertad" font-size="30.0" fill="#FEFFFF" transform="matrix(1.00, 0.00, -0.00, -1.00, 240.1, 9.3)">U</text><g><clipPath id="clip0x6080012ae5e0"><path d="M -0.6 4.4 L 258.4 4.4 L 258.4 8.4 L -0.6 8.4 Z M -0.6 4.4 "></path></clipPath><g clip-path="url(#clip0x6080012ae5e0)"><path d="M 404.1 28.2 L 662.0 28.2 " fill="none" stroke="#FEFFFF" stroke-width="1.95" transform="matrix(1.00, 0.00, 0.00, -1.00, -403.6, 34.6)"></path></g></g></g></svg>