<?xml version="1.0" encoding="UTF-8" standalone="no"?><svg xmlns="http://www.w3.org/2000/svg" xmlns:xlink="http://www.w3.org/1999/xlink" clip-rule="evenodd" stroke-miterlimit="10" viewBox="0 0 276 34"><desc>SVG generated by Keynote</desc><defs></defs><g transform="matrix(1.00, 0.00, -0.00, -1.00, 0.0, 34.0)"><text xml:space="preserve" font-family="Libertad-Book,Libertad" font-size="30.0" fill="#FEFFFF" transform="matrix(1.00, 0.00, -0.00, -1.00, 0.4, 9.3)"> </text><text xml:space="preserve" font-family="Libertad-Book,Libertad" font-size="30.0" fill="#FEFFFF" transform="matrix(1.00, 0.00, -0.00, -1.00, 7.0, 9.3)">h</text><text xml:space="preserve" font-family="Libertad-Book,Libertad" font-size="30.0" fill="#FEFFFF" transform="matrix(1.00, 0.00, -0.00, -1.00, 23.8, 9.3)">t</text><text xml:space="preserve" font-family="Libertad-Book,Libertad" font-size="30.0" fill="#FEFFFF" transform="matrix(1.00, 0.00, -0.00, -1.00, 34.8, 9.3)">t</text><text xml:space="preserve" font-family="Libertad-Book,Libertad" font-size="30.0" fill="#FEFFFF" transform="matrix(1.00, 0.00, -0.00, -1.00, 45.6, 9.3)">p</text><text xml:space="preserve" font-family="Libertad-Book,Libertad" font-size="30.0" fill="#FEFFFF" transform="matrix(1.00, 0.00, -0.00, -1.00, 62.6, 9.3)">:</text><text xml:space="preserve" font-family="Libertad-Book,Libertad" font-size="30.0" fill="#FEFFFF" transform="matrix(1.00, 0.00, -0.00, -1.00, 68.9, 9.3)">/</text><text xml:space="preserve" font-family="Libertad-Book,Libertad" font-size="30.0" fill="#FEFFFF" transform="matrix(1.00, 0.00, -0.00, -1.00, 78.1, 9.3)">/</text><text xml:space="preserve" font-family="Libertad-Book,Libertad" font-size="30.0" fill="#FEFFFF" transform="matrix(1.00, 0.00, -0.00, -1.00, 90.3, 9.3)">b</text><text xml:space="preserve" font-family="Libertad-Book,Libertad" font-size="30.0" fill="#FEFFFF" transform="matrix(1.00, 0.00, -0.00, -1.00, 107.2, 9.3)">i</text><text xml:space="preserve" font-family="Libertad-Book,Libertad" font-size="30.0" fill="#FEFFFF" transform="matrix(1.00, 0.00, -0.00, -1.00, 114.5, 9.3)">t</text><text xml:space="preserve" font-family="Libertad-Book,Libertad" font-size="30.0" fill="#FEFFFF" transform="matrix(1.00, 0.00, -0.00, -1.00, 125.5, 9.3)">.</text><text xml:space="preserve" font-family="Libertad-Book,Libertad" font-size="30.0" fill="#FEFFFF" transform="matrix(1.00, 0.00, -0.00, -1.00, 131.8, 9.3)">l</text><text xml:space="preserve" font-family="Libertad-Book,Libertad" font-size="30.0" fill="#FEFFFF" transform="matrix(1.00, 0.00, -0.00, -1.00, 139.1, 9.3)">y</text><text xml:space="preserve" font-family="Libertad-Book,Libertad" font-size="30.0" fill="#FEFFFF" transform="matrix(1.00, 0.00, -0.00, -1.00, 152.9, 9.3)">/</text><text xml:space="preserve" font-family="Libertad-Book,Libertad" font-size="30.0" fill="#FEFFFF" transform="matrix(1.00, 0.00, -0.00, -1.00, 165.1, 9.3)">1</text><text xml:space="preserve" font-family="Libertad-Book,Libertad" font-size="30.0" fill="#FEFFFF" transform="matrix(1.00, 0.00, -0.00, -1.00, 177.1, 9.3)">y</text><text xml:space="preserve" font-family="Libertad-Book,Libertad" font-size="30.0" fill="#FEFFFF" transform="matrix(1.00, 0.00, -0.00, -1.00, 192.0, 9.3)">U</text><text xml:space="preserve" font-family="Libertad-Book,Libertad" font-size="30.0" fill="#FEFFFF" transform="matrix(1.00, 0.00, -0.00, -1.00, 210.4, 9.3)">0</text><text xml:space="preserve" font-family="Libertad-Book,Libertad" font-size="30.0" fill="#FEFFFF" transform="matrix(1.00, 0.00, -0.00, -1.00, 229.2, 9.3)">s</text><text xml:space="preserve" font-family="Libertad-Book,Libertad" font-size="30.0" fill="#FEFFFF" transform="matrix(1.00, 0.00, -0.00, -1.00, 241.4, 9.3)">V</text><text xml:space="preserve" font-family="Libertad-Book,Libertad" font-size="30.0" fill="#FEFFFF" transform="matrix(1.00, 0.00, -0.00, -1.00, 259.4, 9.3)">x</text><g><clipPath id="clip0x6080012adf20"><path d="M 6.0 4.4 L 274.0 4.4 L 274.0 8.4 L 6.0 8.4 Z M 6.0 4.4 "></path></clipPath><g clip-path="url(#clip0x6080012adf20)"><path d="M 512.0 28.2 L 779.0 28.2 " fill="none" stroke="#FEFFFF" stroke-width="1.95" transform="matrix(1.00, 0.00, 0.00, -1.00, -505.0, 34.6)"></path></g></g></g></svg>