<?xml version="1.0" encoding="UTF-8" standalone="no"?><svg xmlns="http://www.w3.org/2000/svg" xmlns:xlink="http://www.w3.org/1999/xlink" clip-rule="evenodd" stroke-miterlimit="10" viewBox="0 0 503 41"><desc>SVG generated by Keynote</desc><defs></defs><g transform="matrix(1.00, 0.00, -0.00, -1.00, 0.0, 41.0)"><text xml:space="preserve" font-family="Libertad-Book,Libertad" font-size="36.0" fill="#000000" transform="matrix(1.00, 0.00, -0.00, -1.00, 2.5, 11.4)"> </text><text xml:space="preserve" font-family="Libertad-Book,Libertad" font-size="36.0" fill="#000000" transform="matrix(1.00, 0.00, -0.00, -1.00, 9.6, 11.4)">A</text><text xml:space="preserve" font-family="Libertad-Book,Libertad" font-size="36.0" fill="#000000" transform="matrix(1.00, 0.00, -0.00, -1.00, 31.2, 11.4)">n</text><text xml:space="preserve" font-family="Libertad-Book,Libertad" font-size="36.0" fill="#000000" transform="matrix(1.00, 0.00, -0.00, -1.00, 51.4, 11.4)">i</text><text xml:space="preserve" font-family="Libertad-Book,Libertad" font-size="36.0" fill="#000000" transform="matrix(1.00, 0.00, -0.00, -1.00, 60.1, 11.4)">m</text><text xml:space="preserve" font-family="Libertad-Book,Libertad" font-size="36.0" fill="#000000" transform="matrix(1.00, 0.00, -0.00, -1.00, 91.2, 11.4)">a</text><text xml:space="preserve" font-family="Libertad-Book,Libertad" font-size="36.0" fill="#000000" transform="matrix(1.00, 0.00, -0.00, -1.00, 108.7, 11.4)">รง</text><text xml:space="preserve" font-family="Libertad-Book,Libertad" font-size="36.0" fill="#000000" transform="matrix(1.00, 0.00, -0.00, -1.00, 125.6, 11.4)">รฃ</text><text xml:space="preserve" font-family="Libertad-Book,Libertad" font-size="36.0" fill="#000000" transform="matrix(1.00, 0.00, -0.00, -1.00, 143.1, 11.4)">o</text><text xml:space="preserve" font-family="Libertad-Book,Libertad" font-size="36.0" fill="#000000" transform="matrix(1.00, 0.00, -0.00, -1.00, 163.1, 11.4)">:</text><text xml:space="preserve" font-family="Libertad-Book,Libertad" font-size="36.0" fill="#000000" transform="matrix(1.00, 0.00, -0.00, -1.00, 170.7, 11.4)"> </text><text xml:space="preserve" font-family="Libertad-Book,Libertad" font-size="36.0" fill="#000000" transform="matrix(1.00, 0.00, -0.00, -1.00, 178.6, 11.4)"> </text><text xml:space="preserve" font-family="Libertad-Book,Libertad" font-size="36.0" fill="#000000" transform="matrix(1.00, 0.00, -0.00, -1.00, 186.5, 11.4)">h</text><text xml:space="preserve" font-family="Libertad-Book,Libertad" font-size="36.0" fill="#000000" transform="matrix(1.00, 0.00, -0.00, -1.00, 206.7, 11.4)">t</text><text xml:space="preserve" font-family="Libertad-Book,Libertad" font-size="36.0" fill="#000000" transform="matrix(1.00, 0.00, -0.00, -1.00, 219.9, 11.4)">t</text><text xml:space="preserve" font-family="Libertad-Book,Libertad" font-size="36.0" fill="#000000" transform="matrix(1.00, 0.00, -0.00, -1.00, 232.8, 11.4)">p</text><text xml:space="preserve" font-family="Libertad-Book,Libertad" font-size="36.0" fill="#000000" transform="matrix(1.00, 0.00, -0.00, -1.00, 253.3, 11.4)">:</text><text xml:space="preserve" font-family="Libertad-Book,Libertad" font-size="36.0" fill="#000000" transform="matrix(1.00, 0.00, -0.00, -1.00, 260.8, 11.4)">/</text><text xml:space="preserve" font-family="Libertad-Book,Libertad" font-size="36.0" fill="#000000" transform="matrix(1.00, 0.00, -0.00, -1.00, 271.9, 11.4)">/</text><text xml:space="preserve" font-family="Libertad-Book,Libertad" font-size="36.0" fill="#000000" transform="matrix(1.00, 0.00, -0.00, -1.00, 286.5, 11.4)">b</text><text xml:space="preserve" font-family="Libertad-Book,Libertad" font-size="36.0" fill="#000000" transform="matrix(1.00, 0.00, -0.00, -1.00, 306.7, 11.4)">i</text><text xml:space="preserve" font-family="Libertad-Book,Libertad" font-size="36.0" fill="#000000" transform="matrix(1.00, 0.00, -0.00, -1.00, 315.5, 11.4)">t</text><text xml:space="preserve" font-family="Libertad-Book,Libertad" font-size="36.0" fill="#000000" transform="matrix(1.00, 0.00, -0.00, -1.00, 328.7, 11.4)">.</text><text xml:space="preserve" font-family="Libertad-Book,Libertad" font-size="36.0" fill="#000000" transform="matrix(1.00, 0.00, -0.00, -1.00, 336.3, 11.4)">l</text><text xml:space="preserve" font-family="Libertad-Book,Libertad" font-size="36.0" fill="#000000" transform="matrix(1.00, 0.00, -0.00, -1.00, 345.0, 11.4)">y</text><text xml:space="preserve" font-family="Libertad-Book,Libertad" font-size="36.0" fill="#000000" transform="matrix(1.00, 0.00, -0.00, -1.00, 361.6, 11.4)">/</text><text xml:space="preserve" font-family="Libertad-Book,Libertad" font-size="36.0" fill="#000000" transform="matrix(1.00, 0.00, -0.00, -1.00, 376.2, 11.4)">1</text><text xml:space="preserve" font-family="Libertad-Book,Libertad" font-size="36.0" fill="#000000" transform="matrix(1.00, 0.00, -0.00, -1.00, 390.6, 11.4)">D</text><text xml:space="preserve" font-family="Libertad-Book,Libertad" font-size="36.0" fill="#000000" transform="matrix(1.00, 0.00, -0.00, -1.00, 413.1, 11.4)">e</text><text xml:space="preserve" font-family="Libertad-Book,Libertad" font-size="36.0" fill="#000000" transform="matrix(1.00, 0.00, -0.00, -1.00, 431.2, 11.4)">I</text><text xml:space="preserve" font-family="Libertad-Book,Libertad" font-size="36.0" fill="#000000" transform="matrix(1.00, 0.00, -0.00, -1.00, 440.0, 11.4)">H</text><text xml:space="preserve" font-family="Libertad-Book,Libertad" font-size="36.0" fill="#000000" transform="matrix(1.00, 0.00, -0.00, -1.00, 463.6, 11.4)">u</text><text xml:space="preserve" font-family="Libertad-Book,Libertad" font-size="36.0" fill="#000000" transform="matrix(1.00, 0.00, -0.00, -1.00, 483.4, 11.4)">P</text><g><clipPath id="clip0x7fee243e6030"><path d="M 185.5 5.7 L 501.9 5.7 L 501.9 10.1 L 185.5 10.1 Z M 185.5 5.7 "></path></clipPath><g clip-path="url(#clip0x7fee243e6030)"><path d="M 463.5 34.0 L 779.0 34.0 " fill="none" stroke="#000000" stroke-width="2.34" transform="matrix(1.00, 0.00, 0.00, -1.00, -277.0, 41.9)"></path></g></g></g></svg>