<?xml version="1.0" encoding="UTF-8" standalone="no"?><svg xmlns="http://www.w3.org/2000/svg" xmlns:xlink="http://www.w3.org/1999/xlink" clip-rule="evenodd" stroke-miterlimit="10" viewBox="0 0 1920 1080"><desc>SVG generated by Keynote</desc><defs></defs><g transform="matrix(1.00, 0.00, -0.00, -1.00, 0.0, 1080.0)"><path d="M 0.0 1080.0 L 1920.0 1080.0 L 1920.0 0.0 L 0.0 0.0 Z M 0.0 1080.0 " fill="#000000"></path><text xml:space="preserve" font-family="Libertad-ExtraBoldItalic,Libertad" font-style="italic" font-weight="bold" font-size="98.4" fill="#FEFFFF" transform="matrix(1.00, 0.00, -0.00, -1.00, 695.9, 753.6)">e</text><text xml:space="preserve" font-family="Libertad-ExtraBoldItalic,Libertad" font-style="italic" font-weight="bold" font-size="98.4" fill="#FEFFFF" transform="matrix(1.00, 0.00, -0.00, -1.00, 735.8, 753.6)">x</text><text xml:space="preserve" font-family="Libertad-ExtraBoldItalic,Libertad" font-style="italic" font-weight="bold" font-size="98.4" fill="#FEFFFF" transform="matrix(1.00, 0.00, -0.00, -1.00, 786.1, 753.6)">e</text><text xml:space="preserve" font-family="Libertad-ExtraBoldItalic,Libertad" font-style="italic" font-weight="bold" font-size="98.4" fill="#FEFFFF" transform="matrix(1.00, 0.00, -0.00, -1.00, 827.9, 753.6)">m</text><text xml:space="preserve" font-family="Libertad-ExtraBoldItalic,Libertad" font-style="italic" font-weight="bold" font-size="98.4" fill="#FEFFFF" transform="matrix(1.00, 0.00, -0.00, -1.00, 910.1, 753.6)">p</text><text xml:space="preserve" font-family="Libertad-ExtraBoldItalic,Libertad" font-style="italic" font-weight="bold" font-size="98.4" fill="#FEFFFF" transform="matrix(1.00, 0.00, -0.00, -1.00, 962.6, 753.6)">l</text><text xml:space="preserve" font-family="Libertad-ExtraBoldItalic,Libertad" font-style="italic" font-weight="bold" font-size="98.4" fill="#FEFFFF" transform="matrix(1.00, 0.00, -0.00, -1.00, 988.5, 753.6)">o</text><text xml:space="preserve" font-family="Libertad-ExtraBoldItalic,Libertad" font-style="italic" font-weight="bold" font-size="98.4" fill="#FEFFFF" transform="matrix(1.00, 0.00, -0.00, -1.00, 1035.6, 753.6)"> </text><text xml:space="preserve" font-family="Libertad-ExtraBoldItalic,Libertad" font-style="italic" font-weight="bold" font-size="98.4" fill="#FEFFFF" transform="matrix(1.00, 0.00, -0.00, -1.00, 1056.2, 753.6)">c</text><text xml:space="preserve" font-family="Libertad-ExtraBoldItalic,Libertad" font-style="italic" font-weight="bold" font-size="98.4" fill="#FEFFFF" transform="matrix(1.00, 0.00, -0.00, -1.00, 1094.8, 753.6)">o</text><text xml:space="preserve" font-family="Libertad-ExtraBoldItalic,Libertad" font-style="italic" font-weight="bold" font-size="98.4" fill="#FEFFFF" transform="matrix(1.00, 0.00, -0.00, -1.00, 1141.9, 753.6)">m</text><text xml:space="preserve" font-family="Libertad-ExtraBoldItalic,Libertad" font-style="italic" font-weight="bold" font-size="98.4" fill="#FEFFFF" transform="matrix(1.00, 0.00, -0.00, -1.00, 1224.1, 753.6)"> </text><text xml:space="preserve" font-family="Libertad-ExtraBoldItalic,Libertad" font-style="italic" font-weight="bold" font-size="98.4" fill="#FEFFFF" transform="matrix(1.00, 0.00, -0.00, -1.00, 1244.8, 753.6)"> </text><text xml:space="preserve" font-family="Libertad-ExtraBoldItalic,Libertad" font-style="italic" font-weight="bold" font-size="98.4" fill="#FEFFFF" transform="matrix(1.00, 0.00, -0.00, -1.00, 636.9, 654.6)">e</text><text xml:space="preserve" font-family="Libertad-ExtraBoldItalic,Libertad" font-style="italic" font-weight="bold" font-size="98.4" fill="#FEFFFF" transform="matrix(1.00, 0.00, -0.00, -1.00, 678.6, 654.6)"> </text><text xml:space="preserve" font-family="Libertad-ExtraBoldItalic,Libertad" font-style="italic" font-weight="bold" font-size="98.4" fill="#FEFFFF" transform="matrix(1.00, 0.00, -0.00, -1.00, 697.3, 654.6)">s</text><text xml:space="preserve" font-family="Libertad-ExtraBoldItalic,Libertad" font-style="italic" font-weight="bold" font-size="98.4" fill="#FEFFFF" transform="matrix(1.00, 0.00, -0.00, -1.00, 734.1, 654.6)">e</text><text xml:space="preserve" font-family="Libertad-ExtraBoldItalic,Libertad" font-style="italic" font-weight="bold" font-size="98.4" fill="#FEFFFF" transform="matrix(1.00, 0.00, -0.00, -1.00, 775.9, 654.6)">m</text><text xml:space="preserve" font-family="Libertad-ExtraBoldItalic,Libertad" font-style="italic" font-weight="bold" font-size="98.4" fill="#FEFFFF" transform="matrix(1.00, 0.00, -0.00, -1.00, 858.2, 654.6)"> </text><text xml:space="preserve" font-family="Libertad-ExtraBoldItalic,Libertad" font-style="italic" font-weight="bold" font-size="98.4" fill="#FEFFFF" transform="matrix(1.00, 0.00, -0.00, -1.00, 878.8, 654.6)">a</text><text xml:space="preserve" font-family="Libertad-ExtraBoldItalic,Libertad" font-style="italic" font-weight="bold" font-size="98.4" fill="#FEFFFF" transform="matrix(1.00, 0.00, -0.00, -1.00, 931.2, 654.6)">n</text><text xml:space="preserve" font-family="Libertad-ExtraBoldItalic,Libertad" font-style="italic" font-weight="bold" font-size="98.4" fill="#FEFFFF" transform="matrix(1.00, 0.00, -0.00, -1.00, 985.2, 654.6)">i</text><text xml:space="preserve" font-family="Libertad-ExtraBoldItalic,Libertad" font-style="italic" font-weight="bold" font-size="98.4" fill="#FEFFFF" transform="matrix(1.00, 0.00, -0.00, -1.00, 1011.1, 654.6)">m</text><text xml:space="preserve" font-family="Libertad-ExtraBoldItalic,Libertad" font-style="italic" font-weight="bold" font-size="98.4" fill="#FEFFFF" transform="matrix(1.00, 0.00, -0.00, -1.00, 1093.4, 654.6)">a</text><text xml:space="preserve" font-family="Libertad-ExtraBoldItalic,Libertad" font-style="italic" font-weight="bold" font-size="98.4" fill="#FEFFFF" transform="matrix(1.00, 0.00, -0.00, -1.00, 1145.7, 654.6)">ç</text><text xml:space="preserve" font-family="Libertad-ExtraBoldItalic,Libertad" font-style="italic" font-weight="bold" font-size="98.4" fill="#FEFFFF" transform="matrix(1.00, 0.00, -0.00, -1.00, 1183.6, 654.6)">ã</text><text xml:space="preserve" font-family="Libertad-ExtraBoldItalic,Libertad" font-style="italic" font-weight="bold" font-size="98.4" fill="#FEFFFF" transform="matrix(1.00, 0.00, -0.00, -1.00, 1236.0, 654.6)">o</text><text xml:space="preserve" font-family="Libertad-ExtraBoldItalic,Libertad" font-style="italic" font-weight="bold" font-size="98.4" fill="#FEFFFF" transform="matrix(1.00, 0.00, -0.00, -1.00, 1283.0, 654.6)"> </text><text xml:space="preserve" font-family="Libertad-BookItalic,Libertad" font-style="italic" font-size="44.0" fill="#FEFFFF" transform="matrix(1.00, 0.00, -0.00, -1.00, 695.9, 487.8)">S</text><text xml:space="preserve" font-family="Libertad-BookItalic,Libertad" font-style="italic" font-size="44.0" fill="#FEFFFF" transform="matrix(1.00, 0.00, -0.00, -1.00, 716.0, 487.8)">u</text><text xml:space="preserve" font-family="Libertad-BookItalic,Libertad" font-style="italic" font-size="44.0" fill="#FEFFFF" transform="matrix(1.00, 0.00, -0.00, -1.00, 738.6, 487.8)">b</text><text xml:space="preserve" font-family="Libertad-BookItalic,Libertad" font-style="italic" font-size="44.0" fill="#FEFFFF" transform="matrix(1.00, 0.00, -0.00, -1.00, 761.0, 487.8)">t</text><text xml:space="preserve" font-family="Libertad-BookItalic,Libertad" font-style="italic" font-size="44.0" fill="#FEFFFF" transform="matrix(1.00, 0.00, -0.00, -1.00, 775.8, 487.8)">í</text><text xml:space="preserve" font-family="Libertad-BookItalic,Libertad" font-style="italic" font-size="44.0" fill="#FEFFFF" transform="matrix(1.00, 0.00, -0.00, -1.00, 786.4, 487.8)">t</text><text xml:space="preserve" font-family="Libertad-BookItalic,Libertad" font-style="italic" font-size="44.0" fill="#FEFFFF" transform="matrix(1.00, 0.00, -0.00, -1.00, 801.2, 487.8)">u</text><text xml:space="preserve" font-family="Libertad-BookItalic,Libertad" font-style="italic" font-size="44.0" fill="#FEFFFF" transform="matrix(1.00, 0.00, -0.00, -1.00, 823.8, 487.8)">l</text><text xml:space="preserve" font-family="Libertad-BookItalic,Libertad" font-style="italic" font-size="44.0" fill="#FEFFFF" transform="matrix(1.00, 0.00, -0.00, -1.00, 834.0, 487.8)">o</text><text xml:space="preserve" font-family="Libertad-BookItalic,Libertad" font-style="italic" font-size="44.0" fill="#FEFFFF" transform="matrix(1.00, 0.00, -0.00, -1.00, 855.3, 487.8)"> </text><text xml:space="preserve" font-family="Libertad-BookItalic,Libertad" font-style="italic" font-size="44.0" fill="#FEFFFF" transform="matrix(1.00, 0.00, -0.00, -1.00, 864.4, 487.8)">d</text><text xml:space="preserve" font-family="Libertad-BookItalic,Libertad" font-style="italic" font-size="44.0" fill="#FEFFFF" transform="matrix(1.00, 0.00, -0.00, -1.00, 887.1, 487.8)">a</text><text xml:space="preserve" font-family="Libertad-BookItalic,Libertad" font-style="italic" font-size="44.0" fill="#FEFFFF" transform="matrix(1.00, 0.00, -0.00, -1.00, 909.6, 487.8)"> </text><text xml:space="preserve" font-family="Libertad-BookItalic,Libertad" font-style="italic" font-size="44.0" fill="#FEFFFF" transform="matrix(1.00, 0.00, -0.00, -1.00, 917.8, 487.8)">s</text><text xml:space="preserve" font-family="Libertad-BookItalic,Libertad" font-style="italic" font-size="44.0" fill="#FEFFFF" transform="matrix(1.00, 0.00, -0.00, -1.00, 933.7, 487.8)">u</text><text xml:space="preserve" font-family="Libertad-BookItalic,Libertad" font-style="italic" font-size="44.0" fill="#FEFFFF" transform="matrix(1.00, 0.00, -0.00, -1.00, 956.4, 487.8)">a</text><text xml:space="preserve" font-family="Libertad-BookItalic,Libertad" font-style="italic" font-size="44.0" fill="#FEFFFF" transform="matrix(1.00, 0.00, -0.00, -1.00, 978.9, 487.8)"> </text><text xml:space="preserve" font-family="Libertad-BookItalic,Libertad" font-style="italic" font-size="44.0" fill="#FEFFFF" transform="matrix(1.00, 0.00, -0.00, -1.00, 987.6, 487.8)">a</text><text xml:space="preserve" font-family="Libertad-BookItalic,Libertad" font-style="italic" font-size="44.0" fill="#FEFFFF" transform="matrix(1.00, 0.00, -0.00, -1.00, 1010.1, 487.8)">p</text><text xml:space="preserve" font-family="Libertad-BookItalic,Libertad" font-style="italic" font-size="44.0" fill="#FEFFFF" transform="matrix(1.00, 0.00, -0.00, -1.00, 1032.8, 487.8)">r</text><text xml:space="preserve" font-family="Libertad-BookItalic,Libertad" font-style="italic" font-size="44.0" fill="#FEFFFF" transform="matrix(1.00, 0.00, -0.00, -1.00, 1047.9, 487.8)">e</text><text xml:space="preserve" font-family="Libertad-BookItalic,Libertad" font-style="italic" font-size="44.0" fill="#FEFFFF" transform="matrix(1.00, 0.00, -0.00, -1.00, 1066.9, 487.8)">s</text><text xml:space="preserve" font-family="Libertad-BookItalic,Libertad" font-style="italic" font-size="44.0" fill="#FEFFFF" transform="matrix(1.00, 0.00, -0.00, -1.00, 1082.8, 487.8)">e</text><text xml:space="preserve" font-family="Libertad-BookItalic,Libertad" font-style="italic" font-size="44.0" fill="#FEFFFF" transform="matrix(1.00, 0.00, -0.00, -1.00, 1101.6, 487.8)">n</text><text xml:space="preserve" font-family="Libertad-BookItalic,Libertad" font-style="italic" font-size="44.0" fill="#FEFFFF" transform="matrix(1.00, 0.00, -0.00, -1.00, 1124.7, 487.8)">t</text><text xml:space="preserve" font-family="Libertad-BookItalic,Libertad" font-style="italic" font-size="44.0" fill="#FEFFFF" transform="matrix(1.00, 0.00, -0.00, -1.00, 1139.9, 487.8)">a</text><text xml:space="preserve" font-family="Libertad-BookItalic,Libertad" font-style="italic" font-size="44.0" fill="#FEFFFF" transform="matrix(1.00, 0.00, -0.00, -1.00, 1162.4, 487.8)">ç</text><text xml:space="preserve" font-family="Libertad-BookItalic,Libertad" font-style="italic" font-size="44.0" fill="#FEFFFF" transform="matrix(1.00, 0.00, -0.00, -1.00, 1180.0, 487.8)">ã</text><text xml:space="preserve" font-family="Libertad-BookItalic,Libertad" font-style="italic" font-size="44.0" fill="#FEFFFF" transform="matrix(1.00, 0.00, -0.00, -1.00, 1202.7, 487.8)">o</text><image xlink:href="../../50E2CF01-C49D-4067-BCD3-9BD912E05B27/assets/6983F19589506B8884453B23E95FFB21.png" width="1104.00" height="756.00" transform="matrix(1.54, 0.00, -0.00, -1.54, 112.5, 1157.0)"></image><text xml:space="preserve" font-family="Libertad-Book,Libertad" font-size="36.0" fill="#000000" transform="matrix(1.00, 0.00, -0.00, -1.00, 1270.5, 26.4)"> </text><text xml:space="preserve" font-family="Libertad-Book,Libertad" font-size="36.0" fill="#000000" transform="matrix(1.00, 0.00, -0.00, -1.00, 1277.6, 26.4)">A</text><text xml:space="preserve" font-family="Libertad-Book,Libertad" font-size="36.0" fill="#000000" transform="matrix(1.00, 0.00, -0.00, -1.00, 1299.2, 26.4)">n</text><text xml:space="preserve" font-family="Libertad-Book,Libertad" font-size="36.0" fill="#000000" transform="matrix(1.00, 0.00, -0.00, -1.00, 1319.4, 26.4)">i</text><text xml:space="preserve" font-family="Libertad-Book,Libertad" font-size="36.0" fill="#000000" transform="matrix(1.00, 0.00, -0.00, -1.00, 1328.1, 26.4)">m</text><text xml:space="preserve" font-family="Libertad-Book,Libertad" font-size="36.0" fill="#000000" transform="matrix(1.00, 0.00, -0.00, -1.00, 1359.2, 26.4)">a</text><text xml:space="preserve" font-family="Libertad-Book,Libertad" font-size="36.0" fill="#000000" transform="matrix(1.00, 0.00, -0.00, -1.00, 1376.7, 26.4)">ç</text><text xml:space="preserve" font-family="Libertad-Book,Libertad" font-size="36.0" fill="#000000" transform="matrix(1.00, 0.00, -0.00, -1.00, 1393.6, 26.4)">ã</text><text xml:space="preserve" font-family="Libertad-Book,Libertad" font-size="36.0" fill="#000000" transform="matrix(1.00, 0.00, -0.00, -1.00, 1411.1, 26.4)">o</text><text xml:space="preserve" font-family="Libertad-Book,Libertad" font-size="36.0" fill="#000000" transform="matrix(1.00, 0.00, -0.00, -1.00, 1431.1, 26.4)">:</text><text xml:space="preserve" font-family="Libertad-Book,Libertad" font-size="36.0" fill="#000000" transform="matrix(1.00, 0.00, -0.00, -1.00, 1438.7, 26.4)"> </text><text xml:space="preserve" font-family="Libertad-Book,Libertad" font-size="36.0" fill="#000000" transform="matrix(1.00, 0.00, -0.00, -1.00, 1446.6, 26.4)"> </text><text xml:space="preserve" font-family="Libertad-Book,Libertad" font-size="36.0" fill="#000000" transform="matrix(1.00, 0.00, -0.00, -1.00, 1454.5, 26.4)">h</text><text xml:space="preserve" font-family="Libertad-Book,Libertad" font-size="36.0" fill="#000000" transform="matrix(1.00, 0.00, -0.00, -1.00, 1474.7, 26.4)">t</text><text xml:space="preserve" font-family="Libertad-Book,Libertad" font-size="36.0" fill="#000000" transform="matrix(1.00, 0.00, -0.00, -1.00, 1487.9, 26.4)">t</text><text xml:space="preserve" font-family="Libertad-Book,Libertad" font-size="36.0" fill="#000000" transform="matrix(1.00, 0.00, -0.00, -1.00, 1500.8, 26.4)">p</text><text xml:space="preserve" font-family="Libertad-Book,Libertad" font-size="36.0" fill="#000000" transform="matrix(1.00, 0.00, -0.00, -1.00, 1521.3, 26.4)">:</text><text xml:space="preserve" font-family="Libertad-Book,Libertad" font-size="36.0" fill="#000000" transform="matrix(1.00, 0.00, -0.00, -1.00, 1528.8, 26.4)">/</text><text xml:space="preserve" font-family="Libertad-Book,Libertad" font-size="36.0" fill="#000000" transform="matrix(1.00, 0.00, -0.00, -1.00, 1539.9, 26.4)">/</text><text xml:space="preserve" font-family="Libertad-Book,Libertad" font-size="36.0" fill="#000000" transform="matrix(1.00, 0.00, -0.00, -1.00, 1554.5, 26.4)">b</text><text xml:space="preserve" font-family="Libertad-Book,Libertad" font-size="36.0" fill="#000000" transform="matrix(1.00, 0.00, -0.00, -1.00, 1574.7, 26.4)">i</text><text xml:space="preserve" font-family="Libertad-Book,Libertad" font-size="36.0" fill="#000000" transform="matrix(1.00, 0.00, -0.00, -1.00, 1583.5, 26.4)">t</text><text xml:space="preserve" font-family="Libertad-Book,Libertad" font-size="36.0" fill="#000000" transform="matrix(1.00, 0.00, -0.00, -1.00, 1596.7, 26.4)">.</text><text xml:space="preserve" font-family="Libertad-Book,Libertad" font-size="36.0" fill="#000000" transform="matrix(1.00, 0.00, -0.00, -1.00, 1604.3, 26.4)">l</text><text xml:space="preserve" font-family="Libertad-Book,Libertad" font-size="36.0" fill="#000000" transform="matrix(1.00, 0.00, -0.00, -1.00, 1613.0, 26.4)">y</text><text xml:space="preserve" font-family="Libertad-Book,Libertad" font-size="36.0" fill="#000000" transform="matrix(1.00, 0.00, -0.00, -1.00, 1629.6, 26.4)">/</text><text xml:space="preserve" font-family="Libertad-Book,Libertad" font-size="36.0" fill="#000000" transform="matrix(1.00, 0.00, -0.00, -1.00, 1644.2, 26.4)">1</text><text xml:space="preserve" font-family="Libertad-Book,Libertad" font-size="36.0" fill="#000000" transform="matrix(1.00, 0.00, -0.00, -1.00, 1658.6, 26.4)">D</text><text xml:space="preserve" font-family="Libertad-Book,Libertad" font-size="36.0" fill="#000000" transform="matrix(1.00, 0.00, -0.00, -1.00, 1681.1, 26.4)">e</text><text xml:space="preserve" font-family="Libertad-Book,Libertad" font-size="36.0" fill="#000000" transform="matrix(1.00, 0.00, -0.00, -1.00, 1699.2, 26.4)">I</text><text xml:space="preserve" font-family="Libertad-Book,Libertad" font-size="36.0" fill="#000000" transform="matrix(1.00, 0.00, -0.00, -1.00, 1708.0, 26.4)">H</text><text xml:space="preserve" font-family="Libertad-Book,Libertad" font-size="36.0" fill="#000000" transform="matrix(1.00, 0.00, -0.00, -1.00, 1731.6, 26.4)">u</text><text xml:space="preserve" font-family="Libertad-Book,Libertad" font-size="36.0" fill="#000000" transform="matrix(1.00, 0.00, -0.00, -1.00, 1751.4, 26.4)">P</text><g><clipPath id="clip0x6000012b5480"><path d="M 1453.5 20.7 L 1769.9 20.7 L 1769.9 25.1 L 1453.5 25.1 Z M 1453.5 20.7 "></path></clipPath><g clip-path="url(#clip0x6000012b5480)"><path d="M 463.5 34.0 L 779.0 34.0 " fill="none" stroke="#000000" stroke-width="2.34" transform="matrix(1.00, 0.00, 0.00, -1.00, 991.0, 56.9)"></path></g></g></g></svg>