<?xml version="1.0" encoding="UTF-8" standalone="no"?><svg xmlns="http://www.w3.org/2000/svg" xmlns:xlink="http://www.w3.org/1999/xlink" clip-rule="evenodd" stroke-miterlimit="10" viewBox="0 0 356 28"><desc>SVG generated by Keynote</desc><defs></defs><g transform="matrix(1.00, 0.00, -0.00, -1.00, 0.0, 28.0)"><text xml:space="preserve" font-family="Libertad-Book,Libertad" font-size="24.0" fill="#FEFFFF" transform="matrix(1.00, 0.00, -0.00, -1.00, 0.7, 7.5)">S</text><text xml:space="preserve" font-family="Libertad-Book,Libertad" font-size="24.0" fill="#FEFFFF" transform="matrix(1.00, 0.00, -0.00, -1.00, 12.4, 7.5)">e</text><text xml:space="preserve" font-family="Libertad-Book,Libertad" font-size="24.0" fill="#FEFFFF" transform="matrix(1.00, 0.00, -0.00, -1.00, 24.5, 7.5)">m</text><text xml:space="preserve" font-family="Libertad-Book,Libertad" font-size="24.0" fill="#FEFFFF" transform="matrix(1.00, 0.00, -0.00, -1.00, 45.3, 7.5)"> </text><text xml:space="preserve" font-family="Libertad-Book,Libertad" font-size="24.0" fill="#FEFFFF" transform="matrix(1.00, 0.00, -0.00, -1.00, 50.3, 7.5)">a</text><text xml:space="preserve" font-family="Libertad-Book,Libertad" font-size="24.0" fill="#FEFFFF" transform="matrix(1.00, 0.00, -0.00, -1.00, 62.0, 7.5)">n</text><text xml:space="preserve" font-family="Libertad-Book,Libertad" font-size="24.0" fill="#FEFFFF" transform="matrix(1.00, 0.00, -0.00, -1.00, 75.4, 7.5)">i</text><text xml:space="preserve" font-family="Libertad-Book,Libertad" font-size="24.0" fill="#FEFFFF" transform="matrix(1.00, 0.00, -0.00, -1.00, 81.3, 7.5)">m</text><text xml:space="preserve" font-family="Libertad-Book,Libertad" font-size="24.0" fill="#FEFFFF" transform="matrix(1.00, 0.00, -0.00, -1.00, 102.0, 7.5)">a</text><text xml:space="preserve" font-family="Libertad-Book,Libertad" font-size="24.0" fill="#FEFFFF" transform="matrix(1.00, 0.00, -0.00, -1.00, 113.7, 7.5)">รง</text><text xml:space="preserve" font-family="Libertad-Book,Libertad" font-size="24.0" fill="#FEFFFF" transform="matrix(1.00, 0.00, -0.00, -1.00, 124.9, 7.5)">รฃ</text><text xml:space="preserve" font-family="Libertad-Book,Libertad" font-size="24.0" fill="#FEFFFF" transform="matrix(1.00, 0.00, -0.00, -1.00, 136.6, 7.5)">o</text><text xml:space="preserve" font-family="Libertad-Book,Libertad" font-size="24.0" fill="#FEFFFF" transform="matrix(1.00, 0.00, -0.00, -1.00, 149.9, 7.5)">:</text><text xml:space="preserve" font-family="Libertad-Book,Libertad" font-size="24.0" fill="#FEFFFF" transform="matrix(1.00, 0.00, -0.00, -1.00, 154.9, 7.5)">h</text><text xml:space="preserve" font-family="Libertad-Book,Libertad" font-size="24.0" fill="#FEFFFF" transform="matrix(1.00, 0.00, -0.00, -1.00, 168.4, 7.5)">t</text><text xml:space="preserve" font-family="Libertad-Book,Libertad" font-size="24.0" fill="#FEFFFF" transform="matrix(1.00, 0.00, -0.00, -1.00, 177.2, 7.5)">t</text><text xml:space="preserve" font-family="Libertad-Book,Libertad" font-size="24.0" fill="#FEFFFF" transform="matrix(1.00, 0.00, -0.00, -1.00, 185.8, 7.5)">p</text><text xml:space="preserve" font-family="Libertad-Book,Libertad" font-size="24.0" fill="#FEFFFF" transform="matrix(1.00, 0.00, -0.00, -1.00, 199.4, 7.5)">:</text><text xml:space="preserve" font-family="Libertad-Book,Libertad" font-size="24.0" fill="#FEFFFF" transform="matrix(1.00, 0.00, -0.00, -1.00, 204.5, 7.5)">/</text><text xml:space="preserve" font-family="Libertad-Book,Libertad" font-size="24.0" fill="#FEFFFF" transform="matrix(1.00, 0.00, -0.00, -1.00, 211.9, 7.5)">/</text><text xml:space="preserve" font-family="Libertad-Book,Libertad" font-size="24.0" fill="#FEFFFF" transform="matrix(1.00, 0.00, -0.00, -1.00, 221.6, 7.5)">b</text><text xml:space="preserve" font-family="Libertad-Book,Libertad" font-size="24.0" fill="#FEFFFF" transform="matrix(1.00, 0.00, -0.00, -1.00, 235.1, 7.5)">i</text><text xml:space="preserve" font-family="Libertad-Book,Libertad" font-size="24.0" fill="#FEFFFF" transform="matrix(1.00, 0.00, -0.00, -1.00, 240.9, 7.5)">t</text><text xml:space="preserve" font-family="Libertad-Book,Libertad" font-size="24.0" fill="#FEFFFF" transform="matrix(1.00, 0.00, -0.00, -1.00, 249.7, 7.5)">.</text><text xml:space="preserve" font-family="Libertad-Book,Libertad" font-size="24.0" fill="#FEFFFF" transform="matrix(1.00, 0.00, -0.00, -1.00, 254.8, 7.5)">l</text><text xml:space="preserve" font-family="Libertad-Book,Libertad" font-size="24.0" fill="#FEFFFF" transform="matrix(1.00, 0.00, -0.00, -1.00, 260.6, 7.5)">y</text><text xml:space="preserve" font-family="Libertad-Book,Libertad" font-size="24.0" fill="#FEFFFF" transform="matrix(1.00, 0.00, -0.00, -1.00, 271.7, 7.5)">/</text><text xml:space="preserve" font-family="Libertad-Book,Libertad" font-size="24.0" fill="#FEFFFF" transform="matrix(1.00, 0.00, -0.00, -1.00, 281.4, 7.5)">1</text><text xml:space="preserve" font-family="Libertad-Book,Libertad" font-size="24.0" fill="#FEFFFF" transform="matrix(1.00, 0.00, -0.00, -1.00, 291.0, 7.5)">I</text><text xml:space="preserve" font-family="Libertad-Book,Libertad" font-size="24.0" fill="#FEFFFF" transform="matrix(1.00, 0.00, -0.00, -1.00, 296.8, 7.5)">x</text><text xml:space="preserve" font-family="Libertad-Book,Libertad" font-size="24.0" fill="#FEFFFF" transform="matrix(1.00, 0.00, -0.00, -1.00, 308.5, 7.5)">I</text><text xml:space="preserve" font-family="Libertad-Book,Libertad" font-size="24.0" fill="#FEFFFF" transform="matrix(1.00, 0.00, -0.00, -1.00, 314.4, 7.5)">Z</text><text xml:space="preserve" font-family="Libertad-Book,Libertad" font-size="24.0" fill="#FEFFFF" transform="matrix(1.00, 0.00, -0.00, -1.00, 326.7, 7.5)">B</text><text xml:space="preserve" font-family="Libertad-Book,Libertad" font-size="24.0" fill="#FEFFFF" transform="matrix(1.00, 0.00, -0.00, -1.00, 340.5, 7.5)">U</text><g><clipPath id="clip0x608000ea0360"><path d="M 153.9 3.4 L 355.2 3.4 L 355.2 6.9 L 153.9 6.9 Z M 153.9 3.4 "></path></clipPath><g clip-path="url(#clip0x608000ea0360)"><path d="M 461.8 23.3 L 662.0 23.3 " fill="none" stroke="#FEFFFF" stroke-width="1.56" transform="matrix(1.00, 0.00, 0.00, -1.00, -306.8, 28.5)"></path></g></g></g></svg>