<?xml version="1.0" encoding="UTF-8" standalone="no"?><svg xmlns="http://www.w3.org/2000/svg" xmlns:xlink="http://www.w3.org/1999/xlink" clip-rule="evenodd" stroke-miterlimit="10" viewBox="0 0 327 28"><desc>SVG generated by Keynote</desc><defs></defs><g transform="matrix(1.00, 0.00, -0.00, -1.00, 0.0, 28.0)"><text xml:space="preserve" font-family="Libertad-Book,Libertad" font-size="24.0" fill="#FEFFFF" transform="matrix(1.00, 0.00, -0.00, -1.00, 2.0, 7.5)">A</text><text xml:space="preserve" font-family="Libertad-Book,Libertad" font-size="24.0" fill="#FEFFFF" transform="matrix(1.00, 0.00, -0.00, -1.00, 16.4, 7.5)">n</text><text xml:space="preserve" font-family="Libertad-Book,Libertad" font-size="24.0" fill="#FEFFFF" transform="matrix(1.00, 0.00, -0.00, -1.00, 29.9, 7.5)">i</text><text xml:space="preserve" font-family="Libertad-Book,Libertad" font-size="24.0" fill="#FEFFFF" transform="matrix(1.00, 0.00, -0.00, -1.00, 35.7, 7.5)">m</text><text xml:space="preserve" font-family="Libertad-Book,Libertad" font-size="24.0" fill="#FEFFFF" transform="matrix(1.00, 0.00, -0.00, -1.00, 56.4, 7.5)">a</text><text xml:space="preserve" font-family="Libertad-Book,Libertad" font-size="24.0" fill="#FEFFFF" transform="matrix(1.00, 0.00, -0.00, -1.00, 68.1, 7.5)">รง</text><text xml:space="preserve" font-family="Libertad-Book,Libertad" font-size="24.0" fill="#FEFFFF" transform="matrix(1.00, 0.00, -0.00, -1.00, 79.4, 7.5)">รฃ</text><text xml:space="preserve" font-family="Libertad-Book,Libertad" font-size="24.0" fill="#FEFFFF" transform="matrix(1.00, 0.00, -0.00, -1.00, 91.0, 7.5)">o</text><text xml:space="preserve" font-family="Libertad-Book,Libertad" font-size="24.0" fill="#FEFFFF" transform="matrix(1.00, 0.00, -0.00, -1.00, 104.4, 7.5)">:</text><text xml:space="preserve" font-family="Libertad-Book,Libertad" font-size="24.0" fill="#FEFFFF" transform="matrix(1.00, 0.00, -0.00, -1.00, 109.4, 7.5)"> </text><text xml:space="preserve" font-family="Libertad-Book,Libertad" font-size="24.0" fill="#FEFFFF" transform="matrix(1.00, 0.00, -0.00, -1.00, 114.7, 7.5)">h</text><text xml:space="preserve" font-family="Libertad-Book,Libertad" font-size="24.0" fill="#FEFFFF" transform="matrix(1.00, 0.00, -0.00, -1.00, 128.1, 7.5)">t</text><text xml:space="preserve" font-family="Libertad-Book,Libertad" font-size="24.0" fill="#FEFFFF" transform="matrix(1.00, 0.00, -0.00, -1.00, 136.9, 7.5)">t</text><text xml:space="preserve" font-family="Libertad-Book,Libertad" font-size="24.0" fill="#FEFFFF" transform="matrix(1.00, 0.00, -0.00, -1.00, 145.5, 7.5)">p</text><text xml:space="preserve" font-family="Libertad-Book,Libertad" font-size="24.0" fill="#FEFFFF" transform="matrix(1.00, 0.00, -0.00, -1.00, 159.2, 7.5)">:</text><text xml:space="preserve" font-family="Libertad-Book,Libertad" font-size="24.0" fill="#FEFFFF" transform="matrix(1.00, 0.00, -0.00, -1.00, 164.2, 7.5)">/</text><text xml:space="preserve" font-family="Libertad-Book,Libertad" font-size="24.0" fill="#FEFFFF" transform="matrix(1.00, 0.00, -0.00, -1.00, 171.6, 7.5)">/</text><text xml:space="preserve" font-family="Libertad-Book,Libertad" font-size="24.0" fill="#FEFFFF" transform="matrix(1.00, 0.00, -0.00, -1.00, 181.3, 7.5)">b</text><text xml:space="preserve" font-family="Libertad-Book,Libertad" font-size="24.0" fill="#FEFFFF" transform="matrix(1.00, 0.00, -0.00, -1.00, 194.8, 7.5)">i</text><text xml:space="preserve" font-family="Libertad-Book,Libertad" font-size="24.0" fill="#FEFFFF" transform="matrix(1.00, 0.00, -0.00, -1.00, 200.6, 7.5)">t</text><text xml:space="preserve" font-family="Libertad-Book,Libertad" font-size="24.0" fill="#FEFFFF" transform="matrix(1.00, 0.00, -0.00, -1.00, 209.5, 7.5)">.</text><text xml:space="preserve" font-family="Libertad-Book,Libertad" font-size="24.0" fill="#FEFFFF" transform="matrix(1.00, 0.00, -0.00, -1.00, 214.5, 7.5)">l</text><text xml:space="preserve" font-family="Libertad-Book,Libertad" font-size="24.0" fill="#FEFFFF" transform="matrix(1.00, 0.00, -0.00, -1.00, 220.3, 7.5)">y</text><text xml:space="preserve" font-family="Libertad-Book,Libertad" font-size="24.0" fill="#FEFFFF" transform="matrix(1.00, 0.00, -0.00, -1.00, 231.4, 7.5)">/</text><text xml:space="preserve" font-family="Libertad-Book,Libertad" font-size="24.0" fill="#FEFFFF" transform="matrix(1.00, 0.00, -0.00, -1.00, 241.1, 7.5)">1</text><text xml:space="preserve" font-family="Libertad-Book,Libertad" font-size="24.0" fill="#FEFFFF" transform="matrix(1.00, 0.00, -0.00, -1.00, 250.7, 7.5)">E</text><text xml:space="preserve" font-family="Libertad-Book,Libertad" font-size="24.0" fill="#FEFFFF" transform="matrix(1.00, 0.00, -0.00, -1.00, 263.0, 7.5)">2</text><text xml:space="preserve" font-family="Libertad-Book,Libertad" font-size="24.0" fill="#FEFFFF" transform="matrix(1.00, 0.00, -0.00, -1.00, 275.1, 7.5)">e</text><text xml:space="preserve" font-family="Libertad-Book,Libertad" font-size="24.0" fill="#FEFFFF" transform="matrix(1.00, 0.00, -0.00, -1.00, 287.3, 7.5)">7</text><text xml:space="preserve" font-family="Libertad-Book,Libertad" font-size="24.0" fill="#FEFFFF" transform="matrix(1.00, 0.00, -0.00, -1.00, 299.4, 7.5)">K</text><text xml:space="preserve" font-family="Libertad-Book,Libertad" font-size="24.0" fill="#FEFFFF" transform="matrix(1.00, 0.00, -0.00, -1.00, 313.3, 7.5)">b</text><g><clipPath id="clip0x7fee23245c60"><path d="M 113.7 3.4 L 326.8 3.4 L 326.8 6.9 L 113.7 6.9 Z M 113.7 3.4 "></path></clipPath><g clip-path="url(#clip0x7fee23245c60)"><path d="M 449.9 23.3 L 662.0 23.3 " fill="none" stroke="#FEFFFF" stroke-width="1.56" transform="matrix(1.00, 0.00, 0.00, -1.00, -335.2, 28.5)"></path></g></g></g></svg>