<?xml version="1.0" encoding="UTF-8" standalone="no"?><svg xmlns="http://www.w3.org/2000/svg" xmlns:xlink="http://www.w3.org/1999/xlink" clip-rule="evenodd" stroke-miterlimit="10" viewBox="0 0 1920 1080"><desc>SVG generated by Keynote</desc><defs></defs><g transform="matrix(1.00, 0.00, -0.00, -1.00, 0.0, 1080.0)"><path d="M 0.0 1080.0 L 1920.0 1080.0 L 1920.0 0.0 L 0.0 0.0 Z M 0.0 1080.0 " fill="#000000"></path><image xlink:href="02914FC1075D42694E639BF8CB9587E5.png" width="720.00" height="1280.00" transform="matrix(0.84, 0.00, -0.00, -0.84, 656.2, 1080.0)"></image><text xml:space="preserve" font-family="Libertad-Book,Libertad" font-size="24.0" fill="#FEFFFF" transform="matrix(1.00, 0.00, -0.00, -1.00, 1572.3, 24.5)"> </text><text xml:space="preserve" font-family="Libertad-Book,Libertad" font-size="24.0" fill="#FEFFFF" transform="matrix(1.00, 0.00, -0.00, -1.00, 1577.0, 24.5)">A</text><text xml:space="preserve" font-family="Libertad-Book,Libertad" font-size="24.0" fill="#FEFFFF" transform="matrix(1.00, 0.00, -0.00, -1.00, 1591.4, 24.5)">n</text><text xml:space="preserve" font-family="Libertad-Book,Libertad" font-size="24.0" fill="#FEFFFF" transform="matrix(1.00, 0.00, -0.00, -1.00, 1604.9, 24.5)">i</text><text xml:space="preserve" font-family="Libertad-Book,Libertad" font-size="24.0" fill="#FEFFFF" transform="matrix(1.00, 0.00, -0.00, -1.00, 1610.7, 24.5)">m</text><text xml:space="preserve" font-family="Libertad-Book,Libertad" font-size="24.0" fill="#FEFFFF" transform="matrix(1.00, 0.00, -0.00, -1.00, 1631.4, 24.5)">a</text><text xml:space="preserve" font-family="Libertad-Book,Libertad" font-size="24.0" fill="#FEFFFF" transform="matrix(1.00, 0.00, -0.00, -1.00, 1643.1, 24.5)">รง</text><text xml:space="preserve" font-family="Libertad-Book,Libertad" font-size="24.0" fill="#FEFFFF" transform="matrix(1.00, 0.00, -0.00, -1.00, 1654.4, 24.5)">รฃ</text><text xml:space="preserve" font-family="Libertad-Book,Libertad" font-size="24.0" fill="#FEFFFF" transform="matrix(1.00, 0.00, -0.00, -1.00, 1666.0, 24.5)">o</text><text xml:space="preserve" font-family="Libertad-Book,Libertad" font-size="24.0" fill="#FEFFFF" transform="matrix(1.00, 0.00, -0.00, -1.00, 1679.4, 24.5)">:</text><text xml:space="preserve" font-family="Libertad-Book,Libertad" font-size="24.0" fill="#FEFFFF" transform="matrix(1.00, 0.00, -0.00, -1.00, 1684.4, 24.5)"> </text><text xml:space="preserve" font-family="Libertad-Book,Libertad" font-size="24.0" fill="#FEFFFF" transform="matrix(1.00, 0.00, -0.00, -1.00, 1689.7, 24.5)">h</text><text xml:space="preserve" font-family="Libertad-Book,Libertad" font-size="24.0" fill="#FEFFFF" transform="matrix(1.00, 0.00, -0.00, -1.00, 1703.1, 24.5)">t</text><text xml:space="preserve" font-family="Libertad-Book,Libertad" font-size="24.0" fill="#FEFFFF" transform="matrix(1.00, 0.00, -0.00, -1.00, 1711.9, 24.5)">t</text><text xml:space="preserve" font-family="Libertad-Book,Libertad" font-size="24.0" fill="#FEFFFF" transform="matrix(1.00, 0.00, -0.00, -1.00, 1720.5, 24.5)">p</text><text xml:space="preserve" font-family="Libertad-Book,Libertad" font-size="24.0" fill="#FEFFFF" transform="matrix(1.00, 0.00, -0.00, -1.00, 1734.2, 24.5)">:</text><text xml:space="preserve" font-family="Libertad-Book,Libertad" font-size="24.0" fill="#FEFFFF" transform="matrix(1.00, 0.00, -0.00, -1.00, 1739.2, 24.5)">/</text><text xml:space="preserve" font-family="Libertad-Book,Libertad" font-size="24.0" fill="#FEFFFF" transform="matrix(1.00, 0.00, -0.00, -1.00, 1746.6, 24.5)">/</text><text xml:space="preserve" font-family="Libertad-Book,Libertad" font-size="24.0" fill="#FEFFFF" transform="matrix(1.00, 0.00, -0.00, -1.00, 1756.3, 24.5)">b</text><text xml:space="preserve" font-family="Libertad-Book,Libertad" font-size="24.0" fill="#FEFFFF" transform="matrix(1.00, 0.00, -0.00, -1.00, 1769.8, 24.5)">i</text><text xml:space="preserve" font-family="Libertad-Book,Libertad" font-size="24.0" fill="#FEFFFF" transform="matrix(1.00, 0.00, -0.00, -1.00, 1775.6, 24.5)">t</text><text xml:space="preserve" font-family="Libertad-Book,Libertad" font-size="24.0" fill="#FEFFFF" transform="matrix(1.00, 0.00, -0.00, -1.00, 1784.5, 24.5)">.</text><text xml:space="preserve" font-family="Libertad-Book,Libertad" font-size="24.0" fill="#FEFFFF" transform="matrix(1.00, 0.00, -0.00, -1.00, 1789.5, 24.5)">l</text><text xml:space="preserve" font-family="Libertad-Book,Libertad" font-size="24.0" fill="#FEFFFF" transform="matrix(1.00, 0.00, -0.00, -1.00, 1795.3, 24.5)">y</text><text xml:space="preserve" font-family="Libertad-Book,Libertad" font-size="24.0" fill="#FEFFFF" transform="matrix(1.00, 0.00, -0.00, -1.00, 1806.4, 24.5)">/</text><text xml:space="preserve" font-family="Libertad-Book,Libertad" font-size="24.0" fill="#FEFFFF" transform="matrix(1.00, 0.00, -0.00, -1.00, 1816.1, 24.5)">1</text><text xml:space="preserve" font-family="Libertad-Book,Libertad" font-size="24.0" fill="#FEFFFF" transform="matrix(1.00, 0.00, -0.00, -1.00, 1825.7, 24.5)">E</text><text xml:space="preserve" font-family="Libertad-Book,Libertad" font-size="24.0" fill="#FEFFFF" transform="matrix(1.00, 0.00, -0.00, -1.00, 1838.0, 24.5)">2</text><text xml:space="preserve" font-family="Libertad-Book,Libertad" font-size="24.0" fill="#FEFFFF" transform="matrix(1.00, 0.00, -0.00, -1.00, 1850.1, 24.5)">e</text><text xml:space="preserve" font-family="Libertad-Book,Libertad" font-size="24.0" fill="#FEFFFF" transform="matrix(1.00, 0.00, -0.00, -1.00, 1862.3, 24.5)">7</text><text xml:space="preserve" font-family="Libertad-Book,Libertad" font-size="24.0" fill="#FEFFFF" transform="matrix(1.00, 0.00, -0.00, -1.00, 1874.4, 24.5)">K</text><text xml:space="preserve" font-family="Libertad-Book,Libertad" font-size="24.0" fill="#FEFFFF" transform="matrix(1.00, 0.00, -0.00, -1.00, 1888.3, 24.5)">b</text><g><clipPath id="clip0x7fee234844e0"><path d="M 1688.7 20.4 L 1901.8 20.4 L 1901.8 23.9 L 1688.7 23.9 Z M 1688.7 20.4 "></path></clipPath><g clip-path="url(#clip0x7fee234844e0)"><path d="M 449.9 23.3 L 662.0 23.3 " fill="none" stroke="#FEFFFF" stroke-width="1.56" transform="matrix(1.00, 0.00, 0.00, -1.00, 1239.8, 45.5)"></path></g></g></g></svg>