<?xml version="1.0" encoding="UTF-8" standalone="no"?><svg xmlns="http://www.w3.org/2000/svg" xmlns:xlink="http://www.w3.org/1999/xlink" clip-rule="evenodd" stroke-miterlimit="10" viewBox="0 0 785 188"><desc>SVG generated by Keynote</desc><defs></defs><g transform="matrix(1.00, 0.00, -0.00, -1.00, 0.0, 188.0)"><g><clipPath id="clip0x7fee1f4e0710"><path d="M 1.0 2.0 L 783.0 2.0 L 783.0 186.0 L 1.0 186.0 Z M 1.0 2.0 "></path></clipPath><g clip-path="url(#clip0x7fee1f4e0710)"><path d="M 492.1 9.0 L 438.7 9.0 L 487.5 95.6 L 438.7 182.9 L 492.1 182.9 L 520.3 132.7 L 548.3 182.9 L 601.7 182.9 L 552.8 95.9 L 601.7 9.0 L 548.1 8.9 L 520.2 58.5 L 492.1 9.0 " fill="#FFFEFE"></path><path d="M 363.6 140.4 L 363.6 118.3 L 417.0 118.3 L 417.0 76.9 L 363.9 76.9 C 363.9 76.9 363.9 71.3 363.9 64.5 C 363.9 57.1 370.1 52.1 376.3 52.1 C 385.1 52.1 425.2 52.2 425.2 52.2 L 425.2 8.9 C 425.2 8.9 378.5 8.9 353.9 8.9 C 333.4 8.9 315.3 25.4 315.3 47.4 C 315.3 72.2 315.3 183.0 315.3 183.0 L 425.2 183.0 L 425.2 140.4 L 363.6 140.4 " fill="#FFFEFE"></path><path d="M 121.5 182.9 L 174.9 182.9 L 87.9 2.0 L 61.2 57.6 L 121.5 182.9 " fill="#FFFEFE"></path></g></g><g><clipPath id="clip0x7fee1f4e42d0"><path d="M 1.2 184.4 L 782.0 184.4 L 782.0 2.0 L 1.2 2.0 Z M 1.2 184.4 "></path></clipPath><g clip-path="url(#clip0x7fee1f4e42d0)"><g><clipPath id="clip0x7fee1f4e4a40"><path d="M 1.0 2.0 L 783.0 2.0 L 783.0 186.0 L 1.0 186.0 Z M 1.0 2.0 "></path></clipPath><g clip-path="url(#clip0x7fee1f4e4a40)"><path d="M 210.7 140.3 L 171.1 140.3 L 191.5 182.9 L 299.0 182.9 L 299.0 140.3 L 259.3 140.3 L 259.3 8.9 L 210.7 8.9 L 210.7 140.3 " fill="#FFFEFE"></path><path d="M 52.9 74.9 L 1.0 183.0 L 54.1 183.0 L 79.6 130.5 L 52.9 74.9 " fill="#FFFEFE"></path></g></g></g></g><g><clipPath id="clip0x7fee1f4e5c50"><path d="M 1.0 2.0 L 783.0 2.0 L 783.0 186.0 L 1.0 186.0 Z M 1.0 2.0 "></path></clipPath><g clip-path="url(#clip0x7fee1f4e5c50)"><path d="M 657.2 91.8 L 625.6 91.8 L 625.6 180.8 C 625.6 182.8 624.0 184.4 622.0 184.4 C 620.0 184.4 618.4 182.8 618.4 180.8 L 618.4 84.6 L 657.2 84.6 C 659.2 84.6 660.8 86.2 660.8 88.2 C 660.8 90.2 659.2 91.8 657.2 91.8 " fill="#FFFEFE"></path><path d="M 677.9 130.5 L 677.9 161.4 C 678.0 162.7 679.2 177.2 693.7 177.2 C 708.1 177.2 709.4 163.3 709.6 161.4 L 709.6 130.5 L 677.9 130.5 Z M 713.6 172.8 C 710.8 178.1 705.1 184.4 693.7 184.4 C 676.4 184.4 671.1 169.5 670.7 161.6 L 670.7 126.9 C 670.7 126.9 670.7 126.9 670.7 126.9 L 670.7 126.9 L 670.7 88.2 C 670.7 86.2 672.3 84.6 674.3 84.6 C 676.3 84.6 677.9 86.2 677.9 88.2 L 677.9 123.3 L 709.6 123.3 L 709.6 88.2 C 709.6 86.2 711.2 84.6 713.2 84.6 C 715.2 84.6 716.8 86.2 716.8 88.2 L 716.8 161.5 L 716.8 161.6 C 716.8 161.9 716.5 167.3 713.6 172.8 " fill="#FFFEFE"></path><path d="M 761.6 91.8 L 742.2 91.8 L 742.2 132.8 L 762.4 132.8 C 763.1 132.7 765.9 132.0 768.6 129.9 C 772.7 126.6 774.8 121.3 774.8 114.3 C 774.8 96.5 766.2 91.8 761.6 91.8 Z M 758.7 177.2 C 760.6 176.9 773.4 174.3 773.4 158.7 C 773.4 143.4 763.9 140.4 762.3 140.0 L 742.2 140.0 L 742.2 177.2 L 758.7 177.2 Z M 771.4 136.7 C 776.2 140.5 780.7 147.4 780.7 158.7 C 780.7 176.9 766.8 183.4 759.4 184.4 L 735.0 184.4 L 735.0 84.6 L 761.6 84.6 C 768.7 84.6 782.0 90.8 782.0 114.3 C 782.0 126.2 776.9 133.1 771.4 136.7 " fill="#FFFEFE"></path></g></g></g></svg>