<?xml version="1.0" encoding="UTF-8" standalone="no"?><svg xmlns="http://www.w3.org/2000/svg" xmlns:xlink="http://www.w3.org/1999/xlink" clip-rule="evenodd" stroke-miterlimit="10" viewBox="0 0 1920 1080"><desc>SVG generated by Keynote</desc><defs></defs><g transform="matrix(1.00, 0.00, -0.00, -1.00, 0.0, 1080.0)"><path d="M 0.0 1080.0 L 1920.0 1080.0 L 1920.0 0.0 L 0.0 0.0 Z M 0.0 1080.0 " fill="#0AABCC"></path><g><clipPath id="clip0x6000010afa20"><path d="M 599.0 448.0 L 1381.0 448.0 L 1381.0 632.0 L 599.0 632.0 Z M 599.0 448.0 "></path></clipPath><g clip-path="url(#clip0x6000010afa20)"><path d="M 1090.1 455.0 L 1036.7 455.0 L 1085.5 541.6 L 1036.7 628.9 L 1090.1 628.9 L 1118.3 578.7 L 1146.3 628.9 L 1199.7 628.9 L 1150.8 541.9 L 1199.7 455.0 L 1146.1 454.9 L 1118.2 504.5 L 1090.1 455.0 " fill="#FFFEFE"></path><path d="M 961.6 586.4 L 961.6 564.3 L 1015.0 564.3 L 1015.0 522.9 L 961.9 522.9 C 961.9 522.9 961.9 517.3 961.9 510.5 C 961.9 503.1 968.1 498.1 974.3 498.1 C 983.1 498.1 1023.2 498.2 1023.2 498.2 L 1023.2 454.9 C 1023.2 454.9 976.5 454.9 951.9 454.9 C 931.4 454.9 913.3 471.4 913.3 493.4 C 913.3 518.2 913.3 629.0 913.3 629.0 L 1023.2 629.0 L 1023.2 586.4 L 961.6 586.4 " fill="#FFFEFE"></path><path d="M 719.5 628.9 L 772.9 628.9 L 685.9 448.0 L 659.2 503.6 L 719.5 628.9 " fill="#FFFEFE"></path></g></g><g><clipPath id="clip0x600000eb1e80"><path d="M 599.2 630.4 L 1380.0 630.4 L 1380.0 448.0 L 599.2 448.0 Z M 599.2 630.4 "></path></clipPath><g clip-path="url(#clip0x600000eb1e80)"><g><clipPath id="clip0x6000010b41c0"><path d="M 599.0 448.0 L 1381.0 448.0 L 1381.0 632.0 L 599.0 632.0 Z M 599.0 448.0 "></path></clipPath><g clip-path="url(#clip0x6000010b41c0)"><path d="M 808.7 586.3 L 769.1 586.3 L 789.5 628.9 L 897.0 628.9 L 897.0 586.3 L 857.3 586.3 L 857.3 454.9 L 808.7 454.9 L 808.7 586.3 " fill="#FFFEFE"></path><path d="M 650.9 520.9 L 599.0 629.0 L 652.1 629.0 L 677.6 576.5 L 650.9 520.9 " fill="#FFFEFE"></path></g></g></g></g><g><clipPath id="clip0x600000ea81c0"><path d="M 599.0 448.0 L 1381.0 448.0 L 1381.0 632.0 L 599.0 632.0 Z M 599.0 448.0 "></path></clipPath><g clip-path="url(#clip0x600000ea81c0)"><path d="M 1255.2 537.8 L 1223.6 537.8 L 1223.6 626.8 C 1223.6 628.8 1222.0 630.4 1220.0 630.4 C 1218.0 630.4 1216.4 628.8 1216.4 626.8 L 1216.4 530.6 L 1255.2 530.6 C 1257.2 530.6 1258.8 532.2 1258.8 534.2 C 1258.8 536.2 1257.2 537.8 1255.2 537.8 " fill="#FFFEFE"></path><path d="M 1275.9 576.5 L 1275.9 607.4 C 1276.0 608.7 1277.2 623.2 1291.7 623.2 C 1306.1 623.2 1307.4 609.3 1307.6 607.4 L 1307.6 576.5 L 1275.9 576.5 Z M 1311.6 618.8 C 1308.8 624.1 1303.1 630.4 1291.7 630.4 C 1274.4 630.4 1269.1 615.5 1268.7 607.6 L 1268.7 572.9 C 1268.7 572.9 1268.7 572.9 1268.7 572.9 L 1268.7 572.9 L 1268.7 534.2 C 1268.7 532.2 1270.3 530.6 1272.3 530.6 C 1274.3 530.6 1275.9 532.2 1275.9 534.2 L 1275.9 569.3 L 1307.6 569.3 L 1307.6 534.2 C 1307.6 532.2 1309.2 530.6 1311.2 530.6 C 1313.2 530.6 1314.8 532.2 1314.8 534.2 L 1314.8 607.5 L 1314.8 607.6 C 1314.8 607.9 1314.5 613.3 1311.6 618.8 " fill="#FFFEFE"></path><path d="M 1359.6 537.8 L 1340.2 537.8 L 1340.2 578.8 L 1360.4 578.8 C 1361.1 578.7 1363.9 578.0 1366.6 575.9 C 1370.7 572.6 1372.8 567.3 1372.8 560.3 C 1372.8 542.5 1364.2 537.8 1359.6 537.8 Z M 1356.7 623.2 C 1358.6 622.9 1371.4 620.3 1371.4 604.7 C 1371.4 589.4 1361.9 586.4 1360.3 586.0 L 1340.2 586.0 L 1340.2 623.2 L 1356.7 623.2 Z M 1369.4 582.7 C 1374.2 586.5 1378.7 593.4 1378.7 604.7 C 1378.7 622.9 1364.8 629.4 1357.4 630.4 L 1333.0 630.4 L 1333.0 530.6 L 1359.6 530.6 C 1366.7 530.6 1380.0 536.8 1380.0 560.3 C 1380.0 572.2 1374.9 579.1 1369.4 582.7 " fill="#FFFEFE"></path></g></g><g><clipPath id="clip0x600000eb8480"><path d="M 599.0 448.0 L 1381.0 448.0 L 1381.0 632.0 L 599.0 632.0 Z M 599.0 448.0 "></path></clipPath><g clip-path="url(#clip0x600000eb8480)"><path d="M 1090.1 455.0 L 1036.7 455.0 L 1085.5 541.6 L 1036.7 628.9 L 1090.1 628.9 L 1118.3 578.7 L 1146.3 628.9 L 1199.7 628.9 L 1150.8 541.9 L 1199.7 455.0 L 1146.1 454.9 L 1118.2 504.5 L 1090.1 455.0 " fill="#FFFEFE"></path><path d="M 961.6 586.4 L 961.6 564.3 L 1015.0 564.3 L 1015.0 522.9 L 961.9 522.9 C 961.9 522.9 961.9 517.3 961.9 510.5 C 961.9 503.1 968.1 498.1 974.3 498.1 C 983.1 498.1 1023.2 498.2 1023.2 498.2 L 1023.2 454.9 C 1023.2 454.9 976.5 454.9 951.9 454.9 C 931.4 454.9 913.3 471.4 913.3 493.4 C 913.3 518.2 913.3 629.0 913.3 629.0 L 1023.2 629.0 L 1023.2 586.4 L 961.6 586.4 " fill="#FFFEFE"></path><path d="M 719.5 628.9 L 772.9 628.9 L 685.9 448.0 L 659.2 503.6 L 719.5 628.9 " fill="#FFFEFE"></path></g></g><g><clipPath id="clip0x600000caa3e0"><path d="M 599.2 630.4 L 1380.0 630.4 L 1380.0 448.0 L 599.2 448.0 Z M 599.2 630.4 "></path></clipPath><g clip-path="url(#clip0x600000caa3e0)"><g><clipPath id="clip0x6000010b21e0"><path d="M 599.0 448.0 L 1381.0 448.0 L 1381.0 632.0 L 599.0 632.0 Z M 599.0 448.0 "></path></clipPath><g clip-path="url(#clip0x6000010b21e0)"><path d="M 808.7 586.3 L 769.1 586.3 L 789.5 628.9 L 897.0 628.9 L 897.0 586.3 L 857.3 586.3 L 857.3 454.9 L 808.7 454.9 L 808.7 586.3 " fill="#FFFEFE"></path><path d="M 650.9 520.9 L 599.0 629.0 L 652.1 629.0 L 677.6 576.5 L 650.9 520.9 " fill="#FFFEFE"></path></g></g></g></g><g><clipPath id="clip0x6000010babe0"><path d="M 599.0 448.0 L 1381.0 448.0 L 1381.0 632.0 L 599.0 632.0 Z M 599.0 448.0 "></path></clipPath><g clip-path="url(#clip0x6000010babe0)"><path d="M 1255.2 537.8 L 1223.6 537.8 L 1223.6 626.8 C 1223.6 628.8 1222.0 630.4 1220.0 630.4 C 1218.0 630.4 1216.4 628.8 1216.4 626.8 L 1216.4 530.6 L 1255.2 530.6 C 1257.2 530.6 1258.8 532.2 1258.8 534.2 C 1258.8 536.2 1257.2 537.8 1255.2 537.8 " fill="#FFFEFE"></path><path d="M 1275.9 576.5 L 1275.9 607.4 C 1276.0 608.7 1277.2 623.2 1291.7 623.2 C 1306.1 623.2 1307.4 609.3 1307.6 607.4 L 1307.6 576.5 L 1275.9 576.5 Z M 1311.6 618.8 C 1308.8 624.1 1303.1 630.4 1291.7 630.4 C 1274.4 630.4 1269.1 615.5 1268.7 607.6 L 1268.7 572.9 C 1268.7 572.9 1268.7 572.9 1268.7 572.9 L 1268.7 572.9 L 1268.7 534.2 C 1268.7 532.2 1270.3 530.6 1272.3 530.6 C 1274.3 530.6 1275.9 532.2 1275.9 534.2 L 1275.9 569.3 L 1307.6 569.3 L 1307.6 534.2 C 1307.6 532.2 1309.2 530.6 1311.2 530.6 C 1313.2 530.6 1314.8 532.2 1314.8 534.2 L 1314.8 607.5 L 1314.8 607.6 C 1314.8 607.9 1314.5 613.3 1311.6 618.8 " fill="#FFFEFE"></path><path d="M 1359.6 537.8 L 1340.2 537.8 L 1340.2 578.8 L 1360.4 578.8 C 1361.1 578.7 1363.9 578.0 1366.6 575.9 C 1370.7 572.6 1372.8 567.3 1372.8 560.3 C 1372.8 542.5 1364.2 537.8 1359.6 537.8 Z M 1356.7 623.2 C 1358.6 622.9 1371.4 620.3 1371.4 604.7 C 1371.4 589.4 1361.9 586.4 1360.3 586.0 L 1340.2 586.0 L 1340.2 623.2 L 1356.7 623.2 Z M 1369.4 582.7 C 1374.2 586.5 1378.7 593.4 1378.7 604.7 C 1378.7 622.9 1364.8 629.4 1357.4 630.4 L 1333.0 630.4 L 1333.0 530.6 L 1359.6 530.6 C 1366.7 530.6 1380.0 536.8 1380.0 560.3 C 1380.0 572.2 1374.9 579.1 1369.4 582.7 " fill="#FFFEFE"></path></g></g><g><clipPath id="clip0x6000010a5be0"><path d="M 599.0 448.0 L 1381.0 448.0 L 1381.0 632.0 L 599.0 632.0 Z M 599.0 448.0 "></path></clipPath><g clip-path="url(#clip0x6000010a5be0)"><path d="M 1090.1 455.0 L 1036.7 455.0 L 1085.5 541.6 L 1036.7 628.9 L 1090.1 628.9 L 1118.3 578.7 L 1146.3 628.9 L 1199.7 628.9 L 1150.8 541.9 L 1199.7 455.0 L 1146.1 454.9 L 1118.2 504.5 L 1090.1 455.0 " fill="#FFFEFE"></path><path d="M 961.6 586.4 L 961.6 564.3 L 1015.0 564.3 L 1015.0 522.9 L 961.9 522.9 C 961.9 522.9 961.9 517.3 961.9 510.5 C 961.9 503.1 968.1 498.1 974.3 498.1 C 983.1 498.1 1023.2 498.2 1023.2 498.2 L 1023.2 454.9 C 1023.2 454.9 976.5 454.9 951.9 454.9 C 931.4 454.9 913.3 471.4 913.3 493.4 C 913.3 518.2 913.3 629.0 913.3 629.0 L 1023.2 629.0 L 1023.2 586.4 L 961.6 586.4 " fill="#FFFEFE"></path><path d="M 719.5 628.9 L 772.9 628.9 L 685.9 448.0 L 659.2 503.6 L 719.5 628.9 " fill="#FFFEFE"></path></g></g><g><clipPath id="clip0x600000aaf840"><path d="M 599.2 630.4 L 1380.0 630.4 L 1380.0 448.0 L 599.2 448.0 Z M 599.2 630.4 "></path></clipPath><g clip-path="url(#clip0x600000aaf840)"><g><clipPath id="clip0x6000010a51c0"><path d="M 599.0 448.0 L 1381.0 448.0 L 1381.0 632.0 L 599.0 632.0 Z M 599.0 448.0 "></path></clipPath><g clip-path="url(#clip0x6000010a51c0)"><path d="M 808.7 586.3 L 769.1 586.3 L 789.5 628.9 L 897.0 628.9 L 897.0 586.3 L 857.3 586.3 L 857.3 454.9 L 808.7 454.9 L 808.7 586.3 " fill="#FFFEFE"></path><path d="M 650.9 520.9 L 599.0 629.0 L 652.1 629.0 L 677.6 576.5 L 650.9 520.9 " fill="#FFFEFE"></path></g></g></g></g><g><clipPath id="clip0x6080010b7b20"><path d="M 599.0 448.0 L 1381.0 448.0 L 1381.0 632.0 L 599.0 632.0 Z M 599.0 448.0 "></path></clipPath><g clip-path="url(#clip0x6080010b7b20)"><path d="M 1255.2 537.8 L 1223.6 537.8 L 1223.6 626.8 C 1223.6 628.8 1222.0 630.4 1220.0 630.4 C 1218.0 630.4 1216.4 628.8 1216.4 626.8 L 1216.4 530.6 L 1255.2 530.6 C 1257.2 530.6 1258.8 532.2 1258.8 534.2 C 1258.8 536.2 1257.2 537.8 1255.2 537.8 " fill="#FFFEFE"></path><path d="M 1275.9 576.5 L 1275.9 607.4 C 1276.0 608.7 1277.2 623.2 1291.7 623.2 C 1306.1 623.2 1307.4 609.3 1307.6 607.4 L 1307.6 576.5 L 1275.9 576.5 Z M 1311.6 618.8 C 1308.8 624.1 1303.1 630.4 1291.7 630.4 C 1274.4 630.4 1269.1 615.5 1268.7 607.6 L 1268.7 572.9 C 1268.7 572.9 1268.7 572.9 1268.7 572.9 L 1268.7 572.9 L 1268.7 534.2 C 1268.7 532.2 1270.3 530.6 1272.3 530.6 C 1274.3 530.6 1275.9 532.2 1275.9 534.2 L 1275.9 569.3 L 1307.6 569.3 L 1307.6 534.2 C 1307.6 532.2 1309.2 530.6 1311.2 530.6 C 1313.2 530.6 1314.8 532.2 1314.8 534.2 L 1314.8 607.5 L 1314.8 607.6 C 1314.8 607.9 1314.5 613.3 1311.6 618.8 " fill="#FFFEFE"></path><path d="M 1359.6 537.8 L 1340.2 537.8 L 1340.2 578.8 L 1360.4 578.8 C 1361.1 578.7 1363.9 578.0 1366.6 575.9 C 1370.7 572.6 1372.8 567.3 1372.8 560.3 C 1372.8 542.5 1364.2 537.8 1359.6 537.8 Z M 1356.7 623.2 C 1358.6 622.9 1371.4 620.3 1371.4 604.7 C 1371.4 589.4 1361.9 586.4 1360.3 586.0 L 1340.2 586.0 L 1340.2 623.2 L 1356.7 623.2 Z M 1369.4 582.7 C 1374.2 586.5 1378.7 593.4 1378.7 604.7 C 1378.7 622.9 1364.8 629.4 1357.4 630.4 L 1333.0 630.4 L 1333.0 530.6 L 1359.6 530.6 C 1366.7 530.6 1380.0 536.8 1380.0 560.3 C 1380.0 572.2 1374.9 579.1 1369.4 582.7 " fill="#FFFEFE"></path></g></g></g></svg>