<?xml version="1.0" encoding="UTF-8" standalone="no"?><svg xmlns="http://www.w3.org/2000/svg" xmlns:xlink="http://www.w3.org/1999/xlink" clip-rule="evenodd" stroke-miterlimit="10" viewBox="0 0 1920 1080"><desc>SVG generated by Keynote</desc><defs></defs><g transform="matrix(1.00, 0.00, -0.00, -1.00, 0.0, 1080.0)"><path d="M 0.0 1080.0 L 1920.0 1080.0 L 1920.0 0.0 L 0.0 0.0 Z M 0.0 1080.0 " fill="#000000"></path><text xml:space="preserve" font-family="Libertad-ExtraBoldItalic,Libertad" font-style="italic" font-weight="bold" font-size="98.4" fill="#FEFFFF" transform="matrix(1.00, 0.00, -0.00, -1.00, 695.9, 753.6)">e</text><text xml:space="preserve" font-family="Libertad-ExtraBoldItalic,Libertad" font-style="italic" font-weight="bold" font-size="98.4" fill="#FEFFFF" transform="matrix(1.00, 0.00, -0.00, -1.00, 735.8, 753.6)">x</text><text xml:space="preserve" font-family="Libertad-ExtraBoldItalic,Libertad" font-style="italic" font-weight="bold" font-size="98.4" fill="#FEFFFF" transform="matrix(1.00, 0.00, -0.00, -1.00, 786.1, 753.6)">e</text><text xml:space="preserve" font-family="Libertad-ExtraBoldItalic,Libertad" font-style="italic" font-weight="bold" font-size="98.4" fill="#FEFFFF" transform="matrix(1.00, 0.00, -0.00, -1.00, 827.9, 753.6)">m</text><text xml:space="preserve" font-family="Libertad-ExtraBoldItalic,Libertad" font-style="italic" font-weight="bold" font-size="98.4" fill="#FEFFFF" transform="matrix(1.00, 0.00, -0.00, -1.00, 910.1, 753.6)">p</text><text xml:space="preserve" font-family="Libertad-ExtraBoldItalic,Libertad" font-style="italic" font-weight="bold" font-size="98.4" fill="#FEFFFF" transform="matrix(1.00, 0.00, -0.00, -1.00, 962.6, 753.6)">l</text><text xml:space="preserve" font-family="Libertad-ExtraBoldItalic,Libertad" font-style="italic" font-weight="bold" font-size="98.4" fill="#FEFFFF" transform="matrix(1.00, 0.00, -0.00, -1.00, 988.5, 753.6)">o</text><text xml:space="preserve" font-family="Libertad-ExtraBoldItalic,Libertad" font-style="italic" font-weight="bold" font-size="98.4" fill="#FEFFFF" transform="matrix(1.00, 0.00, -0.00, -1.00, 1035.6, 753.6)"> </text><text xml:space="preserve" font-family="Libertad-ExtraBoldItalic,Libertad" font-style="italic" font-weight="bold" font-size="98.4" fill="#FEFFFF" transform="matrix(1.00, 0.00, -0.00, -1.00, 1056.2, 753.6)">c</text><text xml:space="preserve" font-family="Libertad-ExtraBoldItalic,Libertad" font-style="italic" font-weight="bold" font-size="98.4" fill="#FEFFFF" transform="matrix(1.00, 0.00, -0.00, -1.00, 1094.8, 753.6)">o</text><text xml:space="preserve" font-family="Libertad-ExtraBoldItalic,Libertad" font-style="italic" font-weight="bold" font-size="98.4" fill="#FEFFFF" transform="matrix(1.00, 0.00, -0.00, -1.00, 1141.9, 753.6)">m</text><text xml:space="preserve" font-family="Libertad-ExtraBoldItalic,Libertad" font-style="italic" font-weight="bold" font-size="98.4" fill="#FEFFFF" transform="matrix(1.00, 0.00, -0.00, -1.00, 1224.1, 753.6)"> </text><text xml:space="preserve" font-family="Libertad-ExtraBoldItalic,Libertad" font-style="italic" font-weight="bold" font-size="98.4" fill="#FEFFFF" transform="matrix(1.00, 0.00, -0.00, -1.00, 1244.8, 753.6)"> </text><text xml:space="preserve" font-family="Libertad-ExtraBoldItalic,Libertad" font-style="italic" font-weight="bold" font-size="98.4" fill="#FEFFFF" transform="matrix(1.00, 0.00, -0.00, -1.00, 636.9, 654.6)">e</text><text xml:space="preserve" font-family="Libertad-ExtraBoldItalic,Libertad" font-style="italic" font-weight="bold" font-size="98.4" fill="#FEFFFF" transform="matrix(1.00, 0.00, -0.00, -1.00, 678.6, 654.6)"> </text><text xml:space="preserve" font-family="Libertad-ExtraBoldItalic,Libertad" font-style="italic" font-weight="bold" font-size="98.4" fill="#FEFFFF" transform="matrix(1.00, 0.00, -0.00, -1.00, 697.3, 654.6)">s</text><text xml:space="preserve" font-family="Libertad-ExtraBoldItalic,Libertad" font-style="italic" font-weight="bold" font-size="98.4" fill="#FEFFFF" transform="matrix(1.00, 0.00, -0.00, -1.00, 734.1, 654.6)">e</text><text xml:space="preserve" font-family="Libertad-ExtraBoldItalic,Libertad" font-style="italic" font-weight="bold" font-size="98.4" fill="#FEFFFF" transform="matrix(1.00, 0.00, -0.00, -1.00, 775.9, 654.6)">m</text><text xml:space="preserve" font-family="Libertad-ExtraBoldItalic,Libertad" font-style="italic" font-weight="bold" font-size="98.4" fill="#FEFFFF" transform="matrix(1.00, 0.00, -0.00, -1.00, 858.2, 654.6)"> </text><text xml:space="preserve" font-family="Libertad-ExtraBoldItalic,Libertad" font-style="italic" font-weight="bold" font-size="98.4" fill="#FEFFFF" transform="matrix(1.00, 0.00, -0.00, -1.00, 878.8, 654.6)">a</text><text xml:space="preserve" font-family="Libertad-ExtraBoldItalic,Libertad" font-style="italic" font-weight="bold" font-size="98.4" fill="#FEFFFF" transform="matrix(1.00, 0.00, -0.00, -1.00, 931.2, 654.6)">n</text><text xml:space="preserve" font-family="Libertad-ExtraBoldItalic,Libertad" font-style="italic" font-weight="bold" font-size="98.4" fill="#FEFFFF" transform="matrix(1.00, 0.00, -0.00, -1.00, 985.2, 654.6)">i</text><text xml:space="preserve" font-family="Libertad-ExtraBoldItalic,Libertad" font-style="italic" font-weight="bold" font-size="98.4" fill="#FEFFFF" transform="matrix(1.00, 0.00, -0.00, -1.00, 1011.1, 654.6)">m</text><text xml:space="preserve" font-family="Libertad-ExtraBoldItalic,Libertad" font-style="italic" font-weight="bold" font-size="98.4" fill="#FEFFFF" transform="matrix(1.00, 0.00, -0.00, -1.00, 1093.4, 654.6)">a</text><text xml:space="preserve" font-family="Libertad-ExtraBoldItalic,Libertad" font-style="italic" font-weight="bold" font-size="98.4" fill="#FEFFFF" transform="matrix(1.00, 0.00, -0.00, -1.00, 1145.7, 654.6)">ç</text><text xml:space="preserve" font-family="Libertad-ExtraBoldItalic,Libertad" font-style="italic" font-weight="bold" font-size="98.4" fill="#FEFFFF" transform="matrix(1.00, 0.00, -0.00, -1.00, 1183.6, 654.6)">ã</text><text xml:space="preserve" font-family="Libertad-ExtraBoldItalic,Libertad" font-style="italic" font-weight="bold" font-size="98.4" fill="#FEFFFF" transform="matrix(1.00, 0.00, -0.00, -1.00, 1236.0, 654.6)">o</text><text xml:space="preserve" font-family="Libertad-ExtraBoldItalic,Libertad" font-style="italic" font-weight="bold" font-size="98.4" fill="#FEFFFF" transform="matrix(1.00, 0.00, -0.00, -1.00, 1283.0, 654.6)"> </text><text xml:space="preserve" font-family="Libertad-BookItalic,Libertad" font-style="italic" font-size="44.0" fill="#FEFFFF" transform="matrix(1.00, 0.00, -0.00, -1.00, 695.9, 487.8)">S</text><text xml:space="preserve" font-family="Libertad-BookItalic,Libertad" font-style="italic" font-size="44.0" fill="#FEFFFF" transform="matrix(1.00, 0.00, -0.00, -1.00, 716.0, 487.8)">u</text><text xml:space="preserve" font-family="Libertad-BookItalic,Libertad" font-style="italic" font-size="44.0" fill="#FEFFFF" transform="matrix(1.00, 0.00, -0.00, -1.00, 738.6, 487.8)">b</text><text xml:space="preserve" font-family="Libertad-BookItalic,Libertad" font-style="italic" font-size="44.0" fill="#FEFFFF" transform="matrix(1.00, 0.00, -0.00, -1.00, 761.0, 487.8)">t</text><text xml:space="preserve" font-family="Libertad-BookItalic,Libertad" font-style="italic" font-size="44.0" fill="#FEFFFF" transform="matrix(1.00, 0.00, -0.00, -1.00, 775.8, 487.8)">í</text><text xml:space="preserve" font-family="Libertad-BookItalic,Libertad" font-style="italic" font-size="44.0" fill="#FEFFFF" transform="matrix(1.00, 0.00, -0.00, -1.00, 786.4, 487.8)">t</text><text xml:space="preserve" font-family="Libertad-BookItalic,Libertad" font-style="italic" font-size="44.0" fill="#FEFFFF" transform="matrix(1.00, 0.00, -0.00, -1.00, 801.2, 487.8)">u</text><text xml:space="preserve" font-family="Libertad-BookItalic,Libertad" font-style="italic" font-size="44.0" fill="#FEFFFF" transform="matrix(1.00, 0.00, -0.00, -1.00, 823.8, 487.8)">l</text><text xml:space="preserve" font-family="Libertad-BookItalic,Libertad" font-style="italic" font-size="44.0" fill="#FEFFFF" transform="matrix(1.00, 0.00, -0.00, -1.00, 834.0, 487.8)">o</text><text xml:space="preserve" font-family="Libertad-BookItalic,Libertad" font-style="italic" font-size="44.0" fill="#FEFFFF" transform="matrix(1.00, 0.00, -0.00, -1.00, 855.3, 487.8)"> </text><text xml:space="preserve" font-family="Libertad-BookItalic,Libertad" font-style="italic" font-size="44.0" fill="#FEFFFF" transform="matrix(1.00, 0.00, -0.00, -1.00, 864.4, 487.8)">d</text><text xml:space="preserve" font-family="Libertad-BookItalic,Libertad" font-style="italic" font-size="44.0" fill="#FEFFFF" transform="matrix(1.00, 0.00, -0.00, -1.00, 887.1, 487.8)">a</text><text xml:space="preserve" font-family="Libertad-BookItalic,Libertad" font-style="italic" font-size="44.0" fill="#FEFFFF" transform="matrix(1.00, 0.00, -0.00, -1.00, 909.6, 487.8)"> </text><text xml:space="preserve" font-family="Libertad-BookItalic,Libertad" font-style="italic" font-size="44.0" fill="#FEFFFF" transform="matrix(1.00, 0.00, -0.00, -1.00, 917.8, 487.8)">s</text><text xml:space="preserve" font-family="Libertad-BookItalic,Libertad" font-style="italic" font-size="44.0" fill="#FEFFFF" transform="matrix(1.00, 0.00, -0.00, -1.00, 933.7, 487.8)">u</text><text xml:space="preserve" font-family="Libertad-BookItalic,Libertad" font-style="italic" font-size="44.0" fill="#FEFFFF" transform="matrix(1.00, 0.00, -0.00, -1.00, 956.4, 487.8)">a</text><text xml:space="preserve" font-family="Libertad-BookItalic,Libertad" font-style="italic" font-size="44.0" fill="#FEFFFF" transform="matrix(1.00, 0.00, -0.00, -1.00, 978.9, 487.8)"> </text><text xml:space="preserve" font-family="Libertad-BookItalic,Libertad" font-style="italic" font-size="44.0" fill="#FEFFFF" transform="matrix(1.00, 0.00, -0.00, -1.00, 987.6, 487.8)">a</text><text xml:space="preserve" font-family="Libertad-BookItalic,Libertad" font-style="italic" font-size="44.0" fill="#FEFFFF" transform="matrix(1.00, 0.00, -0.00, -1.00, 1010.1, 487.8)">p</text><text xml:space="preserve" font-family="Libertad-BookItalic,Libertad" font-style="italic" font-size="44.0" fill="#FEFFFF" transform="matrix(1.00, 0.00, -0.00, -1.00, 1032.8, 487.8)">r</text><text xml:space="preserve" font-family="Libertad-BookItalic,Libertad" font-style="italic" font-size="44.0" fill="#FEFFFF" transform="matrix(1.00, 0.00, -0.00, -1.00, 1047.9, 487.8)">e</text><text xml:space="preserve" font-family="Libertad-BookItalic,Libertad" font-style="italic" font-size="44.0" fill="#FEFFFF" transform="matrix(1.00, 0.00, -0.00, -1.00, 1066.9, 487.8)">s</text><text xml:space="preserve" font-family="Libertad-BookItalic,Libertad" font-style="italic" font-size="44.0" fill="#FEFFFF" transform="matrix(1.00, 0.00, -0.00, -1.00, 1082.8, 487.8)">e</text><text xml:space="preserve" font-family="Libertad-BookItalic,Libertad" font-style="italic" font-size="44.0" fill="#FEFFFF" transform="matrix(1.00, 0.00, -0.00, -1.00, 1101.6, 487.8)">n</text><text xml:space="preserve" font-family="Libertad-BookItalic,Libertad" font-style="italic" font-size="44.0" fill="#FEFFFF" transform="matrix(1.00, 0.00, -0.00, -1.00, 1124.7, 487.8)">t</text><text xml:space="preserve" font-family="Libertad-BookItalic,Libertad" font-style="italic" font-size="44.0" fill="#FEFFFF" transform="matrix(1.00, 0.00, -0.00, -1.00, 1139.9, 487.8)">a</text><text xml:space="preserve" font-family="Libertad-BookItalic,Libertad" font-style="italic" font-size="44.0" fill="#FEFFFF" transform="matrix(1.00, 0.00, -0.00, -1.00, 1162.4, 487.8)">ç</text><text xml:space="preserve" font-family="Libertad-BookItalic,Libertad" font-style="italic" font-size="44.0" fill="#FEFFFF" transform="matrix(1.00, 0.00, -0.00, -1.00, 1180.0, 487.8)">ã</text><text xml:space="preserve" font-family="Libertad-BookItalic,Libertad" font-style="italic" font-size="44.0" fill="#FEFFFF" transform="matrix(1.00, 0.00, -0.00, -1.00, 1202.7, 487.8)">o</text><image xlink:href="../../F3A1BB8F-F4ED-4262-AB89-F047B33993F9/assets/A60E0EF2EDA84327635D521B52B566E2.png" width="1304.00" height="722.00" transform="matrix(1.59, 0.00, -0.00, -1.59, -154.8, 1144.7)"></image><text xml:space="preserve" font-family="Libertad-Book,Libertad" font-size="36.0" fill="#000000" transform="matrix(1.00, 0.00, -0.00, -1.00, 1347.5, 28.5)"> </text><text xml:space="preserve" font-family="Libertad-Book,Libertad" font-size="36.0" fill="#000000" transform="matrix(1.00, 0.00, -0.00, -1.00, 1354.6, 28.5)">A</text><text xml:space="preserve" font-family="Libertad-Book,Libertad" font-size="36.0" fill="#000000" transform="matrix(1.00, 0.00, -0.00, -1.00, 1376.2, 28.5)">n</text><text xml:space="preserve" font-family="Libertad-Book,Libertad" font-size="36.0" fill="#000000" transform="matrix(1.00, 0.00, -0.00, -1.00, 1396.4, 28.5)">i</text><text xml:space="preserve" font-family="Libertad-Book,Libertad" font-size="36.0" fill="#000000" transform="matrix(1.00, 0.00, -0.00, -1.00, 1405.2, 28.5)">m</text><text xml:space="preserve" font-family="Libertad-Book,Libertad" font-size="36.0" fill="#000000" transform="matrix(1.00, 0.00, -0.00, -1.00, 1436.2, 28.5)">a</text><text xml:space="preserve" font-family="Libertad-Book,Libertad" font-size="36.0" fill="#000000" transform="matrix(1.00, 0.00, -0.00, -1.00, 1453.8, 28.5)">ç</text><text xml:space="preserve" font-family="Libertad-Book,Libertad" font-size="36.0" fill="#000000" transform="matrix(1.00, 0.00, -0.00, -1.00, 1470.7, 28.5)">ã</text><text xml:space="preserve" font-family="Libertad-Book,Libertad" font-size="36.0" fill="#000000" transform="matrix(1.00, 0.00, -0.00, -1.00, 1488.2, 28.5)">o</text><text xml:space="preserve" font-family="Libertad-Book,Libertad" font-size="36.0" fill="#000000" transform="matrix(1.00, 0.00, -0.00, -1.00, 1508.2, 28.5)">:</text><text xml:space="preserve" font-family="Libertad-Book,Libertad" font-size="36.0" fill="#000000" transform="matrix(1.00, 0.00, -0.00, -1.00, 1515.7, 28.5)"> </text><text xml:space="preserve" font-family="Libertad-Book,Libertad" font-size="36.0" fill="#000000" transform="matrix(1.00, 0.00, -0.00, -1.00, 1523.6, 28.5)">h</text><text xml:space="preserve" font-family="Libertad-Book,Libertad" font-size="36.0" fill="#000000" transform="matrix(1.00, 0.00, -0.00, -1.00, 1543.8, 28.5)">t</text><text xml:space="preserve" font-family="Libertad-Book,Libertad" font-size="36.0" fill="#000000" transform="matrix(1.00, 0.00, -0.00, -1.00, 1557.0, 28.5)">t</text><text xml:space="preserve" font-family="Libertad-Book,Libertad" font-size="36.0" fill="#000000" transform="matrix(1.00, 0.00, -0.00, -1.00, 1569.9, 28.5)">p</text><text xml:space="preserve" font-family="Libertad-Book,Libertad" font-size="36.0" fill="#000000" transform="matrix(1.00, 0.00, -0.00, -1.00, 1590.4, 28.5)">:</text><text xml:space="preserve" font-family="Libertad-Book,Libertad" font-size="36.0" fill="#000000" transform="matrix(1.00, 0.00, -0.00, -1.00, 1597.9, 28.5)">/</text><text xml:space="preserve" font-family="Libertad-Book,Libertad" font-size="36.0" fill="#000000" transform="matrix(1.00, 0.00, -0.00, -1.00, 1609.0, 28.5)">/</text><text xml:space="preserve" font-family="Libertad-Book,Libertad" font-size="36.0" fill="#000000" transform="matrix(1.00, 0.00, -0.00, -1.00, 1623.6, 28.5)">b</text><text xml:space="preserve" font-family="Libertad-Book,Libertad" font-size="36.0" fill="#000000" transform="matrix(1.00, 0.00, -0.00, -1.00, 1643.8, 28.5)">i</text><text xml:space="preserve" font-family="Libertad-Book,Libertad" font-size="36.0" fill="#000000" transform="matrix(1.00, 0.00, -0.00, -1.00, 1652.6, 28.5)">t</text><text xml:space="preserve" font-family="Libertad-Book,Libertad" font-size="36.0" fill="#000000" transform="matrix(1.00, 0.00, -0.00, -1.00, 1665.8, 28.5)">.</text><text xml:space="preserve" font-family="Libertad-Book,Libertad" font-size="36.0" fill="#000000" transform="matrix(1.00, 0.00, -0.00, -1.00, 1673.4, 28.5)">l</text><text xml:space="preserve" font-family="Libertad-Book,Libertad" font-size="36.0" fill="#000000" transform="matrix(1.00, 0.00, -0.00, -1.00, 1682.1, 28.5)">y</text><text xml:space="preserve" font-family="Libertad-Book,Libertad" font-size="36.0" fill="#000000" transform="matrix(1.00, 0.00, -0.00, -1.00, 1698.7, 28.5)">/</text><text xml:space="preserve" font-family="Libertad-Book,Libertad" font-size="36.0" fill="#000000" transform="matrix(1.00, 0.00, -0.00, -1.00, 1713.3, 28.5)">1</text><text xml:space="preserve" font-family="Libertad-Book,Libertad" font-size="36.0" fill="#000000" transform="matrix(1.00, 0.00, -0.00, -1.00, 1727.7, 28.5)">O</text><text xml:space="preserve" font-family="Libertad-Book,Libertad" font-size="36.0" fill="#000000" transform="matrix(1.00, 0.00, -0.00, -1.00, 1752.2, 28.5)">H</text><text xml:space="preserve" font-family="Libertad-Book,Libertad" font-size="36.0" fill="#000000" transform="matrix(1.00, 0.00, -0.00, -1.00, 1775.8, 28.5)">U</text><text xml:space="preserve" font-family="Libertad-Book,Libertad" font-size="36.0" fill="#000000" transform="matrix(1.00, 0.00, -0.00, -1.00, 1797.8, 28.5)">K</text><text xml:space="preserve" font-family="Libertad-Book,Libertad" font-size="36.0" fill="#000000" transform="matrix(1.00, 0.00, -0.00, -1.00, 1818.7, 28.5)">a</text><text xml:space="preserve" font-family="Libertad-Book,Libertad" font-size="36.0" fill="#000000" transform="matrix(1.00, 0.00, -0.00, -1.00, 1836.2, 28.5)">W</text><g><clipPath id="clip0x7fee2464d430"><path d="M 1522.6 22.8 L 1870.4 22.8 L 1870.4 27.2 L 1522.6 27.2 Z M 1522.6 22.8 "></path></clipPath><g clip-path="url(#clip0x7fee2464d430)"><path d="M 432.2 34.0 L 779.0 34.0 " fill="none" stroke="#000000" stroke-width="2.34" transform="matrix(1.00, 0.00, 0.00, -1.00, 1091.4, 59.0)"></path></g></g></g></svg>