<?xml version="1.0" encoding="UTF-8" standalone="no"?><svg xmlns="http://www.w3.org/2000/svg" xmlns:xlink="http://www.w3.org/1999/xlink" clip-rule="evenodd" stroke-miterlimit="10" viewBox="0 0 526 41"><desc>SVG generated by Keynote</desc><defs></defs><g transform="matrix(1.00, 0.00, -0.00, -1.00, 0.0, 41.0)"><text xml:space="preserve" font-family="Libertad-Book,Libertad" font-size="36.0" fill="#000000" transform="matrix(1.00, 0.00, -0.00, -1.00, 1.5, 10.5)"> </text><text xml:space="preserve" font-family="Libertad-Book,Libertad" font-size="36.0" fill="#000000" transform="matrix(1.00, 0.00, -0.00, -1.00, 8.6, 10.5)">A</text><text xml:space="preserve" font-family="Libertad-Book,Libertad" font-size="36.0" fill="#000000" transform="matrix(1.00, 0.00, -0.00, -1.00, 30.2, 10.5)">n</text><text xml:space="preserve" font-family="Libertad-Book,Libertad" font-size="36.0" fill="#000000" transform="matrix(1.00, 0.00, -0.00, -1.00, 50.4, 10.5)">i</text><text xml:space="preserve" font-family="Libertad-Book,Libertad" font-size="36.0" fill="#000000" transform="matrix(1.00, 0.00, -0.00, -1.00, 59.2, 10.5)">m</text><text xml:space="preserve" font-family="Libertad-Book,Libertad" font-size="36.0" fill="#000000" transform="matrix(1.00, 0.00, -0.00, -1.00, 90.2, 10.5)">a</text><text xml:space="preserve" font-family="Libertad-Book,Libertad" font-size="36.0" fill="#000000" transform="matrix(1.00, 0.00, -0.00, -1.00, 107.8, 10.5)">รง</text><text xml:space="preserve" font-family="Libertad-Book,Libertad" font-size="36.0" fill="#000000" transform="matrix(1.00, 0.00, -0.00, -1.00, 124.7, 10.5)">รฃ</text><text xml:space="preserve" font-family="Libertad-Book,Libertad" font-size="36.0" fill="#000000" transform="matrix(1.00, 0.00, -0.00, -1.00, 142.2, 10.5)">o</text><text xml:space="preserve" font-family="Libertad-Book,Libertad" font-size="36.0" fill="#000000" transform="matrix(1.00, 0.00, -0.00, -1.00, 162.2, 10.5)">:</text><text xml:space="preserve" font-family="Libertad-Book,Libertad" font-size="36.0" fill="#000000" transform="matrix(1.00, 0.00, -0.00, -1.00, 169.7, 10.5)"> </text><text xml:space="preserve" font-family="Libertad-Book,Libertad" font-size="36.0" fill="#000000" transform="matrix(1.00, 0.00, -0.00, -1.00, 177.6, 10.5)">h</text><text xml:space="preserve" font-family="Libertad-Book,Libertad" font-size="36.0" fill="#000000" transform="matrix(1.00, 0.00, -0.00, -1.00, 197.8, 10.5)">t</text><text xml:space="preserve" font-family="Libertad-Book,Libertad" font-size="36.0" fill="#000000" transform="matrix(1.00, 0.00, -0.00, -1.00, 211.0, 10.5)">t</text><text xml:space="preserve" font-family="Libertad-Book,Libertad" font-size="36.0" fill="#000000" transform="matrix(1.00, 0.00, -0.00, -1.00, 223.9, 10.5)">p</text><text xml:space="preserve" font-family="Libertad-Book,Libertad" font-size="36.0" fill="#000000" transform="matrix(1.00, 0.00, -0.00, -1.00, 244.4, 10.5)">:</text><text xml:space="preserve" font-family="Libertad-Book,Libertad" font-size="36.0" fill="#000000" transform="matrix(1.00, 0.00, -0.00, -1.00, 251.9, 10.5)">/</text><text xml:space="preserve" font-family="Libertad-Book,Libertad" font-size="36.0" fill="#000000" transform="matrix(1.00, 0.00, -0.00, -1.00, 263.0, 10.5)">/</text><text xml:space="preserve" font-family="Libertad-Book,Libertad" font-size="36.0" fill="#000000" transform="matrix(1.00, 0.00, -0.00, -1.00, 277.6, 10.5)">b</text><text xml:space="preserve" font-family="Libertad-Book,Libertad" font-size="36.0" fill="#000000" transform="matrix(1.00, 0.00, -0.00, -1.00, 297.8, 10.5)">i</text><text xml:space="preserve" font-family="Libertad-Book,Libertad" font-size="36.0" fill="#000000" transform="matrix(1.00, 0.00, -0.00, -1.00, 306.6, 10.5)">t</text><text xml:space="preserve" font-family="Libertad-Book,Libertad" font-size="36.0" fill="#000000" transform="matrix(1.00, 0.00, -0.00, -1.00, 319.8, 10.5)">.</text><text xml:space="preserve" font-family="Libertad-Book,Libertad" font-size="36.0" fill="#000000" transform="matrix(1.00, 0.00, -0.00, -1.00, 327.4, 10.5)">l</text><text xml:space="preserve" font-family="Libertad-Book,Libertad" font-size="36.0" fill="#000000" transform="matrix(1.00, 0.00, -0.00, -1.00, 336.1, 10.5)">y</text><text xml:space="preserve" font-family="Libertad-Book,Libertad" font-size="36.0" fill="#000000" transform="matrix(1.00, 0.00, -0.00, -1.00, 352.7, 10.5)">/</text><text xml:space="preserve" font-family="Libertad-Book,Libertad" font-size="36.0" fill="#000000" transform="matrix(1.00, 0.00, -0.00, -1.00, 367.3, 10.5)">1</text><text xml:space="preserve" font-family="Libertad-Book,Libertad" font-size="36.0" fill="#000000" transform="matrix(1.00, 0.00, -0.00, -1.00, 381.7, 10.5)">O</text><text xml:space="preserve" font-family="Libertad-Book,Libertad" font-size="36.0" fill="#000000" transform="matrix(1.00, 0.00, -0.00, -1.00, 406.2, 10.5)">H</text><text xml:space="preserve" font-family="Libertad-Book,Libertad" font-size="36.0" fill="#000000" transform="matrix(1.00, 0.00, -0.00, -1.00, 429.8, 10.5)">U</text><text xml:space="preserve" font-family="Libertad-Book,Libertad" font-size="36.0" fill="#000000" transform="matrix(1.00, 0.00, -0.00, -1.00, 451.8, 10.5)">K</text><text xml:space="preserve" font-family="Libertad-Book,Libertad" font-size="36.0" fill="#000000" transform="matrix(1.00, 0.00, -0.00, -1.00, 472.7, 10.5)">a</text><text xml:space="preserve" font-family="Libertad-Book,Libertad" font-size="36.0" fill="#000000" transform="matrix(1.00, 0.00, -0.00, -1.00, 490.2, 10.5)">W</text><g><clipPath id="clip0x6080014adb00"><path d="M 176.6 4.8 L 524.4 4.8 L 524.4 9.2 L 176.6 9.2 Z M 176.6 4.8 "></path></clipPath><g clip-path="url(#clip0x6080014adb00)"><path d="M 432.2 34.0 L 779.0 34.0 " fill="none" stroke="#000000" stroke-width="2.34" transform="matrix(1.00, 0.00, 0.00, -1.00, -254.6, 41.0)"></path></g></g></g></svg>