<?xml version="1.0" encoding="UTF-8" standalone="no"?><svg xmlns="http://www.w3.org/2000/svg" xmlns:xlink="http://www.w3.org/1999/xlink" clip-rule="evenodd" stroke-miterlimit="10" viewBox="0 0 1920 1080"><desc>SVG generated by Keynote</desc><defs></defs><g transform="matrix(1.00, 0.00, -0.00, -1.00, 0.0, 1080.0)"><path d="M 0.0 1080.0 L 1920.0 1080.0 L 1920.0 0.0 L 0.0 0.0 Z M 0.0 1080.0 " fill="#000000"></path><image xlink:href="7870A67A5C83F4D972831C97E19D12AD.png" width="1280.00" height="720.00" transform="matrix(1.50, 0.00, -0.00, -1.50, 0.0, 1080.0)"></image><text xml:space="preserve" font-family="Libertad-Book,Libertad" font-size="30.0" fill="#FEFFFF" transform="matrix(1.00, 0.00, -0.00, -1.00, 1169.8, 26.9)">F</text><text xml:space="preserve" font-family="Libertad-Book,Libertad" font-size="30.0" fill="#FEFFFF" transform="matrix(1.00, 0.00, -0.00, -1.00, 1184.1, 26.9)">o</text><text xml:space="preserve" font-family="Libertad-Book,Libertad" font-size="30.0" fill="#FEFFFF" transform="matrix(1.00, 0.00, -0.00, -1.00, 1200.8, 26.9)">n</text><text xml:space="preserve" font-family="Libertad-Book,Libertad" font-size="30.0" fill="#FEFFFF" transform="matrix(1.00, 0.00, -0.00, -1.00, 1217.6, 26.9)">t</text><text xml:space="preserve" font-family="Libertad-Book,Libertad" font-size="30.0" fill="#FEFFFF" transform="matrix(1.00, 0.00, -0.00, -1.00, 1228.3, 26.9)">e</text><text xml:space="preserve" font-family="Libertad-Book,Libertad" font-size="30.0" fill="#FEFFFF" transform="matrix(1.00, 0.00, -0.00, -1.00, 1243.5, 26.9)">:</text><text xml:space="preserve" font-family="Libertad-Book,Libertad" font-size="30.0" fill="#FEFFFF" transform="matrix(1.00, 0.00, -0.00, -1.00, 1249.8, 26.9)"> </text><text xml:space="preserve" font-family="Libertad-Book,Libertad" font-size="30.0" fill="#FEFFFF" transform="matrix(1.00, 0.00, -0.00, -1.00, 1256.4, 26.9)">h</text><text xml:space="preserve" font-family="Libertad-Book,Libertad" font-size="30.0" fill="#FEFFFF" transform="matrix(1.00, 0.00, -0.00, -1.00, 1273.2, 26.9)">t</text><text xml:space="preserve" font-family="Libertad-Book,Libertad" font-size="30.0" fill="#FEFFFF" transform="matrix(1.00, 0.00, -0.00, -1.00, 1284.2, 26.9)">t</text><text xml:space="preserve" font-family="Libertad-Book,Libertad" font-size="30.0" fill="#FEFFFF" transform="matrix(1.00, 0.00, -0.00, -1.00, 1294.9, 26.9)">p</text><text xml:space="preserve" font-family="Libertad-Book,Libertad" font-size="30.0" fill="#FEFFFF" transform="matrix(1.00, 0.00, -0.00, -1.00, 1312.0, 26.9)">s</text><text xml:space="preserve" font-family="Libertad-Book,Libertad" font-size="30.0" fill="#FEFFFF" transform="matrix(1.00, 0.00, -0.00, -1.00, 1324.2, 26.9)">:</text><text xml:space="preserve" font-family="Libertad-Book,Libertad" font-size="30.0" fill="#FEFFFF" transform="matrix(1.00, 0.00, -0.00, -1.00, 1330.5, 26.9)">/</text><text xml:space="preserve" font-family="Libertad-Book,Libertad" font-size="30.0" fill="#FEFFFF" transform="matrix(1.00, 0.00, -0.00, -1.00, 1339.7, 26.9)">/</text><text xml:space="preserve" font-family="Libertad-Book,Libertad" font-size="30.0" fill="#FEFFFF" transform="matrix(1.00, 0.00, -0.00, -1.00, 1351.9, 26.9)">w</text><text xml:space="preserve" font-family="Libertad-Book,Libertad" font-size="30.0" fill="#FEFFFF" transform="matrix(1.00, 0.00, -0.00, -1.00, 1375.4, 26.9)">w</text><text xml:space="preserve" font-family="Libertad-Book,Libertad" font-size="30.0" fill="#FEFFFF" transform="matrix(1.00, 0.00, -0.00, -1.00, 1398.9, 26.9)">w</text><text xml:space="preserve" font-family="Libertad-Book,Libertad" font-size="30.0" fill="#FEFFFF" transform="matrix(1.00, 0.00, -0.00, -1.00, 1420.6, 26.9)">.</text><text xml:space="preserve" font-family="Libertad-Book,Libertad" font-size="30.0" fill="#FEFFFF" transform="matrix(1.00, 0.00, -0.00, -1.00, 1425.1, 26.9)">y</text><text xml:space="preserve" font-family="Libertad-Book,Libertad" font-size="30.0" fill="#FEFFFF" transform="matrix(1.00, 0.00, -0.00, -1.00, 1440.1, 26.9)">o</text><text xml:space="preserve" font-family="Libertad-Book,Libertad" font-size="30.0" fill="#FEFFFF" transform="matrix(1.00, 0.00, -0.00, -1.00, 1456.8, 26.9)">u</text><text xml:space="preserve" font-family="Libertad-Book,Libertad" font-size="30.0" fill="#FEFFFF" transform="matrix(1.00, 0.00, -0.00, -1.00, 1473.2, 26.9)">t</text><text xml:space="preserve" font-family="Libertad-Book,Libertad" font-size="30.0" fill="#FEFFFF" transform="matrix(1.00, 0.00, -0.00, -1.00, 1484.0, 26.9)">u</text><text xml:space="preserve" font-family="Libertad-Book,Libertad" font-size="30.0" fill="#FEFFFF" transform="matrix(1.00, 0.00, -0.00, -1.00, 1500.5, 26.9)">b</text><text xml:space="preserve" font-family="Libertad-Book,Libertad" font-size="30.0" fill="#FEFFFF" transform="matrix(1.00, 0.00, -0.00, -1.00, 1517.3, 26.9)">e</text><text xml:space="preserve" font-family="Libertad-Book,Libertad" font-size="30.0" fill="#FEFFFF" transform="matrix(1.00, 0.00, -0.00, -1.00, 1532.5, 26.9)">.</text><text xml:space="preserve" font-family="Libertad-Book,Libertad" font-size="30.0" fill="#FEFFFF" transform="matrix(1.00, 0.00, -0.00, -1.00, 1538.8, 26.9)">c</text><text xml:space="preserve" font-family="Libertad-Book,Libertad" font-size="30.0" fill="#FEFFFF" transform="matrix(1.00, 0.00, -0.00, -1.00, 1552.4, 26.9)">o</text><text xml:space="preserve" font-family="Libertad-Book,Libertad" font-size="30.0" fill="#FEFFFF" transform="matrix(1.00, 0.00, -0.00, -1.00, 1569.1, 26.9)">m</text><text xml:space="preserve" font-family="Libertad-Book,Libertad" font-size="30.0" fill="#FEFFFF" transform="matrix(1.00, 0.00, -0.00, -1.00, 1595.0, 26.9)">/</text><text xml:space="preserve" font-family="Libertad-Book,Libertad" font-size="30.0" fill="#FEFFFF" transform="matrix(1.00, 0.00, -0.00, -1.00, 1607.1, 26.9)">w</text><text xml:space="preserve" font-family="Libertad-Book,Libertad" font-size="30.0" fill="#FEFFFF" transform="matrix(1.00, 0.00, -0.00, -1.00, 1630.3, 26.9)">a</text><text xml:space="preserve" font-family="Libertad-Book,Libertad" font-size="30.0" fill="#FEFFFF" transform="matrix(1.00, 0.00, -0.00, -1.00, 1644.9, 26.9)">t</text><text xml:space="preserve" font-family="Libertad-Book,Libertad" font-size="30.0" fill="#FEFFFF" transform="matrix(1.00, 0.00, -0.00, -1.00, 1655.7, 26.9)">c</text><text xml:space="preserve" font-family="Libertad-Book,Libertad" font-size="30.0" fill="#FEFFFF" transform="matrix(1.00, 0.00, -0.00, -1.00, 1669.3, 26.9)">h</text><text xml:space="preserve" font-family="Libertad-Book,Libertad" font-size="30.0" fill="#FEFFFF" transform="matrix(1.00, 0.00, -0.00, -1.00, 1686.1, 26.9)">?</text><text xml:space="preserve" font-family="Libertad-Book,Libertad" font-size="30.0" fill="#FEFFFF" transform="matrix(1.00, 0.00, -0.00, -1.00, 1697.8, 26.9)">v</text><text xml:space="preserve" font-family="Libertad-Book,Libertad" font-size="30.0" fill="#FEFFFF" transform="matrix(1.00, 0.00, -0.00, -1.00, 1712.9, 26.9)">=</text><text xml:space="preserve" font-family="Libertad-Book,Libertad" font-size="30.0" fill="#FEFFFF" transform="matrix(1.00, 0.00, -0.00, -1.00, 1730.7, 26.9)">Y</text><text xml:space="preserve" font-family="Libertad-Book,Libertad" font-size="30.0" fill="#FEFFFF" transform="matrix(1.00, 0.00, -0.00, -1.00, 1746.1, 26.9)">J</text><text xml:space="preserve" font-family="Libertad-Book,Libertad" font-size="30.0" fill="#FEFFFF" transform="matrix(1.00, 0.00, -0.00, -1.00, 1756.3, 26.9)">b</text><text xml:space="preserve" font-family="Libertad-Book,Libertad" font-size="30.0" fill="#FEFFFF" transform="matrix(1.00, 0.00, -0.00, -1.00, 1773.1, 26.9)">K</text><text xml:space="preserve" font-family="Libertad-Book,Libertad" font-size="30.0" fill="#FEFFFF" transform="matrix(1.00, 0.00, -0.00, -1.00, 1790.5, 26.9)">i</text><text xml:space="preserve" font-family="Libertad-Book,Libertad" font-size="30.0" fill="#FEFFFF" transform="matrix(1.00, 0.00, -0.00, -1.00, 1797.8, 26.9)">e</text><text xml:space="preserve" font-family="Libertad-Book,Libertad" font-size="30.0" fill="#FEFFFF" transform="matrix(1.00, 0.00, -0.00, -1.00, 1813.0, 26.9)">E</text><text xml:space="preserve" font-family="Libertad-Book,Libertad" font-size="30.0" fill="#FEFFFF" transform="matrix(1.00, 0.00, -0.00, -1.00, 1828.3, 26.9)">C</text><text xml:space="preserve" font-family="Libertad-Book,Libertad" font-size="30.0" fill="#FEFFFF" transform="matrix(1.00, 0.00, -0.00, -1.00, 1844.6, 26.9)">4</text><text xml:space="preserve" font-family="Libertad-Book,Libertad" font-size="30.0" fill="#FEFFFF" transform="matrix(1.00, 0.00, -0.00, -1.00, 1860.3, 26.9)">9</text><text xml:space="preserve" font-family="Libertad-Book,Libertad" font-size="30.0" fill="#FEFFFF" transform="matrix(1.00, 0.00, -0.00, -1.00, 1877.4, 26.9)">M</text><g><clipPath id="clip0x7fee2376f5b0"><path d="M 1255.4 22.1 L 1901.8 22.1 L 1901.8 26.0 L 1255.4 26.0 Z M 1255.4 22.1 "></path></clipPath><g clip-path="url(#clip0x7fee2376f5b0)"><path d="M 133.5 28.2 L 779.0 28.2 " fill="none" stroke="#FEFFFF" stroke-width="1.95" transform="matrix(1.00, 0.00, 0.00, -1.00, 1122.8, 52.2)"></path></g></g><text xml:space="preserve" font-family="Libertad-Book,Libertad" font-size="30.0" fill="#FEFFFF" transform="matrix(1.00, 0.00, -0.00, -1.00, 1521.2, 66.1)"> </text><text xml:space="preserve" font-family="Libertad-Book,Libertad" font-size="30.0" fill="#FEFFFF" transform="matrix(1.00, 0.00, -0.00, -1.00, 1527.1, 66.1)">V</text><text xml:space="preserve" font-family="Libertad-Book,Libertad" font-size="30.0" fill="#FEFFFF" transform="matrix(1.00, 0.00, -0.00, -1.00, 1545.1, 66.1)">í</text><text xml:space="preserve" font-family="Libertad-Book,Libertad" font-size="30.0" fill="#FEFFFF" transform="matrix(1.00, 0.00, -0.00, -1.00, 1552.4, 66.1)">d</text><text xml:space="preserve" font-family="Libertad-Book,Libertad" font-size="30.0" fill="#FEFFFF" transform="matrix(1.00, 0.00, -0.00, -1.00, 1569.5, 66.1)">e</text><text xml:space="preserve" font-family="Libertad-Book,Libertad" font-size="30.0" fill="#FEFFFF" transform="matrix(1.00, 0.00, -0.00, -1.00, 1584.7, 66.1)">o</text><text xml:space="preserve" font-family="Libertad-Book,Libertad" font-size="30.0" fill="#FEFFFF" transform="matrix(1.00, 0.00, -0.00, -1.00, 1601.3, 66.1)">:</text><text xml:space="preserve" font-family="Libertad-Book,Libertad" font-size="30.0" fill="#FEFFFF" transform="matrix(1.00, 0.00, -0.00, -1.00, 1607.6, 66.1)"> </text><text xml:space="preserve" font-family="Libertad-Book,Libertad" font-size="30.0" fill="#FEFFFF" transform="matrix(1.00, 0.00, -0.00, -1.00, 1614.2, 66.1)"> </text><text xml:space="preserve" font-family="Libertad-Book,Libertad" font-size="30.0" fill="#FEFFFF" transform="matrix(1.00, 0.00, -0.00, -1.00, 1620.8, 66.1)">h</text><text xml:space="preserve" font-family="Libertad-Book,Libertad" font-size="30.0" fill="#FEFFFF" transform="matrix(1.00, 0.00, -0.00, -1.00, 1637.6, 66.1)">t</text><text xml:space="preserve" font-family="Libertad-Book,Libertad" font-size="30.0" fill="#FEFFFF" transform="matrix(1.00, 0.00, -0.00, -1.00, 1648.7, 66.1)">t</text><text xml:space="preserve" font-family="Libertad-Book,Libertad" font-size="30.0" fill="#FEFFFF" transform="matrix(1.00, 0.00, -0.00, -1.00, 1659.4, 66.1)">p</text><text xml:space="preserve" font-family="Libertad-Book,Libertad" font-size="30.0" fill="#FEFFFF" transform="matrix(1.00, 0.00, -0.00, -1.00, 1676.5, 66.1)">:</text><text xml:space="preserve" font-family="Libertad-Book,Libertad" font-size="30.0" fill="#FEFFFF" transform="matrix(1.00, 0.00, -0.00, -1.00, 1682.8, 66.1)">/</text><text xml:space="preserve" font-family="Libertad-Book,Libertad" font-size="30.0" fill="#FEFFFF" transform="matrix(1.00, 0.00, -0.00, -1.00, 1692.0, 66.1)">/</text><text xml:space="preserve" font-family="Libertad-Book,Libertad" font-size="30.0" fill="#FEFFFF" transform="matrix(1.00, 0.00, -0.00, -1.00, 1704.1, 66.1)">b</text><text xml:space="preserve" font-family="Libertad-Book,Libertad" font-size="30.0" fill="#FEFFFF" transform="matrix(1.00, 0.00, -0.00, -1.00, 1721.0, 66.1)">i</text><text xml:space="preserve" font-family="Libertad-Book,Libertad" font-size="30.0" fill="#FEFFFF" transform="matrix(1.00, 0.00, -0.00, -1.00, 1728.3, 66.1)">t</text><text xml:space="preserve" font-family="Libertad-Book,Libertad" font-size="30.0" fill="#FEFFFF" transform="matrix(1.00, 0.00, -0.00, -1.00, 1739.3, 66.1)">.</text><text xml:space="preserve" font-family="Libertad-Book,Libertad" font-size="30.0" fill="#FEFFFF" transform="matrix(1.00, 0.00, -0.00, -1.00, 1745.6, 66.1)">l</text><text xml:space="preserve" font-family="Libertad-Book,Libertad" font-size="30.0" fill="#FEFFFF" transform="matrix(1.00, 0.00, -0.00, -1.00, 1752.9, 66.1)">y</text><text xml:space="preserve" font-family="Libertad-Book,Libertad" font-size="30.0" fill="#FEFFFF" transform="matrix(1.00, 0.00, -0.00, -1.00, 1766.7, 66.1)">/</text><text xml:space="preserve" font-family="Libertad-Book,Libertad" font-size="30.0" fill="#FEFFFF" transform="matrix(1.00, 0.00, -0.00, -1.00, 1778.9, 66.1)">1</text><text xml:space="preserve" font-family="Libertad-Book,Libertad" font-size="30.0" fill="#FEFFFF" transform="matrix(1.00, 0.00, -0.00, -1.00, 1790.9, 66.1)">y</text><text xml:space="preserve" font-family="Libertad-Book,Libertad" font-size="30.0" fill="#FEFFFF" transform="matrix(1.00, 0.00, -0.00, -1.00, 1805.9, 66.1)">T</text><text xml:space="preserve" font-family="Libertad-Book,Libertad" font-size="30.0" fill="#FEFFFF" transform="matrix(1.00, 0.00, -0.00, -1.00, 1820.5, 66.1)">Z</text><text xml:space="preserve" font-family="Libertad-Book,Libertad" font-size="30.0" fill="#FEFFFF" transform="matrix(1.00, 0.00, -0.00, -1.00, 1835.9, 66.1)">W</text><text xml:space="preserve" font-family="Libertad-Book,Libertad" font-size="30.0" fill="#FEFFFF" transform="matrix(1.00, 0.00, -0.00, -1.00, 1864.1, 66.1)">G</text><text xml:space="preserve" font-family="Libertad-Book,Libertad" font-size="30.0" fill="#FEFFFF" transform="matrix(1.00, 0.00, -0.00, -1.00, 1882.2, 66.1)">N</text><g><clipPath id="clip0x7fee240469a0"><path d="M 1619.8 61.2 L 1901.8 61.2 L 1901.8 65.2 L 1619.8 65.2 Z M 1619.8 61.2 "></path></clipPath><g clip-path="url(#clip0x7fee240469a0)"><path d="M 498.0 28.2 L 779.0 28.2 " fill="none" stroke="#FEFFFF" stroke-width="1.95" transform="matrix(1.00, 0.00, 0.00, -1.00, 1122.8, 91.4)"></path></g></g></g></svg>