<?xml version="1.0" encoding="UTF-8" standalone="no"?><svg xmlns="http://www.w3.org/2000/svg" xmlns:xlink="http://www.w3.org/1999/xlink" clip-rule="evenodd" stroke-miterlimit="10" viewBox="0 0 1920 1080"><desc>SVG generated by Keynote</desc><defs></defs><g transform="matrix(1.00, 0.00, -0.00, -1.00, 0.0, 1080.0)"><path d="M 0.0 1080.0 L 1920.0 1080.0 L 1920.0 0.0 L 0.0 0.0 Z M 0.0 1080.0 " fill="#000000"></path><image xlink:href="../../103B5D26-3093-42CF-808D-176012430306/assets/84E5EADA0D51ACC6E8B66E5285A7AFB6.png" width="1280.00" height="720.00" transform="matrix(1.50, 0.00, -0.00, -1.50, 0.0, 1080.0)"></image><text xml:space="preserve" font-family="Libertad-Book,Libertad" font-size="30.0" fill="#FEFFFF" transform="matrix(1.00, 0.00, -0.00, -1.00, 1169.8, 12.5)">F</text><text xml:space="preserve" font-family="Libertad-Book,Libertad" font-size="30.0" fill="#FEFFFF" transform="matrix(1.00, 0.00, -0.00, -1.00, 1184.1, 12.5)">o</text><text xml:space="preserve" font-family="Libertad-Book,Libertad" font-size="30.0" fill="#FEFFFF" transform="matrix(1.00, 0.00, -0.00, -1.00, 1200.8, 12.5)">n</text><text xml:space="preserve" font-family="Libertad-Book,Libertad" font-size="30.0" fill="#FEFFFF" transform="matrix(1.00, 0.00, -0.00, -1.00, 1217.6, 12.5)">t</text><text xml:space="preserve" font-family="Libertad-Book,Libertad" font-size="30.0" fill="#FEFFFF" transform="matrix(1.00, 0.00, -0.00, -1.00, 1228.3, 12.5)">e</text><text xml:space="preserve" font-family="Libertad-Book,Libertad" font-size="30.0" fill="#FEFFFF" transform="matrix(1.00, 0.00, -0.00, -1.00, 1243.5, 12.5)">:</text><text xml:space="preserve" font-family="Libertad-Book,Libertad" font-size="30.0" fill="#FEFFFF" transform="matrix(1.00, 0.00, -0.00, -1.00, 1249.8, 12.5)"> </text><text xml:space="preserve" font-family="Libertad-Book,Libertad" font-size="30.0" fill="#FEFFFF" transform="matrix(1.00, 0.00, -0.00, -1.00, 1256.4, 12.5)">h</text><text xml:space="preserve" font-family="Libertad-Book,Libertad" font-size="30.0" fill="#FEFFFF" transform="matrix(1.00, 0.00, -0.00, -1.00, 1273.2, 12.5)">t</text><text xml:space="preserve" font-family="Libertad-Book,Libertad" font-size="30.0" fill="#FEFFFF" transform="matrix(1.00, 0.00, -0.00, -1.00, 1284.2, 12.5)">t</text><text xml:space="preserve" font-family="Libertad-Book,Libertad" font-size="30.0" fill="#FEFFFF" transform="matrix(1.00, 0.00, -0.00, -1.00, 1294.9, 12.5)">p</text><text xml:space="preserve" font-family="Libertad-Book,Libertad" font-size="30.0" fill="#FEFFFF" transform="matrix(1.00, 0.00, -0.00, -1.00, 1312.0, 12.5)">s</text><text xml:space="preserve" font-family="Libertad-Book,Libertad" font-size="30.0" fill="#FEFFFF" transform="matrix(1.00, 0.00, -0.00, -1.00, 1324.2, 12.5)">:</text><text xml:space="preserve" font-family="Libertad-Book,Libertad" font-size="30.0" fill="#FEFFFF" transform="matrix(1.00, 0.00, -0.00, -1.00, 1330.5, 12.5)">/</text><text xml:space="preserve" font-family="Libertad-Book,Libertad" font-size="30.0" fill="#FEFFFF" transform="matrix(1.00, 0.00, -0.00, -1.00, 1339.7, 12.5)">/</text><text xml:space="preserve" font-family="Libertad-Book,Libertad" font-size="30.0" fill="#FEFFFF" transform="matrix(1.00, 0.00, -0.00, -1.00, 1351.9, 12.5)">w</text><text xml:space="preserve" font-family="Libertad-Book,Libertad" font-size="30.0" fill="#FEFFFF" transform="matrix(1.00, 0.00, -0.00, -1.00, 1375.4, 12.5)">w</text><text xml:space="preserve" font-family="Libertad-Book,Libertad" font-size="30.0" fill="#FEFFFF" transform="matrix(1.00, 0.00, -0.00, -1.00, 1398.9, 12.5)">w</text><text xml:space="preserve" font-family="Libertad-Book,Libertad" font-size="30.0" fill="#FEFFFF" transform="matrix(1.00, 0.00, -0.00, -1.00, 1420.6, 12.5)">.</text><text xml:space="preserve" font-family="Libertad-Book,Libertad" font-size="30.0" fill="#FEFFFF" transform="matrix(1.00, 0.00, -0.00, -1.00, 1425.1, 12.5)">y</text><text xml:space="preserve" font-family="Libertad-Book,Libertad" font-size="30.0" fill="#FEFFFF" transform="matrix(1.00, 0.00, -0.00, -1.00, 1440.1, 12.5)">o</text><text xml:space="preserve" font-family="Libertad-Book,Libertad" font-size="30.0" fill="#FEFFFF" transform="matrix(1.00, 0.00, -0.00, -1.00, 1456.8, 12.5)">u</text><text xml:space="preserve" font-family="Libertad-Book,Libertad" font-size="30.0" fill="#FEFFFF" transform="matrix(1.00, 0.00, -0.00, -1.00, 1473.2, 12.5)">t</text><text xml:space="preserve" font-family="Libertad-Book,Libertad" font-size="30.0" fill="#FEFFFF" transform="matrix(1.00, 0.00, -0.00, -1.00, 1484.0, 12.5)">u</text><text xml:space="preserve" font-family="Libertad-Book,Libertad" font-size="30.0" fill="#FEFFFF" transform="matrix(1.00, 0.00, -0.00, -1.00, 1500.5, 12.5)">b</text><text xml:space="preserve" font-family="Libertad-Book,Libertad" font-size="30.0" fill="#FEFFFF" transform="matrix(1.00, 0.00, -0.00, -1.00, 1517.3, 12.5)">e</text><text xml:space="preserve" font-family="Libertad-Book,Libertad" font-size="30.0" fill="#FEFFFF" transform="matrix(1.00, 0.00, -0.00, -1.00, 1532.5, 12.5)">.</text><text xml:space="preserve" font-family="Libertad-Book,Libertad" font-size="30.0" fill="#FEFFFF" transform="matrix(1.00, 0.00, -0.00, -1.00, 1538.8, 12.5)">c</text><text xml:space="preserve" font-family="Libertad-Book,Libertad" font-size="30.0" fill="#FEFFFF" transform="matrix(1.00, 0.00, -0.00, -1.00, 1552.4, 12.5)">o</text><text xml:space="preserve" font-family="Libertad-Book,Libertad" font-size="30.0" fill="#FEFFFF" transform="matrix(1.00, 0.00, -0.00, -1.00, 1569.1, 12.5)">m</text><text xml:space="preserve" font-family="Libertad-Book,Libertad" font-size="30.0" fill="#FEFFFF" transform="matrix(1.00, 0.00, -0.00, -1.00, 1595.0, 12.5)">/</text><text xml:space="preserve" font-family="Libertad-Book,Libertad" font-size="30.0" fill="#FEFFFF" transform="matrix(1.00, 0.00, -0.00, -1.00, 1607.1, 12.5)">w</text><text xml:space="preserve" font-family="Libertad-Book,Libertad" font-size="30.0" fill="#FEFFFF" transform="matrix(1.00, 0.00, -0.00, -1.00, 1630.3, 12.5)">a</text><text xml:space="preserve" font-family="Libertad-Book,Libertad" font-size="30.0" fill="#FEFFFF" transform="matrix(1.00, 0.00, -0.00, -1.00, 1644.9, 12.5)">t</text><text xml:space="preserve" font-family="Libertad-Book,Libertad" font-size="30.0" fill="#FEFFFF" transform="matrix(1.00, 0.00, -0.00, -1.00, 1655.7, 12.5)">c</text><text xml:space="preserve" font-family="Libertad-Book,Libertad" font-size="30.0" fill="#FEFFFF" transform="matrix(1.00, 0.00, -0.00, -1.00, 1669.3, 12.5)">h</text><text xml:space="preserve" font-family="Libertad-Book,Libertad" font-size="30.0" fill="#FEFFFF" transform="matrix(1.00, 0.00, -0.00, -1.00, 1686.1, 12.5)">?</text><text xml:space="preserve" font-family="Libertad-Book,Libertad" font-size="30.0" fill="#FEFFFF" transform="matrix(1.00, 0.00, -0.00, -1.00, 1697.8, 12.5)">v</text><text xml:space="preserve" font-family="Libertad-Book,Libertad" font-size="30.0" fill="#FEFFFF" transform="matrix(1.00, 0.00, -0.00, -1.00, 1712.9, 12.5)">=</text><text xml:space="preserve" font-family="Libertad-Book,Libertad" font-size="30.0" fill="#FEFFFF" transform="matrix(1.00, 0.00, -0.00, -1.00, 1730.7, 12.5)">Y</text><text xml:space="preserve" font-family="Libertad-Book,Libertad" font-size="30.0" fill="#FEFFFF" transform="matrix(1.00, 0.00, -0.00, -1.00, 1746.1, 12.5)">J</text><text xml:space="preserve" font-family="Libertad-Book,Libertad" font-size="30.0" fill="#FEFFFF" transform="matrix(1.00, 0.00, -0.00, -1.00, 1756.3, 12.5)">b</text><text xml:space="preserve" font-family="Libertad-Book,Libertad" font-size="30.0" fill="#FEFFFF" transform="matrix(1.00, 0.00, -0.00, -1.00, 1773.1, 12.5)">K</text><text xml:space="preserve" font-family="Libertad-Book,Libertad" font-size="30.0" fill="#FEFFFF" transform="matrix(1.00, 0.00, -0.00, -1.00, 1790.5, 12.5)">i</text><text xml:space="preserve" font-family="Libertad-Book,Libertad" font-size="30.0" fill="#FEFFFF" transform="matrix(1.00, 0.00, -0.00, -1.00, 1797.8, 12.5)">e</text><text xml:space="preserve" font-family="Libertad-Book,Libertad" font-size="30.0" fill="#FEFFFF" transform="matrix(1.00, 0.00, -0.00, -1.00, 1813.0, 12.5)">E</text><text xml:space="preserve" font-family="Libertad-Book,Libertad" font-size="30.0" fill="#FEFFFF" transform="matrix(1.00, 0.00, -0.00, -1.00, 1828.3, 12.5)">C</text><text xml:space="preserve" font-family="Libertad-Book,Libertad" font-size="30.0" fill="#FEFFFF" transform="matrix(1.00, 0.00, -0.00, -1.00, 1844.6, 12.5)">4</text><text xml:space="preserve" font-family="Libertad-Book,Libertad" font-size="30.0" fill="#FEFFFF" transform="matrix(1.00, 0.00, -0.00, -1.00, 1860.3, 12.5)">9</text><text xml:space="preserve" font-family="Libertad-Book,Libertad" font-size="30.0" fill="#FEFFFF" transform="matrix(1.00, 0.00, -0.00, -1.00, 1877.4, 12.5)">M</text><g><clipPath id="clip0x608000ea9720"><path d="M 1255.4 7.7 L 1901.8 7.7 L 1901.8 11.6 L 1255.4 11.6 Z M 1255.4 7.7 "></path></clipPath><g clip-path="url(#clip0x608000ea9720)"><path d="M 176.7 28.2 L 822.2 28.2 " fill="none" stroke="#FEFFFF" stroke-width="1.95" transform="matrix(1.00, 0.00, 0.00, -1.00, 1079.6, 37.8)"></path></g></g><text xml:space="preserve" font-family="Libertad-Book,Libertad" font-size="30.0" fill="#FEFFFF" transform="matrix(1.00, 0.00, -0.00, -1.00, 1537.7, 51.7)"> </text><text xml:space="preserve" font-family="Libertad-Book,Libertad" font-size="30.0" fill="#FEFFFF" transform="matrix(1.00, 0.00, -0.00, -1.00, 1543.6, 51.7)">V</text><text xml:space="preserve" font-family="Libertad-Book,Libertad" font-size="30.0" fill="#FEFFFF" transform="matrix(1.00, 0.00, -0.00, -1.00, 1561.6, 51.7)">í</text><text xml:space="preserve" font-family="Libertad-Book,Libertad" font-size="30.0" fill="#FEFFFF" transform="matrix(1.00, 0.00, -0.00, -1.00, 1568.9, 51.7)">d</text><text xml:space="preserve" font-family="Libertad-Book,Libertad" font-size="30.0" fill="#FEFFFF" transform="matrix(1.00, 0.00, -0.00, -1.00, 1586.0, 51.7)">e</text><text xml:space="preserve" font-family="Libertad-Book,Libertad" font-size="30.0" fill="#FEFFFF" transform="matrix(1.00, 0.00, -0.00, -1.00, 1601.1, 51.7)">o</text><text xml:space="preserve" font-family="Libertad-Book,Libertad" font-size="30.0" fill="#FEFFFF" transform="matrix(1.00, 0.00, -0.00, -1.00, 1617.8, 51.7)">:</text><text xml:space="preserve" font-family="Libertad-Book,Libertad" font-size="30.0" fill="#FEFFFF" transform="matrix(1.00, 0.00, -0.00, -1.00, 1624.1, 51.7)"> </text><text xml:space="preserve" font-family="Libertad-Book,Libertad" font-size="30.0" fill="#FEFFFF" transform="matrix(1.00, 0.00, -0.00, -1.00, 1630.7, 51.7)">h</text><text xml:space="preserve" font-family="Libertad-Book,Libertad" font-size="30.0" fill="#FEFFFF" transform="matrix(1.00, 0.00, -0.00, -1.00, 1647.5, 51.7)">t</text><text xml:space="preserve" font-family="Libertad-Book,Libertad" font-size="30.0" fill="#FEFFFF" transform="matrix(1.00, 0.00, -0.00, -1.00, 1658.5, 51.7)">t</text><text xml:space="preserve" font-family="Libertad-Book,Libertad" font-size="30.0" fill="#FEFFFF" transform="matrix(1.00, 0.00, -0.00, -1.00, 1669.2, 51.7)">p</text><text xml:space="preserve" font-family="Libertad-Book,Libertad" font-size="30.0" fill="#FEFFFF" transform="matrix(1.00, 0.00, -0.00, -1.00, 1686.3, 51.7)">:</text><text xml:space="preserve" font-family="Libertad-Book,Libertad" font-size="30.0" fill="#FEFFFF" transform="matrix(1.00, 0.00, -0.00, -1.00, 1692.6, 51.7)">/</text><text xml:space="preserve" font-family="Libertad-Book,Libertad" font-size="30.0" fill="#FEFFFF" transform="matrix(1.00, 0.00, -0.00, -1.00, 1701.8, 51.7)">/</text><text xml:space="preserve" font-family="Libertad-Book,Libertad" font-size="30.0" fill="#FEFFFF" transform="matrix(1.00, 0.00, -0.00, -1.00, 1714.0, 51.7)">b</text><text xml:space="preserve" font-family="Libertad-Book,Libertad" font-size="30.0" fill="#FEFFFF" transform="matrix(1.00, 0.00, -0.00, -1.00, 1730.8, 51.7)">i</text><text xml:space="preserve" font-family="Libertad-Book,Libertad" font-size="30.0" fill="#FEFFFF" transform="matrix(1.00, 0.00, -0.00, -1.00, 1738.1, 51.7)">t</text><text xml:space="preserve" font-family="Libertad-Book,Libertad" font-size="30.0" fill="#FEFFFF" transform="matrix(1.00, 0.00, -0.00, -1.00, 1749.2, 51.7)">.</text><text xml:space="preserve" font-family="Libertad-Book,Libertad" font-size="30.0" fill="#FEFFFF" transform="matrix(1.00, 0.00, -0.00, -1.00, 1755.5, 51.7)">l</text><text xml:space="preserve" font-family="Libertad-Book,Libertad" font-size="30.0" fill="#FEFFFF" transform="matrix(1.00, 0.00, -0.00, -1.00, 1762.8, 51.7)">y</text><text xml:space="preserve" font-family="Libertad-Book,Libertad" font-size="30.0" fill="#FEFFFF" transform="matrix(1.00, 0.00, -0.00, -1.00, 1776.6, 51.7)">/</text><text xml:space="preserve" font-family="Libertad-Book,Libertad" font-size="30.0" fill="#FEFFFF" transform="matrix(1.00, 0.00, -0.00, -1.00, 1788.7, 51.7)">1</text><text xml:space="preserve" font-family="Libertad-Book,Libertad" font-size="30.0" fill="#FEFFFF" transform="matrix(1.00, 0.00, -0.00, -1.00, 1800.7, 51.7)">I</text><text xml:space="preserve" font-family="Libertad-Book,Libertad" font-size="30.0" fill="#FEFFFF" transform="matrix(1.00, 0.00, -0.00, -1.00, 1808.1, 51.7)">J</text><text xml:space="preserve" font-family="Libertad-Book,Libertad" font-size="30.0" fill="#FEFFFF" transform="matrix(1.00, 0.00, -0.00, -1.00, 1818.2, 51.7)">W</text><text xml:space="preserve" font-family="Libertad-Book,Libertad" font-size="30.0" fill="#FEFFFF" transform="matrix(1.00, 0.00, -0.00, -1.00, 1846.1, 51.7)">m</text><text xml:space="preserve" font-family="Libertad-Book,Libertad" font-size="30.0" fill="#FEFFFF" transform="matrix(1.00, 0.00, -0.00, -1.00, 1872.0, 51.7)">2</text><text xml:space="preserve" font-family="Libertad-Book,Libertad" font-size="30.0" fill="#FEFFFF" transform="matrix(1.00, 0.00, -0.00, -1.00, 1886.6, 51.7)">7</text><g><clipPath id="clip0x608000ebdd60"><path d="M 1629.7 46.8 L 1901.8 46.8 L 1901.8 50.8 L 1629.7 50.8 Z M 1629.7 46.8 "></path></clipPath><g clip-path="url(#clip0x608000ebdd60)"><path d="M 652.5 28.2 L 923.7 28.2 " fill="none" stroke="#FEFFFF" stroke-width="1.95" transform="matrix(1.00, 0.00, 0.00, -1.00, 978.1, 77.0)"></path></g></g></g></svg>