<?xml version="1.0" encoding="UTF-8" standalone="no"?><svg xmlns="http://www.w3.org/2000/svg" xmlns:xlink="http://www.w3.org/1999/xlink" clip-rule="evenodd" stroke-miterlimit="10" viewBox="0 0 1920 1080"><desc>SVG generated by Keynote</desc><defs></defs><g transform="matrix(1.00, 0.00, -0.00, -1.00, 0.0, 1080.0)"><path d="M 0.0 1080.0 L 1920.0 1080.0 L 1920.0 0.0 L 0.0 0.0 Z M 0.0 1080.0 " fill="#43ABCB"></path><text xml:space="preserve" font-family="Libertad-ExtraBoldItalic,Libertad" font-style="italic" font-weight="bold" font-size="32.0" fill="#FEFFFF" transform="matrix(1.00, 0.00, -0.00, -1.00, 775.1, 575.3)">A</text><text xml:space="preserve" font-family="Libertad-ExtraBoldItalic,Libertad" font-style="italic" font-weight="bold" font-size="32.0" fill="#FEFFFF" transform="matrix(1.00, 0.00, -0.00, -1.00, 794.3, 575.3)"> </text><text xml:space="preserve" font-family="Libertad-ExtraBoldItalic,Libertad" font-style="italic" font-weight="bold" font-size="32.0" fill="#FEFFFF" transform="matrix(1.00, 0.00, -0.00, -1.00, 801.0, 575.3)">i</text><text xml:space="preserve" font-family="Libertad-ExtraBoldItalic,Libertad" font-style="italic" font-weight="bold" font-size="32.0" fill="#FEFFFF" transform="matrix(1.00, 0.00, -0.00, -1.00, 809.4, 575.3)">m</text><text xml:space="preserve" font-family="Libertad-ExtraBoldItalic,Libertad" font-style="italic" font-weight="bold" font-size="32.0" fill="#FEFFFF" transform="matrix(1.00, 0.00, -0.00, -1.00, 836.2, 575.3)">p</text><text xml:space="preserve" font-family="Libertad-ExtraBoldItalic,Libertad" font-style="italic" font-weight="bold" font-size="32.0" fill="#FEFFFF" transform="matrix(1.00, 0.00, -0.00, -1.00, 853.2, 575.3)">o</text><text xml:space="preserve" font-family="Libertad-ExtraBoldItalic,Libertad" font-style="italic" font-weight="bold" font-size="32.0" fill="#FEFFFF" transform="matrix(1.00, 0.00, -0.00, -1.00, 868.5, 575.3)">r</text><text xml:space="preserve" font-family="Libertad-ExtraBoldItalic,Libertad" font-style="italic" font-weight="bold" font-size="32.0" fill="#FEFFFF" transform="matrix(1.00, 0.00, -0.00, -1.00, 882.0, 575.3)">t</text><text xml:space="preserve" font-family="Libertad-ExtraBoldItalic,Libertad" font-style="italic" font-weight="bold" font-size="32.0" fill="#FEFFFF" transform="matrix(1.00, 0.00, -0.00, -1.00, 893.7, 575.3)">â</text><text xml:space="preserve" font-family="Libertad-ExtraBoldItalic,Libertad" font-style="italic" font-weight="bold" font-size="32.0" fill="#FEFFFF" transform="matrix(1.00, 0.00, -0.00, -1.00, 910.8, 575.3)">n</text><text xml:space="preserve" font-family="Libertad-ExtraBoldItalic,Libertad" font-style="italic" font-weight="bold" font-size="32.0" fill="#FEFFFF" transform="matrix(1.00, 0.00, -0.00, -1.00, 927.9, 575.3)">c</text><text xml:space="preserve" font-family="Libertad-ExtraBoldItalic,Libertad" font-style="italic" font-weight="bold" font-size="32.0" fill="#FEFFFF" transform="matrix(1.00, 0.00, -0.00, -1.00, 940.4, 575.3)">i</text><text xml:space="preserve" font-family="Libertad-ExtraBoldItalic,Libertad" font-style="italic" font-weight="bold" font-size="32.0" fill="#FEFFFF" transform="matrix(1.00, 0.00, -0.00, -1.00, 948.8, 575.3)">a</text><text xml:space="preserve" font-family="Libertad-ExtraBoldItalic,Libertad" font-style="italic" font-weight="bold" font-size="32.0" fill="#FEFFFF" transform="matrix(1.00, 0.00, -0.00, -1.00, 965.9, 575.3)"> </text><text xml:space="preserve" font-family="Libertad-ExtraBoldItalic,Libertad" font-style="italic" font-weight="bold" font-size="32.0" fill="#FEFFFF" transform="matrix(1.00, 0.00, -0.00, -1.00, 972.6, 575.3)">d</text><text xml:space="preserve" font-family="Libertad-ExtraBoldItalic,Libertad" font-style="italic" font-weight="bold" font-size="32.0" fill="#FEFFFF" transform="matrix(1.00, 0.00, -0.00, -1.00, 989.6, 575.3)">a</text><text xml:space="preserve" font-family="Libertad-ExtraBoldItalic,Libertad" font-style="italic" font-weight="bold" font-size="32.0" fill="#FEFFFF" transform="matrix(1.00, 0.00, -0.00, -1.00, 1006.7, 575.3)"> </text><text xml:space="preserve" font-family="Libertad-ExtraBoldItalic,Libertad" font-style="italic" font-weight="bold" font-size="32.0" fill="#FEFFFF" transform="matrix(1.00, 0.00, -0.00, -1.00, 1013.4, 575.3)">a</text><text xml:space="preserve" font-family="Libertad-ExtraBoldItalic,Libertad" font-style="italic" font-weight="bold" font-size="32.0" fill="#FEFFFF" transform="matrix(1.00, 0.00, -0.00, -1.00, 1030.4, 575.3)">n</text><text xml:space="preserve" font-family="Libertad-ExtraBoldItalic,Libertad" font-style="italic" font-weight="bold" font-size="32.0" fill="#FEFFFF" transform="matrix(1.00, 0.00, -0.00, -1.00, 1048.0, 575.3)">i</text><text xml:space="preserve" font-family="Libertad-ExtraBoldItalic,Libertad" font-style="italic" font-weight="bold" font-size="32.0" fill="#FEFFFF" transform="matrix(1.00, 0.00, -0.00, -1.00, 1056.4, 575.3)">m</text><text xml:space="preserve" font-family="Libertad-ExtraBoldItalic,Libertad" font-style="italic" font-weight="bold" font-size="32.0" fill="#FEFFFF" transform="matrix(1.00, 0.00, -0.00, -1.00, 1083.2, 575.3)">a</text><text xml:space="preserve" font-family="Libertad-ExtraBoldItalic,Libertad" font-style="italic" font-weight="bold" font-size="32.0" fill="#FEFFFF" transform="matrix(1.00, 0.00, -0.00, -1.00, 1100.2, 575.3)">ç</text><text xml:space="preserve" font-family="Libertad-ExtraBoldItalic,Libertad" font-style="italic" font-weight="bold" font-size="32.0" fill="#FEFFFF" transform="matrix(1.00, 0.00, -0.00, -1.00, 1112.5, 575.3)">ã</text><text xml:space="preserve" font-family="Libertad-ExtraBoldItalic,Libertad" font-style="italic" font-weight="bold" font-size="32.0" fill="#FEFFFF" transform="matrix(1.00, 0.00, -0.00, -1.00, 1129.5, 575.3)">o</text><text xml:space="preserve" font-family="Libertad-ExtraBoldItalic,Libertad" font-style="italic" font-weight="bold" font-size="32.0" fill="#FEFFFF" transform="matrix(1.00, 0.00, -0.00, -1.00, 1144.8, 575.3)"> </text><text xml:space="preserve" font-family="LucidaGrande-Bold,Lucida Grande" font-weight="bold" font-size="32.0" fill="#FEFFFF" transform="matrix(1.00, 0.00, -0.00, -1.00, 1151.6, 575.3)"> </text><text xml:space="preserve" font-family="Libertad-ExtraBoldItalic,Libertad" font-style="italic" font-weight="bold" font-size="32.0" fill="#FEFFFF" transform="matrix(1.00, 0.00, -0.00, -1.00, 700.6, 543.3)">p</text><text xml:space="preserve" font-family="Libertad-ExtraBoldItalic,Libertad" font-style="italic" font-weight="bold" font-size="32.0" fill="#FEFFFF" transform="matrix(1.00, 0.00, -0.00, -1.00, 717.6, 543.3)">a</text><text xml:space="preserve" font-family="Libertad-ExtraBoldItalic,Libertad" font-style="italic" font-weight="bold" font-size="32.0" fill="#FEFFFF" transform="matrix(1.00, 0.00, -0.00, -1.00, 734.7, 543.3)">r</text><text xml:space="preserve" font-family="Libertad-ExtraBoldItalic,Libertad" font-style="italic" font-weight="bold" font-size="32.0" fill="#FEFFFF" transform="matrix(1.00, 0.00, -0.00, -1.00, 747.1, 543.3)">a</text><text xml:space="preserve" font-family="Libertad-ExtraBoldItalic,Libertad" font-style="italic" font-weight="bold" font-size="32.0" fill="#FEFFFF" transform="matrix(1.00, 0.00, -0.00, -1.00, 764.1, 543.3)"> </text><text xml:space="preserve" font-family="Libertad-ExtraBoldItalic,Libertad" font-style="italic" font-weight="bold" font-size="32.0" fill="#FEFFFF" transform="matrix(1.00, 0.00, -0.00, -1.00, 770.8, 543.3)">m</text><text xml:space="preserve" font-family="Libertad-ExtraBoldItalic,Libertad" font-style="italic" font-weight="bold" font-size="32.0" fill="#FEFFFF" transform="matrix(1.00, 0.00, -0.00, -1.00, 797.6, 543.3)">e</text><text xml:space="preserve" font-family="Libertad-ExtraBoldItalic,Libertad" font-style="italic" font-weight="bold" font-size="32.0" fill="#FEFFFF" transform="matrix(1.00, 0.00, -0.00, -1.00, 811.2, 543.3)">l</text><text xml:space="preserve" font-family="Libertad-ExtraBoldItalic,Libertad" font-style="italic" font-weight="bold" font-size="32.0" fill="#FEFFFF" transform="matrix(1.00, 0.00, -0.00, -1.00, 819.6, 543.3)">h</text><text xml:space="preserve" font-family="Libertad-ExtraBoldItalic,Libertad" font-style="italic" font-weight="bold" font-size="32.0" fill="#FEFFFF" transform="matrix(1.00, 0.00, -0.00, -1.00, 837.2, 543.3)">o</text><text xml:space="preserve" font-family="Libertad-ExtraBoldItalic,Libertad" font-style="italic" font-weight="bold" font-size="32.0" fill="#FEFFFF" transform="matrix(1.00, 0.00, -0.00, -1.00, 852.5, 543.3)">r</text><text xml:space="preserve" font-family="Libertad-ExtraBoldItalic,Libertad" font-style="italic" font-weight="bold" font-size="32.0" fill="#FEFFFF" transform="matrix(1.00, 0.00, -0.00, -1.00, 864.9, 543.3)">a</text><text xml:space="preserve" font-family="Libertad-ExtraBoldItalic,Libertad" font-style="italic" font-weight="bold" font-size="32.0" fill="#FEFFFF" transform="matrix(1.00, 0.00, -0.00, -1.00, 881.9, 543.3)">r</text><text xml:space="preserve" font-family="Libertad-ExtraBoldItalic,Libertad" font-style="italic" font-weight="bold" font-size="32.0" fill="#FEFFFF" transform="matrix(1.00, 0.00, -0.00, -1.00, 893.9, 543.3)"> </text><text xml:space="preserve" font-family="Libertad-ExtraBoldItalic,Libertad" font-style="italic" font-weight="bold" font-size="32.0" fill="#FEFFFF" transform="matrix(1.00, 0.00, -0.00, -1.00, 900.6, 543.3)">a</text><text xml:space="preserve" font-family="Libertad-ExtraBoldItalic,Libertad" font-style="italic" font-weight="bold" font-size="32.0" fill="#FEFFFF" transform="matrix(1.00, 0.00, -0.00, -1.00, 917.6, 543.3)"> </text><text xml:space="preserve" font-family="Libertad-ExtraBoldItalic,Libertad" font-style="italic" font-weight="bold" font-size="32.0" fill="#FEFFFF" transform="matrix(1.00, 0.00, -0.00, -1.00, 924.4, 543.3)">e</text><text xml:space="preserve" font-family="Libertad-ExtraBoldItalic,Libertad" font-style="italic" font-weight="bold" font-size="32.0" fill="#FEFFFF" transform="matrix(1.00, 0.00, -0.00, -1.00, 937.3, 543.3)">x</text><text xml:space="preserve" font-family="Libertad-ExtraBoldItalic,Libertad" font-style="italic" font-weight="bold" font-size="32.0" fill="#FEFFFF" transform="matrix(1.00, 0.00, -0.00, -1.00, 953.7, 543.3)">p</text><text xml:space="preserve" font-family="Libertad-ExtraBoldItalic,Libertad" font-style="italic" font-weight="bold" font-size="32.0" fill="#FEFFFF" transform="matrix(1.00, 0.00, -0.00, -1.00, 970.8, 543.3)">e</text><text xml:space="preserve" font-family="Libertad-ExtraBoldItalic,Libertad" font-style="italic" font-weight="bold" font-size="32.0" fill="#FEFFFF" transform="matrix(1.00, 0.00, -0.00, -1.00, 984.3, 543.3)">r</text><text xml:space="preserve" font-family="Libertad-ExtraBoldItalic,Libertad" font-style="italic" font-weight="bold" font-size="32.0" fill="#FEFFFF" transform="matrix(1.00, 0.00, -0.00, -1.00, 997.1, 543.3)">i</text><text xml:space="preserve" font-family="Libertad-ExtraBoldItalic,Libertad" font-style="italic" font-weight="bold" font-size="32.0" fill="#FEFFFF" transform="matrix(1.00, 0.00, -0.00, -1.00, 1005.5, 543.3)">ê</text><text xml:space="preserve" font-family="Libertad-ExtraBoldItalic,Libertad" font-style="italic" font-weight="bold" font-size="32.0" fill="#FEFFFF" transform="matrix(1.00, 0.00, -0.00, -1.00, 1019.1, 543.3)">n</text><text xml:space="preserve" font-family="Libertad-ExtraBoldItalic,Libertad" font-style="italic" font-weight="bold" font-size="32.0" fill="#FEFFFF" transform="matrix(1.00, 0.00, -0.00, -1.00, 1036.2, 543.3)">c</text><text xml:space="preserve" font-family="Libertad-ExtraBoldItalic,Libertad" font-style="italic" font-weight="bold" font-size="32.0" fill="#FEFFFF" transform="matrix(1.00, 0.00, -0.00, -1.00, 1048.7, 543.3)">i</text><text xml:space="preserve" font-family="Libertad-ExtraBoldItalic,Libertad" font-style="italic" font-weight="bold" font-size="32.0" fill="#FEFFFF" transform="matrix(1.00, 0.00, -0.00, -1.00, 1057.2, 543.3)">a</text><text xml:space="preserve" font-family="Libertad-ExtraBoldItalic,Libertad" font-style="italic" font-weight="bold" font-size="32.0" fill="#FEFFFF" transform="matrix(1.00, 0.00, -0.00, -1.00, 1074.2, 543.3)"> </text><text xml:space="preserve" font-family="Libertad-ExtraBoldItalic,Libertad" font-style="italic" font-weight="bold" font-size="32.0" fill="#FEFFFF" transform="matrix(1.00, 0.00, -0.00, -1.00, 1080.9, 543.3)">d</text><text xml:space="preserve" font-family="Libertad-ExtraBoldItalic,Libertad" font-style="italic" font-weight="bold" font-size="32.0" fill="#FEFFFF" transform="matrix(1.00, 0.00, -0.00, -1.00, 1098.0, 543.3)">e</text><text xml:space="preserve" font-family="Libertad-ExtraBoldItalic,Libertad" font-style="italic" font-weight="bold" font-size="32.0" fill="#FEFFFF" transform="matrix(1.00, 0.00, -0.00, -1.00, 1111.5, 543.3)"> </text><text xml:space="preserve" font-family="Libertad-ExtraBoldItalic,Libertad" font-style="italic" font-weight="bold" font-size="32.0" fill="#FEFFFF" transform="matrix(1.00, 0.00, -0.00, -1.00, 1118.3, 543.3)">c</text><text xml:space="preserve" font-family="Libertad-ExtraBoldItalic,Libertad" font-style="italic" font-weight="bold" font-size="32.0" fill="#FEFFFF" transform="matrix(1.00, 0.00, -0.00, -1.00, 1130.8, 543.3)">o</text><text xml:space="preserve" font-family="Libertad-ExtraBoldItalic,Libertad" font-style="italic" font-weight="bold" font-size="32.0" fill="#FEFFFF" transform="matrix(1.00, 0.00, -0.00, -1.00, 1146.1, 543.3)">m</text><text xml:space="preserve" font-family="Libertad-ExtraBoldItalic,Libertad" font-style="italic" font-weight="bold" font-size="32.0" fill="#FEFFFF" transform="matrix(1.00, 0.00, -0.00, -1.00, 1172.9, 543.3)">p</text><text xml:space="preserve" font-family="Libertad-ExtraBoldItalic,Libertad" font-style="italic" font-weight="bold" font-size="32.0" fill="#FEFFFF" transform="matrix(1.00, 0.00, -0.00, -1.00, 1189.9, 543.3)">r</text><text xml:space="preserve" font-family="Libertad-ExtraBoldItalic,Libertad" font-style="italic" font-weight="bold" font-size="32.0" fill="#FEFFFF" transform="matrix(1.00, 0.00, -0.00, -1.00, 1202.3, 543.3)">a</text><text xml:space="preserve" font-family="Libertad-Book,Libertad" font-size="24.0" fill="#FEFFFF" transform="matrix(1.00, 0.00, -0.00, -1.00, 881.7, 212.2)">R</text><text xml:space="preserve" font-family="Libertad-Book,Libertad" font-size="24.0" fill="#FEFFFF" transform="matrix(1.00, 0.00, -0.00, -1.00, 894.8, 212.2)">o</text><text xml:space="preserve" font-family="Libertad-Book,Libertad" font-size="24.0" fill="#FEFFFF" transform="matrix(1.00, 0.00, -0.00, -1.00, 908.1, 212.2)">d</text><text xml:space="preserve" font-family="Libertad-Book,Libertad" font-size="24.0" fill="#FEFFFF" transform="matrix(1.00, 0.00, -0.00, -1.00, 921.8, 212.2)">r</text><text xml:space="preserve" font-family="Libertad-Book,Libertad" font-size="24.0" fill="#FEFFFF" transform="matrix(1.00, 0.00, -0.00, -1.00, 930.0, 212.2)">i</text><text xml:space="preserve" font-family="Libertad-Book,Libertad" font-size="24.0" fill="#FEFFFF" transform="matrix(1.00, 0.00, -0.00, -1.00, 935.8, 212.2)">g</text><text xml:space="preserve" font-family="Libertad-Book,Libertad" font-size="24.0" fill="#FEFFFF" transform="matrix(1.00, 0.00, -0.00, -1.00, 947.6, 212.2)">o</text><text xml:space="preserve" font-family="Libertad-Book,Libertad" font-size="24.0" fill="#FEFFFF" transform="matrix(1.00, 0.00, -0.00, -1.00, 961.0, 212.2)"> </text><text xml:space="preserve" font-family="Libertad-Book,Libertad" font-size="24.0" fill="#FEFFFF" transform="matrix(1.00, 0.00, -0.00, -1.00, 966.3, 212.2)">M</text><text xml:space="preserve" font-family="Libertad-Book,Libertad" font-size="24.0" fill="#FEFFFF" transform="matrix(1.00, 0.00, -0.00, -1.00, 985.7, 212.2)">u</text><text xml:space="preserve" font-family="Libertad-Book,Libertad" font-size="24.0" fill="#FEFFFF" transform="matrix(1.00, 0.00, -0.00, -1.00, 998.9, 212.2)">n</text><text xml:space="preserve" font-family="Libertad-Book,Libertad" font-size="24.0" fill="#FEFFFF" transform="matrix(1.00, 0.00, -0.00, -1.00, 1012.4, 212.2)">i</text><text xml:space="preserve" font-family="Libertad-Book,Libertad" font-size="24.0" fill="#FEFFFF" transform="matrix(1.00, 0.00, -0.00, -1.00, 1018.2, 212.2)">z</text><text xml:space="preserve" font-family="Libertad-Book,Libertad" font-size="24.0" fill="#FEFFFF" transform="matrix(1.00, 0.00, -0.00, -1.00, 1028.9, 212.2)"> </text><text xml:space="preserve" font-family="Libertad-Book,Libertad" font-size="24.0" fill="#FEFFFF" transform="matrix(1.00, 0.00, -0.00, -1.00, 812.3, 183.8)">U</text><text xml:space="preserve" font-family="Libertad-Book,Libertad" font-size="24.0" fill="#FEFFFF" transform="matrix(1.00, 0.00, -0.00, -1.00, 827.0, 183.8)">I</text><text xml:space="preserve" font-family="Libertad-Book,Libertad" font-size="24.0" fill="#FEFFFF" transform="matrix(1.00, 0.00, -0.00, -1.00, 832.9, 183.8)"> </text><text xml:space="preserve" font-family="Libertad-Book,Libertad" font-size="24.0" fill="#FEFFFF" transform="matrix(1.00, 0.00, -0.00, -1.00, 838.2, 183.8)">D</text><text xml:space="preserve" font-family="Libertad-Book,Libertad" font-size="24.0" fill="#FEFFFF" transform="matrix(1.00, 0.00, -0.00, -1.00, 853.2, 183.8)">e</text><text xml:space="preserve" font-family="Libertad-Book,Libertad" font-size="24.0" fill="#FEFFFF" transform="matrix(1.00, 0.00, -0.00, -1.00, 865.4, 183.8)">s</text><text xml:space="preserve" font-family="Libertad-Book,Libertad" font-size="24.0" fill="#FEFFFF" transform="matrix(1.00, 0.00, -0.00, -1.00, 875.2, 183.8)">i</text><text xml:space="preserve" font-family="Libertad-Book,Libertad" font-size="24.0" fill="#FEFFFF" transform="matrix(1.00, 0.00, -0.00, -1.00, 881.0, 183.8)">g</text><text xml:space="preserve" font-family="Libertad-Book,Libertad" font-size="24.0" fill="#FEFFFF" transform="matrix(1.00, 0.00, -0.00, -1.00, 893.2, 183.8)">n</text><text xml:space="preserve" font-family="Libertad-Book,Libertad" font-size="24.0" fill="#FEFFFF" transform="matrix(1.00, 0.00, -0.00, -1.00, 906.6, 183.8)">e</text><text xml:space="preserve" font-family="Libertad-Book,Libertad" font-size="24.0" fill="#FEFFFF" transform="matrix(1.00, 0.00, -0.00, -1.00, 918.7, 183.8)">r</text><text xml:space="preserve" font-family="Libertad-Book,Libertad" font-size="24.0" fill="#FEFFFF" transform="matrix(1.00, 0.00, -0.00, -1.00, 926.3, 183.8)"> </text><text xml:space="preserve" font-family="Libertad-Book,Libertad" font-size="24.0" fill="#FEFFFF" transform="matrix(1.00, 0.00, -0.00, -1.00, 931.6, 183.8)">&amp;</text><text xml:space="preserve" font-family="Libertad-Book,Libertad" font-size="24.0" fill="#FEFFFF" transform="matrix(1.00, 0.00, -0.00, -1.00, 947.6, 183.8)"> </text><text xml:space="preserve" font-family="Libertad-Book,Libertad" font-size="24.0" fill="#FEFFFF" transform="matrix(1.00, 0.00, -0.00, -1.00, 952.9, 183.8)">U</text><text xml:space="preserve" font-family="Libertad-Book,Libertad" font-size="24.0" fill="#FEFFFF" transform="matrix(1.00, 0.00, -0.00, -1.00, 967.6, 183.8)">X</text><text xml:space="preserve" font-family="Libertad-Book,Libertad" font-size="24.0" fill="#FEFFFF" transform="matrix(1.00, 0.00, -0.00, -1.00, 981.9, 183.8)"> </text><text xml:space="preserve" font-family="Libertad-Book,Libertad" font-size="24.0" fill="#FEFFFF" transform="matrix(1.00, 0.00, -0.00, -1.00, 987.2, 183.8)">R</text><text xml:space="preserve" font-family="Libertad-Book,Libertad" font-size="24.0" fill="#FEFFFF" transform="matrix(1.00, 0.00, -0.00, -1.00, 1000.2, 183.8)">e</text><text xml:space="preserve" font-family="Libertad-Book,Libertad" font-size="24.0" fill="#FEFFFF" transform="matrix(1.00, 0.00, -0.00, -1.00, 1012.5, 183.8)">s</text><text xml:space="preserve" font-family="Libertad-Book,Libertad" font-size="24.0" fill="#FEFFFF" transform="matrix(1.00, 0.00, -0.00, -1.00, 1022.5, 183.8)">e</text><text xml:space="preserve" font-family="Libertad-Book,Libertad" font-size="24.0" fill="#FEFFFF" transform="matrix(1.00, 0.00, -0.00, -1.00, 1034.6, 183.8)">a</text><text xml:space="preserve" font-family="Libertad-Book,Libertad" font-size="24.0" fill="#FEFFFF" transform="matrix(1.00, 0.00, -0.00, -1.00, 1046.3, 183.8)">r</text><text xml:space="preserve" font-family="Libertad-Book,Libertad" font-size="24.0" fill="#FEFFFF" transform="matrix(1.00, 0.00, -0.00, -1.00, 1054.2, 183.8)">c</text><text xml:space="preserve" font-family="Libertad-Book,Libertad" font-size="24.0" fill="#FEFFFF" transform="matrix(1.00, 0.00, -0.00, -1.00, 1065.1, 183.8)">h</text><text xml:space="preserve" font-family="Libertad-Book,Libertad" font-size="24.0" fill="#FEFFFF" transform="matrix(1.00, 0.00, -0.00, -1.00, 1078.6, 183.8)">e</text><text xml:space="preserve" font-family="Libertad-Book,Libertad" font-size="24.0" fill="#FEFFFF" transform="matrix(1.00, 0.00, -0.00, -1.00, 1090.7, 183.8)">r</text><text xml:space="preserve" font-family="Libertad-Book,Libertad" font-size="24.0" fill="#FEFFFF" transform="matrix(1.00, 0.00, -0.00, -1.00, 1098.3, 183.8)"> </text><text xml:space="preserve" font-family="Libertad-Book,Libertad" font-size="24.0" fill="#FEFFFF" transform="matrix(1.00, 0.00, -0.00, -1.00, 891.0, 155.5)">l</text><text xml:space="preserve" font-family="Libertad-Book,Libertad" font-size="24.0" fill="#FEFFFF" transform="matrix(1.00, 0.00, -0.00, -1.00, 896.8, 155.5)">a</text><text xml:space="preserve" font-family="Libertad-Book,Libertad" font-size="24.0" fill="#FEFFFF" transform="matrix(1.00, 0.00, -0.00, -1.00, 908.5, 155.5)">b</text><text xml:space="preserve" font-family="Libertad-Book,Libertad" font-size="24.0" fill="#FEFFFF" transform="matrix(1.00, 0.00, -0.00, -1.00, 922.0, 155.5)">.</text><text xml:space="preserve" font-family="Libertad-Book,Libertad" font-size="24.0" fill="#FEFFFF" transform="matrix(1.00, 0.00, -0.00, -1.00, 925.3, 155.5)">v</text><text xml:space="preserve" font-family="Libertad-Book,Libertad" font-size="24.0" fill="#FEFFFF" transform="matrix(1.00, 0.00, -0.00, -1.00, 937.3, 155.5)">t</text><text xml:space="preserve" font-family="Libertad-Book,Libertad" font-size="24.0" fill="#FEFFFF" transform="matrix(1.00, 0.00, -0.00, -1.00, 945.9, 155.5)">e</text><text xml:space="preserve" font-family="Libertad-Book,Libertad" font-size="24.0" fill="#FEFFFF" transform="matrix(1.00, 0.00, -0.00, -1.00, 958.0, 155.5)">x</text><text xml:space="preserve" font-family="Libertad-Book,Libertad" font-size="24.0" fill="#FEFFFF" transform="matrix(1.00, 0.00, -0.00, -1.00, 969.7, 155.5)">.</text><text xml:space="preserve" font-family="Libertad-Book,Libertad" font-size="24.0" fill="#FEFFFF" transform="matrix(1.00, 0.00, -0.00, -1.00, 974.7, 155.5)">c</text><text xml:space="preserve" font-family="Libertad-Book,Libertad" font-size="24.0" fill="#FEFFFF" transform="matrix(1.00, 0.00, -0.00, -1.00, 985.6, 155.5)">o</text><text xml:space="preserve" font-family="Libertad-Book,Libertad" font-size="24.0" fill="#FEFFFF" transform="matrix(1.00, 0.00, -0.00, -1.00, 998.9, 155.5)">m</text><text xml:space="preserve" font-family="LucidaGrande,Lucida Grande" font-size="24.0" fill="#FEFFFF" transform="matrix(1.00, 0.00, -0.00, -1.00, 1019.7, 155.5)"> </text><text xml:space="preserve" font-family="Libertad-Book,Libertad" font-size="24.0" fill="#FEFFFF" transform="matrix(1.00, 0.00, -0.00, -1.00, 904.4, 127.2)">@</text><text xml:space="preserve" font-family="Libertad-Book,Libertad" font-size="24.0" fill="#FEFFFF" transform="matrix(1.00, 0.00, -0.00, -1.00, 930.8, 127.2)">v</text><text xml:space="preserve" font-family="Libertad-Book,Libertad" font-size="24.0" fill="#FEFFFF" transform="matrix(1.00, 0.00, -0.00, -1.00, 942.8, 127.2)">t</text><text xml:space="preserve" font-family="Libertad-Book,Libertad" font-size="24.0" fill="#FEFFFF" transform="matrix(1.00, 0.00, -0.00, -1.00, 951.4, 127.2)">e</text><text xml:space="preserve" font-family="Libertad-Book,Libertad" font-size="24.0" fill="#FEFFFF" transform="matrix(1.00, 0.00, -0.00, -1.00, 963.5, 127.2)">x</text><text xml:space="preserve" font-family="Libertad-Book,Libertad" font-size="24.0" fill="#FEFFFF" transform="matrix(1.00, 0.00, -0.00, -1.00, 975.2, 127.2)">l</text><text xml:space="preserve" font-family="Libertad-Book,Libertad" font-size="24.0" fill="#FEFFFF" transform="matrix(1.00, 0.00, -0.00, -1.00, 981.0, 127.2)">a</text><text xml:space="preserve" font-family="Libertad-Book,Libertad" font-size="24.0" fill="#FEFFFF" transform="matrix(1.00, 0.00, -0.00, -1.00, 992.7, 127.2)">b</text><text xml:space="preserve" font-family="Libertad-Book,Libertad" font-size="24.0" fill="#FEFFFF" transform="matrix(1.00, 0.00, -0.00, -1.00, 1006.2, 127.2)"> </text><text xml:space="preserve" font-family="Libertad-Book,Libertad" font-size="24.0" fill="#FEFFFF" transform="matrix(1.00, 0.00, -0.00, -1.00, 877.3, 98.8)">f</text><text xml:space="preserve" font-family="Libertad-Book,Libertad" font-size="24.0" fill="#FEFFFF" transform="matrix(1.00, 0.00, -0.00, -1.00, 884.9, 98.8)">b</text><text xml:space="preserve" font-family="Libertad-Book,Libertad" font-size="24.0" fill="#FEFFFF" transform="matrix(1.00, 0.00, -0.00, -1.00, 898.4, 98.8)">.</text><text xml:space="preserve" font-family="Libertad-Book,Libertad" font-size="24.0" fill="#FEFFFF" transform="matrix(1.00, 0.00, -0.00, -1.00, 903.4, 98.8)">c</text><text xml:space="preserve" font-family="Libertad-Book,Libertad" font-size="24.0" fill="#FEFFFF" transform="matrix(1.00, 0.00, -0.00, -1.00, 914.3, 98.8)">o</text><text xml:space="preserve" font-family="Libertad-Book,Libertad" font-size="24.0" fill="#FEFFFF" transform="matrix(1.00, 0.00, -0.00, -1.00, 927.6, 98.8)">m</text><text xml:space="preserve" font-family="Libertad-Book,Libertad" font-size="24.0" fill="#FEFFFF" transform="matrix(1.00, 0.00, -0.00, -1.00, 948.4, 98.8)">/</text><text xml:space="preserve" font-family="Libertad-Book,Libertad" font-size="24.0" fill="#FEFFFF" transform="matrix(1.00, 0.00, -0.00, -1.00, 958.1, 98.8)">v</text><text xml:space="preserve" font-family="Libertad-Book,Libertad" font-size="24.0" fill="#FEFFFF" transform="matrix(1.00, 0.00, -0.00, -1.00, 970.1, 98.8)">t</text><text xml:space="preserve" font-family="Libertad-Book,Libertad" font-size="24.0" fill="#FEFFFF" transform="matrix(1.00, 0.00, -0.00, -1.00, 978.7, 98.8)">e</text><text xml:space="preserve" font-family="Libertad-Book,Libertad" font-size="24.0" fill="#FEFFFF" transform="matrix(1.00, 0.00, -0.00, -1.00, 990.8, 98.8)">x</text><text xml:space="preserve" font-family="Libertad-Book,Libertad" font-size="24.0" fill="#FEFFFF" transform="matrix(1.00, 0.00, -0.00, -1.00, 1002.5, 98.8)">l</text><text xml:space="preserve" font-family="Libertad-Book,Libertad" font-size="24.0" fill="#FEFFFF" transform="matrix(1.00, 0.00, -0.00, -1.00, 1008.4, 98.8)">a</text><text xml:space="preserve" font-family="Libertad-Book,Libertad" font-size="24.0" fill="#FEFFFF" transform="matrix(1.00, 0.00, -0.00, -1.00, 1020.0, 98.8)">b</text><g><clipPath id="clip0x6080018a1e60"><path d="M 798.0 846.0 L 1122.0 846.0 L 1122.0 923.0 L 798.0 923.0 Z M 798.0 846.0 "></path></clipPath><g clip-path="url(#clip0x6080018a1e60)"><path d="M 1001.5 848.9 L 979.3 848.9 L 999.6 885.2 L 979.3 921.7 L 1001.5 921.7 L 1013.1 900.7 L 1024.8 921.7 L 1046.9 921.7 L 1026.6 885.3 L 1046.9 848.9 L 1024.7 848.9 L 1013.1 869.7 L 1001.5 848.9 " fill="#FFFEFE"></path><path d="M 948.2 903.9 L 948.2 894.6 L 970.3 894.6 L 970.3 877.3 L 948.4 877.3 C 948.4 877.3 948.4 875.0 948.4 872.1 C 948.4 869.0 950.9 867.0 953.5 867.0 C 957.2 867.0 973.7 867.0 973.7 867.0 L 973.7 848.9 C 973.7 848.9 954.4 848.9 944.2 848.9 C 935.7 848.9 928.2 855.8 928.2 865.0 C 928.2 875.4 928.2 921.7 928.2 921.7 L 973.7 921.7 L 973.7 903.9 L 948.2 903.9 " fill="#FFFEFE"></path><path d="M 847.9 921.7 L 870.0 921.7 L 834.0 846.0 L 822.9 869.3 L 847.9 921.7 " fill="#FFFEFE"></path></g></g><g><clipPath id="clip0x6080018a1c20"><path d="M 798.1 922.3 L 1121.6 922.3 L 1121.6 846.0 L 798.1 846.0 Z M 798.1 922.3 "></path></clipPath><g clip-path="url(#clip0x6080018a1c20)"><g><clipPath id="clip0x6080018a4c20"><path d="M 798.0 846.0 L 1122.0 846.0 L 1122.0 923.0 L 798.0 923.0 Z M 798.0 846.0 "></path></clipPath><g clip-path="url(#clip0x6080018a4c20)"><path d="M 884.9 903.9 L 868.5 903.9 L 876.9 921.7 L 921.5 921.7 L 921.5 903.9 L 905.0 903.9 L 905.0 848.9 L 884.9 848.9 L 884.9 903.9 " fill="#FFFEFE"></path><path d="M 819.5 876.5 L 798.0 921.7 L 820.0 921.7 L 830.6 899.8 L 819.5 876.5 " fill="#FFFEFE"></path></g></g></g></g><g><clipPath id="clip0x6080018a4e00"><path d="M 798.0 846.0 L 1122.0 846.0 L 1122.0 923.0 L 798.0 923.0 Z M 798.0 846.0 "></path></clipPath><g clip-path="url(#clip0x6080018a4e00)"><path d="M 1069.9 883.6 L 1056.8 883.6 L 1056.8 920.8 C 1056.8 921.7 1056.1 922.3 1055.3 922.3 C 1054.5 922.3 1053.8 921.7 1053.8 920.8 L 1053.8 880.6 L 1069.9 880.6 C 1070.7 880.6 1071.4 881.2 1071.4 882.1 C 1071.4 882.9 1070.7 883.6 1069.9 883.6 " fill="#FFFEFE"></path><path d="M 1078.5 899.8 L 1078.5 912.7 C 1078.5 913.2 1079.0 919.3 1085.0 919.3 C 1091.0 919.3 1091.5 913.5 1091.6 912.7 L 1091.6 899.8 L 1078.5 899.8 Z M 1093.2 917.5 C 1092.1 919.7 1089.7 922.3 1085.0 922.3 C 1077.8 922.3 1075.6 916.1 1075.5 912.8 L 1075.5 898.3 C 1075.5 898.3 1075.5 898.3 1075.5 898.3 L 1075.5 898.3 L 1075.5 882.1 C 1075.5 881.2 1076.1 880.6 1077.0 880.6 C 1077.8 880.6 1078.5 881.2 1078.5 882.1 L 1078.5 896.8 L 1091.6 896.8 L 1091.6 882.1 C 1091.6 881.2 1092.2 880.6 1093.1 880.6 C 1093.9 880.6 1094.6 881.2 1094.6 882.1 L 1094.6 912.7 L 1094.6 912.8 C 1094.6 912.9 1094.4 915.2 1093.2 917.5 " fill="#FFFEFE"></path><path d="M 1113.1 883.6 L 1105.1 883.6 L 1105.1 900.7 L 1113.5 900.7 C 1113.8 900.7 1114.9 900.4 1116.0 899.5 C 1117.7 898.1 1118.6 895.9 1118.6 893.0 C 1118.6 885.5 1115.0 883.6 1113.1 883.6 Z M 1111.9 919.3 C 1112.7 919.2 1118.0 918.1 1118.0 911.6 C 1118.0 905.2 1114.1 903.9 1113.4 903.8 L 1105.1 903.8 L 1105.1 919.3 L 1111.9 919.3 Z M 1117.2 902.4 C 1119.2 904.0 1121.0 906.8 1121.0 911.6 C 1121.0 919.2 1115.3 921.9 1112.2 922.3 L 1102.1 922.3 L 1102.1 880.6 L 1113.1 880.6 C 1116.1 880.6 1121.6 883.2 1121.6 893.0 C 1121.6 898.0 1119.5 900.9 1117.2 902.4 " fill="#FFFEFE"></path></g></g><text xml:space="preserve" font-family="Libertad-ExtraBoldItalic,Libertad" font-style="italic" font-weight="bold" font-size="98.0" fill="#FEFFFF" transform="matrix(1.00, 0.00, -0.00, -1.00, 752.6, 664.0)">O</text><text xml:space="preserve" font-family="Libertad-ExtraBoldItalic,Libertad" font-style="italic" font-weight="bold" font-size="98.0" fill="#FEFFFF" transform="matrix(1.00, 0.00, -0.00, -1.00, 815.3, 664.0)">b</text><text xml:space="preserve" font-family="Libertad-ExtraBoldItalic,Libertad" font-style="italic" font-weight="bold" font-size="98.0" fill="#FEFFFF" transform="matrix(1.00, 0.00, -0.00, -1.00, 867.7, 664.0)">r</text><text xml:space="preserve" font-family="Libertad-ExtraBoldItalic,Libertad" font-style="italic" font-weight="bold" font-size="98.0" fill="#FEFFFF" transform="matrix(1.00, 0.00, -0.00, -1.00, 906.7, 664.0)">i</text><text xml:space="preserve" font-family="Libertad-ExtraBoldItalic,Libertad" font-style="italic" font-weight="bold" font-size="98.0" fill="#FEFFFF" transform="matrix(1.00, 0.00, -0.00, -1.00, 932.5, 664.0)">g</text><text xml:space="preserve" font-family="Libertad-ExtraBoldItalic,Libertad" font-style="italic" font-weight="bold" font-size="98.0" fill="#FEFFFF" transform="matrix(1.00, 0.00, -0.00, -1.00, 984.9, 664.0)">a</text><text xml:space="preserve" font-family="Libertad-ExtraBoldItalic,Libertad" font-style="italic" font-weight="bold" font-size="98.0" fill="#FEFFFF" transform="matrix(1.00, 0.00, -0.00, -1.00, 1037.1, 664.0)">d</text><text xml:space="preserve" font-family="Libertad-ExtraBoldItalic,Libertad" font-style="italic" font-weight="bold" font-size="98.0" fill="#FEFFFF" transform="matrix(1.00, 0.00, -0.00, -1.00, 1089.3, 664.0)">o</text><text xml:space="preserve" font-family="Libertad-ExtraBoldItalic,Libertad" font-style="italic" font-weight="bold" font-size="98.0" fill="#FEFFFF" transform="matrix(1.00, 0.00, -0.00, -1.00, 1136.1, 664.0)">!</text></g></svg>