<?xml version="1.0" encoding="UTF-8" standalone="no"?><svg xmlns="http://www.w3.org/2000/svg" xmlns:xlink="http://www.w3.org/1999/xlink" clip-rule="evenodd" stroke-miterlimit="10" viewBox="0 0 1372 382"><desc>SVG generated by Keynote</desc><defs></defs><g transform="matrix(1.00, 0.00, -0.00, -1.00, 0.0, 382.0)"><text xml:space="preserve" font-family="Libertad-ExtraBoldItalic,Libertad" font-style="italic" font-weight="bold" font-size="187.0" fill="#FEFFFF" transform="matrix(1.00, 0.00, -0.00, -1.00, -4.0, 241.4)">e</text><text xml:space="preserve" font-family="Libertad-ExtraBoldItalic,Libertad" font-style="italic" font-weight="bold" font-size="187.0" fill="#FEFFFF" transform="matrix(1.00, 0.00, -0.00, -1.00, 71.7, 241.4)">x</text><text xml:space="preserve" font-family="Libertad-ExtraBoldItalic,Libertad" font-style="italic" font-weight="bold" font-size="187.0" fill="#FEFFFF" transform="matrix(1.00, 0.00, -0.00, -1.00, 167.4, 241.4)">e</text><text xml:space="preserve" font-family="Libertad-ExtraBoldItalic,Libertad" font-style="italic" font-weight="bold" font-size="187.0" fill="#FEFFFF" transform="matrix(1.00, 0.00, -0.00, -1.00, 246.8, 241.4)">m</text><text xml:space="preserve" font-family="Libertad-ExtraBoldItalic,Libertad" font-style="italic" font-weight="bold" font-size="187.0" fill="#FEFFFF" transform="matrix(1.00, 0.00, -0.00, -1.00, 403.0, 241.4)">p</text><text xml:space="preserve" font-family="Libertad-ExtraBoldItalic,Libertad" font-style="italic" font-weight="bold" font-size="187.0" fill="#FEFFFF" transform="matrix(1.00, 0.00, -0.00, -1.00, 502.7, 241.4)">l</text><text xml:space="preserve" font-family="Libertad-ExtraBoldItalic,Libertad" font-style="italic" font-weight="bold" font-size="187.0" fill="#FEFFFF" transform="matrix(1.00, 0.00, -0.00, -1.00, 552.0, 241.4)">o</text><text xml:space="preserve" font-family="Libertad-ExtraBoldItalic,Libertad" font-style="italic" font-weight="bold" font-size="187.0" fill="#FEFFFF" transform="matrix(1.00, 0.00, -0.00, -1.00, 643.2, 241.4)">s</text><text xml:space="preserve" font-family="Libertad-ExtraBoldItalic,Libertad" font-style="italic" font-weight="bold" font-size="187.0" fill="#FEFFFF" transform="matrix(1.00, 0.00, -0.00, -1.00, 713.1, 241.4)"> </text><text xml:space="preserve" font-family="Libertad-ExtraBoldItalic,Libertad" font-style="italic" font-weight="bold" font-size="187.0" fill="#FEFFFF" transform="matrix(1.00, 0.00, -0.00, -1.00, 752.4, 241.4)">r</text><text xml:space="preserve" font-family="Libertad-ExtraBoldItalic,Libertad" font-style="italic" font-weight="bold" font-size="187.0" fill="#FEFFFF" transform="matrix(1.00, 0.00, -0.00, -1.00, 826.7, 241.4)">u</text><text xml:space="preserve" font-family="Libertad-ExtraBoldItalic,Libertad" font-style="italic" font-weight="bold" font-size="187.0" fill="#FEFFFF" transform="matrix(1.00, 0.00, -0.00, -1.00, 928.8, 241.4)">i</text><text xml:space="preserve" font-family="Libertad-ExtraBoldItalic,Libertad" font-style="italic" font-weight="bold" font-size="187.0" fill="#FEFFFF" transform="matrix(1.00, 0.00, -0.00, -1.00, 978.0, 241.4)">n</text><text xml:space="preserve" font-family="Libertad-ExtraBoldItalic,Libertad" font-style="italic" font-weight="bold" font-size="187.0" fill="#FEFFFF" transform="matrix(1.00, 0.00, -0.00, -1.00, 1079.7, 241.4)">s</text><text xml:space="preserve" font-family="Libertad-ExtraBoldItalic,Libertad" font-style="italic" font-weight="bold" font-size="187.0" fill="#FEFFFF" transform="matrix(1.00, 0.00, -0.00, -1.00, 1149.6, 241.4)"> </text><text xml:space="preserve" font-family="Libertad-ExtraBoldItalic,Libertad" font-style="italic" font-weight="bold" font-size="187.0" fill="#FEFFFF" transform="matrix(1.00, 0.00, -0.00, -1.00, 1188.9, 241.4)">d</text><text xml:space="preserve" font-family="Libertad-ExtraBoldItalic,Libertad" font-style="italic" font-weight="bold" font-size="187.0" fill="#FEFFFF" transform="matrix(1.00, 0.00, -0.00, -1.00, 1288.4, 241.4)">e</text><text xml:space="preserve" font-family="Libertad-ExtraBoldItalic,Libertad" font-style="italic" font-weight="bold" font-size="187.0" fill="#FEFFFF" transform="matrix(1.00, 0.00, -0.00, -1.00, 1367.8, 241.4)"> </text><text xml:space="preserve" font-family="Libertad-ExtraBoldItalic,Libertad" font-style="italic" font-weight="bold" font-size="187.0" fill="#FEFFFF" transform="matrix(1.00, 0.00, -0.00, -1.00, 297.9, 54.4)">a</text><text xml:space="preserve" font-family="Libertad-ExtraBoldItalic,Libertad" font-style="italic" font-weight="bold" font-size="187.0" fill="#FEFFFF" transform="matrix(1.00, 0.00, -0.00, -1.00, 397.4, 54.4)">n</text><text xml:space="preserve" font-family="Libertad-ExtraBoldItalic,Libertad" font-style="italic" font-weight="bold" font-size="187.0" fill="#FEFFFF" transform="matrix(1.00, 0.00, -0.00, -1.00, 500.0, 54.4)">i</text><text xml:space="preserve" font-family="Libertad-ExtraBoldItalic,Libertad" font-style="italic" font-weight="bold" font-size="187.0" fill="#FEFFFF" transform="matrix(1.00, 0.00, -0.00, -1.00, 549.3, 54.4)">m</text><text xml:space="preserve" font-family="Libertad-ExtraBoldItalic,Libertad" font-style="italic" font-weight="bold" font-size="187.0" fill="#FEFFFF" transform="matrix(1.00, 0.00, -0.00, -1.00, 705.6, 54.4)">a</text><text xml:space="preserve" font-family="Libertad-ExtraBoldItalic,Libertad" font-style="italic" font-weight="bold" font-size="187.0" fill="#FEFFFF" transform="matrix(1.00, 0.00, -0.00, -1.00, 805.1, 54.4)">รง</text><text xml:space="preserve" font-family="Libertad-ExtraBoldItalic,Libertad" font-style="italic" font-weight="bold" font-size="187.0" fill="#FEFFFF" transform="matrix(1.00, 0.00, -0.00, -1.00, 877.0, 54.4)">รฃ</text><text xml:space="preserve" font-family="Libertad-ExtraBoldItalic,Libertad" font-style="italic" font-weight="bold" font-size="187.0" fill="#FEFFFF" transform="matrix(1.00, 0.00, -0.00, -1.00, 976.6, 54.4)">o</text></g></svg>